<svg width="1440" height="133" viewBox="0 0 1440 133" fill="none" xmlns="http://www.w3.org/2000/svg">
<path d="M-139 185.447C-130.506 141.766 -118.101 98.1153 -101.186 54.6917C-92.1662 31.5262 -26.8165 27.6911 29.0858 25.258C229.816 16.5362 430.583 5.49473 632.376 2.39157C896.745 -1.68068 1162.1 0.628645 1427.03 0.865763C1521.37 0.948239 1569.97 12.9176 1590.4 42.2378C1628.49 96.8781 1605.75 151.601 1567.49 204.849C1559.42 216.077 1489.7 226.458 1443.03 230.139C1364.94 236.304 1282.7 237.458 1201.91 239.489C1004.47 244.459 807.037 250.923 609.265 252.634C609.265 252.634 -99.9637 283.325 -112.968 248.005C-125.984 212.685 -139 185.447 -139 185.447Z" fill="black"/>
</svg>
