<svg width="287" height="368" viewBox="0 0 287 368" fill="none" xmlns="http://www.w3.org/2000/svg">
<path d="M273.545 337.19C273.545 341.775 273.833 346.386 273.382 350.922C273.232 352.476 271.215 353.854 270.037 355.307C268.747 354.167 266.341 353.039 266.329 351.887C266.241 341.287 266.529 330.687 266.893 320.087C266.918 319.285 268.459 318.546 269.286 317.769C270.401 319.022 272.38 320.225 272.468 321.553C272.844 326.728 272.618 331.952 272.618 337.165C272.919 337.165 273.219 337.165 273.52 337.165L273.545 337.19Z" fill="black"/>
<path d="M141.083 281.976C113.721 280.986 78.4789 279.746 43.2242 278.367C39.7162 278.229 36.1707 277.503 32.7505 276.638C13.9455 271.877 4.13578 261.402 2.64491 241.518C1.04128 220.105 0.76566 198.567 0.490037 177.079C0.0640741 144.503 -0.136376 111.914 0.101662 79.3372C0.201889 66.6323 1.21668 53.8773 2.74513 41.2602C5.87722 15.6375 19.6208 2.73216 46.6569 1.46668C70.6111 0.351564 94.6404 0.952977 118.632 0.777565C158.51 0.501917 198.387 0.151093 238.265 0.000739596C243.865 -0.0243193 249.541 0.589623 255.078 1.50427C274.535 4.7494 283.73 15.0862 285.447 36.9125C286.599 51.6721 286.888 66.5195 286.825 81.3293C286.637 128.302 286.224 175.275 285.635 222.248C285.509 232.246 284.495 242.257 283.568 252.218C282.678 261.778 277.416 268.857 268.822 272.466C262.006 275.323 254.552 277.803 247.273 278.154C214.536 279.783 181.775 280.585 141.07 281.951L141.083 281.976ZM152.095 9.07205C152.095 8.95929 152.095 8.84652 152.095 8.73376C133.729 8.73376 115.35 8.37041 96.9957 8.83399C78.4413 9.29758 59.8868 10.2749 41.37 11.603C25.1708 12.7682 16.8144 20.2483 13.2063 36.073C12.0537 41.1224 11.3396 46.3847 11.2644 51.5594C10.5252 100.199 9.64824 148.838 9.52296 197.477C9.48537 214.505 11.0389 231.582 12.63 248.572C13.4569 257.456 19.4454 263.608 27.902 265.825C37.1103 268.231 46.6444 270.286 56.1033 270.624C90.2931 271.865 124.508 272.842 158.723 272.892C188.766 272.942 218.834 272.115 248.839 270.712C268.759 269.772 276.401 261.252 276.765 241.393C277.805 184.196 278.807 127.012 279.245 69.8148C279.345 56.9596 277.04 44.0918 275.863 31.2241C274.81 19.7095 267.669 13.5701 257.108 11.5905C248.751 10.0243 240.132 9.29758 231.625 9.19735C205.128 8.90917 178.618 9.08458 152.12 9.08458L152.095 9.07205Z" fill="black"/>
<path d="M126.35 341.099C126.35 333.619 125.974 326.113 126.475 318.658C126.863 312.732 129.169 311.892 134.155 314.987C144.228 321.214 154.238 327.554 164.398 333.631C168.194 335.899 168.244 338.242 165.288 340.961C161.467 344.469 157.57 347.927 153.524 351.172C147.209 356.247 140.682 361.045 134.355 366.095C130.409 369.24 127.552 368.563 127.202 363.539C126.675 356.084 127.064 348.579 127.064 341.086C126.826 341.086 126.588 341.086 126.35 341.086V341.099Z" fill="black"/>
<path d="M47.2079 321.829C46.3685 332.993 45.8173 342.352 44.8526 351.661C44.6772 353.39 43.2239 355.621 41.733 356.385C40.7433 356.886 38.2126 355.583 37.085 354.405C32.65 349.719 28.1649 345.008 24.4314 339.784C23.2162 338.08 23.2036 333.845 24.4815 332.379C28.691 327.542 33.6147 323.282 38.5759 319.173C40.1419 317.87 43.2865 316.592 44.5895 317.318C46.2933 318.27 46.8822 321.215 47.2079 321.841V321.829Z" fill="black"/>
<path d="M235.183 336.663C235.317 325.47 240.32 322.35 250.192 327.304C252.798 328.607 255.579 329.584 258.098 331.012C262.52 333.518 262.909 336.738 258.987 339.796C253.901 343.767 248.639 347.539 243.264 351.11C238.591 354.217 235.71 352.814 235.221 347.263C234.92 343.755 235.158 340.184 235.158 336.651L235.183 336.663Z" fill="black"/>
<path d="M9.72343 337.415C9.72343 332.629 9.51045 327.817 9.84871 323.044C9.96147 321.503 11.5526 320.074 12.4671 318.596C13.7074 319.786 15.95 320.914 16.0252 322.179C16.7142 332.516 17.1527 342.878 17.2404 353.227C17.2404 354.58 14.7598 355.958 13.4193 357.324C12.0913 355.883 9.77354 354.53 9.6232 352.976C9.1346 347.827 9.43528 342.602 9.43528 337.402C9.52297 337.402 9.6232 337.402 9.7109 337.402L9.72343 337.415Z" fill="black"/>
<path d="M275.837 31.1992C274.785 19.6846 267.644 13.5452 257.083 11.5656C248.726 9.99938 240.107 9.27267 231.6 9.17243C205.103 8.88426 178.593 9.05967 152.095 9.05967V8.72137C133.729 8.72137 115.35 8.35802 96.9957 8.82161C78.4412 9.2852 59.8868 10.2625 41.3699 11.5906C25.1708 12.7559 16.8144 20.2359 13.2062 36.0606C12.0536 41.11 11.3395 46.3723 11.2643 51.547C10.5252 100.186 9.64817 148.826 9.52289 197.465C9.4853 214.492 11.0388 231.57 12.6299 248.56C13.4568 257.443 19.4453 263.595 27.9019 265.813C37.1103 268.219 46.6443 270.273 56.1032 270.612C90.293 271.852 124.508 272.829 158.723 272.88C188.766 272.93 218.834 272.103 248.839 270.699C268.759 269.76 276.401 261.24 276.765 241.381C277.804 184.184 278.807 126.999 279.245 69.8024C279.345 56.9472 277.04 44.0795 275.863 31.2117L275.837 31.1992Z" fill="white"/>
<path d="M103.36 86.2162C108.835 85.9406 112.331 85.8027 113.846 85.8027C116.49 85.8027 118.269 86.0032 119.184 86.4041C120.098 86.8051 120.562 87.5569 120.562 88.6469C120.562 89.0479 120.512 89.5365 120.424 90.0878C120.299 90.9899 119.835 91.6665 119.021 92.1426C118.206 92.6062 116.515 93.1951 113.934 93.9093C113.471 94.0346 113.233 95.4128 113.233 98.0565C113.233 100.011 113.295 102.317 113.42 104.96C113.546 108.318 113.608 110.398 113.608 111.212C113.608 114.194 113.345 116.149 112.819 117.064C112.293 117.978 111.266 118.442 109.737 118.442C109.211 118.442 108.685 118.329 108.159 118.116C107.632 117.903 107.257 117.64 107.044 117.327C106.643 116.7 106.129 112.754 105.503 105.486L104.613 94.7112L101.631 94.4355C99.9275 94.2852 98.4867 93.7715 97.3216 92.8944C96.1565 92.0299 95.5676 91.04 95.5676 89.9625C95.5676 88.7472 96.1314 87.8701 97.2715 87.3063C98.4116 86.7424 100.429 86.3916 103.36 86.2287V86.2162Z" fill="black"/>
<path d="M150.492 83.0458C151.582 81.9558 152.359 81.417 152.822 81.417C153.135 81.417 153.787 81.6676 154.777 82.1562C155.428 82.4945 155.892 83.4718 156.18 85.0881C156.468 86.7044 156.718 90.1876 156.969 95.5251C157.157 99.5095 157.245 102.429 157.245 104.296C157.245 107.09 156.881 109.069 156.167 110.222C155.203 111.751 154.163 112.503 153.048 112.503C152.058 112.503 151.168 111.901 150.417 110.711C149.653 109.521 149.151 107.879 148.901 105.799L148.487 101.74L143.313 102.341C139.83 102.679 137.588 102.855 136.598 102.855C135.884 102.855 135.42 103.143 135.22 103.719C135.019 104.296 134.919 105.599 134.919 107.616C134.919 109.633 134.794 111.062 134.543 111.788C134.293 112.515 133.679 113.179 132.677 113.768C131.712 114.457 131.01 114.795 130.584 114.795C130.246 114.795 129.795 114.52 129.231 113.956C128.329 113.116 127.615 111.438 127.089 108.919C126.563 106.401 126.124 102.642 125.786 97.6426C125.661 95.9887 125.598 94.3599 125.598 92.7436C125.598 90.0999 125.861 88.2581 126.387 87.1931C126.914 86.1406 127.828 85.6018 129.144 85.6018C130.672 85.6018 131.724 86.0654 132.313 87.0051C132.902 87.9448 133.203 89.5737 133.203 91.9041C133.203 93.6081 133.253 94.6982 133.341 95.1618C133.428 95.6254 133.716 95.8634 134.18 95.8634C134.456 95.8634 134.944 95.7883 135.621 95.6254C137.3 95.1868 139.893 94.8235 143.401 94.5103L148.763 94.0968V89.4358C148.763 87.6692 148.888 86.316 149.139 85.4014C149.389 84.4867 149.84 83.6973 150.492 83.0458Z" fill="black"/>
<path d="M166.854 87.2806C169.034 86.2907 171.051 85.7896 172.918 85.7896C174.784 85.7896 176.012 86.3158 176.689 87.3808C176.964 87.8444 177.102 88.3456 177.102 88.8718C177.102 90.4254 176.125 91.716 174.171 92.7434C173.206 93.2696 172.73 94.2344 172.73 95.6377C172.73 96.0762 172.742 96.427 172.78 96.7152C172.905 98.7951 173.356 99.8351 174.133 99.8351C174.596 99.8351 175.311 99.5218 176.275 98.9079C176.776 98.5696 177.491 98.3942 178.418 98.3942C178.819 98.3942 179.094 98.4318 179.257 98.4819C180.685 99.0708 181.399 100.173 181.399 101.79C181.399 102.779 181.099 103.744 180.51 104.684C179.921 105.611 179.094 106.3 178.042 106.739C176.426 107.39 175.611 108.155 175.611 109.019C175.611 109.758 176.275 110.46 177.616 111.112C178.393 111.45 179.082 111.625 179.67 111.625C180.36 111.625 181.224 111.412 182.276 110.974C183.141 110.635 183.88 110.46 184.469 110.46C186.148 110.46 187.175 111.751 187.551 114.332C187.551 114.369 187.551 114.432 187.576 114.52C187.588 114.607 187.601 114.67 187.601 114.708C187.601 116.048 186.787 117.113 185.158 117.928C183.529 118.742 181.587 119.143 179.357 119.143C176.438 119.143 174.058 118.479 172.229 117.138C170.675 115.985 169.397 114.269 168.382 111.989C167.368 109.708 166.516 106.538 165.802 102.504C165.463 100.574 165.025 98.77 164.499 97.0911C163.972 95.4122 163.521 94.3597 163.146 93.9212C162.519 93.2696 162.219 92.568 162.219 91.8287C162.219 90.2124 163.772 88.7089 166.879 87.3056L166.854 87.2806Z" fill="black"/>
<path d="M84.5304 126.46C85.2695 125.245 86.1089 124.644 87.0486 124.644C88.2889 124.644 90.4563 125.997 93.5257 128.703L98.2865 132.951L101.318 129.505C103.398 127.149 105.352 125.959 107.194 125.959C108.535 125.959 109.825 126.586 111.065 127.826C111.905 128.64 112.431 129.668 112.656 130.921C112.869 132.174 113.057 135.03 113.22 139.478C113.283 141.596 113.308 143.024 113.308 143.763C113.308 147.334 113.032 149.765 112.494 151.031C111.955 152.296 110.965 152.948 109.537 152.948C108.109 152.948 107.056 152.271 106.48 150.918C105.904 149.565 105.616 147.159 105.616 143.713V137.937L103.147 140.694C101.531 142.435 100.04 143.3 98.6749 143.3C97.3093 143.3 95.6806 142.385 93.9642 140.543L91.208 137.511L90.6066 141.471C90.2683 144.077 90.0929 146.407 90.0929 148.462C90.0929 150.229 89.5793 151.72 88.552 152.935C87.5246 154.15 86.372 154.752 85.1067 154.752C83.9541 154.752 82.9894 154.276 82.2126 153.311C81.8744 152.872 81.699 151.319 81.699 148.65C81.699 144.828 81.9997 140.431 82.5885 135.456C83.1773 130.482 83.8288 127.488 84.5429 126.46H84.5304Z" fill="black"/>
<path d="M122.341 129.542C123.769 128.026 124.884 127.074 125.698 126.723C126.5 126.36 127.891 126.185 129.845 126.185C133.541 126.185 136.385 127.375 138.377 129.755C140.369 132.136 141.359 135.544 141.359 139.992C141.359 142.949 140.757 145.593 139.567 147.923C138.364 150.254 136.811 151.82 134.882 152.634C133.078 153.386 131.649 153.749 130.597 153.749C129.382 153.749 127.615 153.173 125.285 152.02C123.042 150.93 121.301 149.289 120.061 147.096C118.82 144.904 118.194 142.523 118.194 139.942C118.194 135.87 119.572 132.412 122.341 129.542ZM132.038 134.579C131.048 133.677 130.359 133.226 129.983 133.226C129.607 133.226 128.993 133.715 128.116 134.667C126.35 136.622 125.46 138.701 125.46 140.919C125.46 142.135 125.761 143.162 126.35 144.014C126.939 144.866 127.791 145.43 128.918 145.718C129.382 145.843 129.82 145.906 130.221 145.906C131.123 145.906 131.862 145.517 132.464 144.741C133.24 143.651 133.629 142.034 133.629 139.892C133.629 137.248 133.103 135.481 132.038 134.579Z" fill="black"/>
<path d="M163.409 129.543C163.997 128.49 165.025 127.964 166.491 127.964C167.793 127.964 168.796 128.377 169.472 129.217C169.998 129.906 170.262 131.848 170.262 135.043C170.262 136.697 170.237 138.025 170.174 139.052C170.086 142.473 169.898 144.866 169.635 146.232C169.372 147.598 168.909 148.65 168.257 149.402C167.167 150.58 165.889 151.168 164.436 151.168C162.607 151.168 160.69 150.266 158.698 148.462C157.232 147.184 156.167 146.545 155.478 146.545C154.451 146.545 153.937 148.099 153.937 151.206C153.937 153.01 153.611 154.326 152.96 155.14C152.308 155.967 151.281 156.381 149.878 156.381C148.387 156.381 147.397 155.529 146.896 153.837C146.395 152.146 146.145 148.763 146.145 143.701C146.145 140.193 146.245 137.599 146.445 135.933C146.646 134.266 147.009 133.076 147.535 132.362C148.375 131.084 149.515 130.445 150.943 130.445C152.371 130.445 153.361 131.084 154.025 132.362C154.614 133.514 155.954 135.218 158.034 137.461C160.114 139.704 161.392 140.844 161.855 140.844C161.943 140.844 162.043 140.631 162.156 140.193C162.268 139.754 162.356 139.165 162.431 138.401C162.507 137.637 162.544 136.835 162.544 135.995C162.544 132.913 162.82 130.758 163.384 129.518L163.409 129.543Z" fill="black"/>
<path d="M185.734 124.831C187.287 124.117 188.828 123.754 190.344 123.754C191.71 123.754 192.8 124.067 193.602 124.706C194.416 125.345 194.817 126.235 194.817 127.387C194.817 128.603 194.453 129.53 193.727 130.156C193 130.795 191.747 131.309 189.968 131.723C185.646 132.65 183.291 135.845 182.877 141.283C182.84 141.684 182.827 142.247 182.827 142.962C182.827 145.204 183.241 146.846 184.068 147.898C184.894 148.951 186.185 149.477 187.964 149.477C189.956 149.477 190.946 149.076 190.946 148.261C190.946 147.861 190.645 147.409 190.056 146.908C189.154 146.194 188.703 145.279 188.703 144.152C188.703 143.024 189.192 141.909 190.169 140.869C191.146 139.829 192.424 139.102 194.015 138.702C194.391 138.601 194.779 138.564 195.18 138.564C196.546 138.564 197.748 139.165 198.776 140.355C199.803 141.558 200.517 143.237 200.918 145.417C201.169 146.821 201.294 147.923 201.294 148.725C201.294 150.153 200.918 151.306 200.179 152.196C199.44 153.085 198.062 154.075 196.082 155.153C193.188 156.706 190.382 157.483 187.638 157.483C184.155 157.483 181.274 156.255 178.968 153.8C176.663 151.344 175.373 147.998 175.097 143.776C175.072 143.337 175.047 142.686 175.047 141.821C175.047 133.59 178.605 127.914 185.721 124.806L185.734 124.831Z" fill="black"/>
<path d="M56.8426 165.089C57.6444 163.873 58.6467 163.272 59.8243 163.272C61.3778 163.272 62.994 164.287 64.6728 166.304C65.9757 167.92 68.1682 172.105 71.2501 178.871C74.3321 185.637 75.8606 189.659 75.8606 190.975C75.8606 192.065 75.4847 192.942 74.7455 193.606C73.9938 194.27 73.0041 194.608 71.7638 194.608C70.9871 194.608 70.3732 194.37 69.9221 193.881C69.4711 193.393 68.9825 192.503 68.4563 191.2L67.1033 187.792L60.8516 188.168C58.584 188.318 57.0555 188.481 56.2537 188.632C55.4519 188.782 54.8631 189.033 54.4622 189.358C54.0613 189.684 53.6103 190.336 53.1091 191.288C51.7435 193.869 50.4531 195.159 49.2379 195.159C48.4987 195.159 47.6969 194.746 46.8575 193.906L44.9031 192.04L46.5318 187.567C47.3712 185.111 49.0625 181.126 51.5932 175.613C54.1239 170.101 55.8779 166.592 56.8426 165.101V165.089ZM62.2047 177.292C61.5532 175.889 61.002 175.2 60.576 175.2C60.1501 175.2 59.6489 175.864 59.0851 177.205C58.4587 178.545 58.158 179.46 58.158 179.961C58.158 180.462 58.4587 180.7 59.0476 180.7C59.486 180.7 59.9496 180.638 60.4507 180.512C61.9165 180.137 62.7183 179.848 62.8687 179.623C62.9313 179.535 62.9689 179.422 62.9689 179.297C62.9689 179.047 62.7184 178.382 62.2172 177.292H62.2047Z" fill="black"/>
<path d="M98.0485 168.396C98.6373 167.344 99.6646 166.817 101.13 166.817C102.433 166.817 103.436 167.231 104.112 168.07C104.638 168.759 104.901 170.702 104.901 173.897C104.901 175.55 104.876 176.879 104.814 177.906C104.726 181.326 104.538 183.72 104.275 185.085C104.012 186.451 103.548 187.503 102.897 188.255C101.807 189.433 100.529 190.022 99.0758 190.022C97.2466 190.022 95.3298 189.12 93.3378 187.316C91.872 186.038 90.8071 185.399 90.118 185.399C89.0907 185.399 88.577 186.952 88.577 190.059C88.577 191.864 88.2513 193.179 87.5998 193.994C86.9484 194.821 85.921 195.234 84.5179 195.234C83.027 195.234 82.0373 194.382 81.5361 192.691C81.035 190.999 80.7844 187.616 80.7844 182.554C80.7844 179.046 80.8846 176.453 81.0851 174.786C81.2856 173.12 81.6489 171.929 82.1751 171.215C83.0145 169.937 84.1545 169.298 85.5828 169.298C87.011 169.298 88.0007 169.937 88.6647 171.215C89.2536 172.368 90.5941 174.072 92.6738 176.315C94.7535 178.557 96.0314 179.698 96.4949 179.698C96.5826 179.698 96.6829 179.485 96.7956 179.046C96.9084 178.608 96.9961 178.019 97.0712 177.254C97.1464 176.49 97.184 175.688 97.184 174.849C97.184 171.767 97.4596 169.611 98.0234 168.371L98.0485 168.396Z" fill="black"/>
<path d="M117.68 163.911C123.155 163.635 126.65 163.498 128.166 163.498C130.81 163.498 132.589 163.698 133.503 164.099C134.418 164.5 134.881 165.252 134.881 166.342C134.881 166.743 134.831 167.231 134.744 167.783C134.618 168.685 134.155 169.361 133.34 169.837C132.526 170.301 130.835 170.89 128.254 171.604C127.79 171.729 127.552 173.108 127.552 175.751C127.552 177.706 127.615 180.011 127.74 182.655C127.866 186.013 127.928 188.093 127.928 188.907C127.928 191.889 127.665 193.844 127.139 194.759C126.613 195.673 125.585 196.137 124.057 196.137C123.531 196.137 123.005 196.024 122.478 195.811C121.952 195.598 121.576 195.335 121.363 195.022C120.962 194.395 120.449 190.448 119.822 183.181L118.933 172.406L115.951 172.13C114.247 171.98 112.807 171.466 111.641 170.589C110.476 169.725 109.887 168.735 109.887 167.657C109.887 166.442 110.451 165.565 111.591 165.001C112.731 164.437 114.748 164.086 117.68 163.924V163.911Z" fill="black"/>
<path d="M164.799 160.741C165.889 159.651 166.666 159.112 167.129 159.112C167.443 159.112 168.094 159.363 169.084 159.852C169.735 160.19 170.199 161.167 170.487 162.783C170.775 164.4 171.026 167.883 171.276 173.22C171.464 177.205 171.552 180.124 171.552 181.991C171.552 184.785 171.188 186.765 170.474 187.917C169.51 189.446 168.47 190.198 167.355 190.198C166.365 190.198 165.476 189.596 164.724 188.406C163.96 187.216 163.459 185.574 163.208 183.495L162.795 179.435L157.62 180.036C154.137 180.375 151.895 180.55 150.905 180.55C150.191 180.55 149.727 180.838 149.527 181.415C149.327 181.991 149.226 183.294 149.226 185.311C149.226 187.329 149.101 188.757 148.85 189.484C148.6 190.21 147.986 190.874 146.984 191.463C146.019 192.152 145.318 192.491 144.892 192.491C144.553 192.491 144.102 192.215 143.538 191.651C142.636 190.812 141.922 189.133 141.396 186.614C140.87 184.096 140.431 180.337 140.093 175.338C139.968 173.684 139.905 172.055 139.905 170.439C139.905 167.795 140.168 165.953 140.695 164.888C141.221 163.836 142.135 163.297 143.451 163.297C144.979 163.297 146.032 163.761 146.62 164.7C147.209 165.64 147.51 167.269 147.51 169.599C147.51 171.303 147.56 172.394 147.648 172.857C147.735 173.321 148.024 173.559 148.487 173.559C148.763 173.559 149.251 173.484 149.928 173.321C151.607 172.882 154.2 172.519 157.708 172.206L163.07 171.792V167.131C163.07 165.364 163.195 164.011 163.446 163.097C163.697 162.182 164.148 161.393 164.799 160.741Z" fill="black"/>
<path d="M181.174 164.989C183.354 163.999 185.371 163.498 187.238 163.498C189.104 163.498 190.332 164.024 191.009 165.089C191.284 165.552 191.422 166.054 191.422 166.58C191.422 168.133 190.445 169.424 188.49 170.451C187.526 170.978 187.05 171.942 187.05 173.346C187.05 173.784 187.062 174.135 187.1 174.423C187.225 176.503 187.676 177.543 188.453 177.543C188.916 177.543 189.63 177.23 190.595 176.616C191.096 176.278 191.81 176.102 192.737 176.102C193.138 176.102 193.414 176.14 193.577 176.19C195.005 176.779 195.719 177.881 195.719 179.498C195.719 180.487 195.419 181.452 194.83 182.392C194.241 183.319 193.414 184.008 192.362 184.447C190.745 185.098 189.931 185.863 189.931 186.727C189.931 187.466 190.595 188.168 191.936 188.82C192.712 189.158 193.401 189.333 193.99 189.333C194.679 189.333 195.544 189.12 196.596 188.682C197.461 188.343 198.2 188.168 198.789 188.168C200.467 188.168 201.495 189.459 201.871 192.04C201.871 192.077 201.871 192.14 201.896 192.228C201.908 192.315 201.921 192.378 201.921 192.416C201.921 193.756 201.106 194.821 199.478 195.636C197.849 196.45 195.907 196.851 193.677 196.851C190.758 196.851 188.378 196.187 186.548 194.846C184.995 193.693 183.717 191.977 182.702 189.697C181.687 187.416 180.836 184.246 180.121 180.212C179.783 178.282 179.345 176.478 178.818 174.799C178.292 173.12 177.841 172.068 177.465 171.629C176.839 170.978 176.538 170.276 176.538 169.537C176.538 167.92 178.092 166.417 181.199 165.014L181.174 164.989Z" fill="black"/>
<path d="M209.701 165.314C210.44 164.099 211.279 163.498 212.219 163.498C213.459 163.498 215.627 164.851 218.696 167.557L223.457 171.805L226.489 168.359C228.568 166.003 230.523 164.813 232.365 164.813C233.705 164.813 234.995 165.44 236.236 166.68C237.075 167.494 237.601 168.522 237.827 169.775C238.04 171.028 238.228 173.884 238.391 178.332C238.453 180.45 238.478 181.878 238.478 182.617C238.478 186.188 238.203 188.619 237.664 189.885C237.125 191.15 236.136 191.802 234.707 191.802C233.279 191.802 232.227 191.125 231.65 189.772C231.074 188.419 230.786 186.013 230.786 182.567V176.791L228.318 179.548C226.702 181.289 225.211 182.154 223.845 182.154C222.48 182.154 220.851 181.239 219.135 179.397L216.378 176.365L215.777 180.325C215.439 182.931 215.263 185.261 215.263 187.316C215.263 189.083 214.75 190.574 213.722 191.789C212.695 193.004 211.542 193.606 210.277 193.606C209.124 193.606 208.16 193.13 207.383 192.165C207.045 191.726 206.869 190.173 206.869 187.504C206.869 183.682 207.17 179.285 207.759 174.31C208.348 169.336 208.999 166.342 209.713 165.314H209.701Z" fill="black"/>
</svg>
