<svg width="795" height="233" viewBox="0 0 795 233" fill="none" xmlns="http://www.w3.org/2000/svg">
<path d="M13.5575 45.1075C18.2084 36.8741 23.6102 32.622 29.8045 32.3927C38.0636 32.08 52.7464 40.501 73.8947 57.6555L106.576 84.6066L125.827 60.9279C139.05 44.7114 151.751 36.3739 163.931 35.8945C172.795 35.561 181.534 39.3545 190.106 47.2752C195.883 52.4236 199.658 59.1562 201.431 67.4521C203.183 75.7479 205.164 94.6325 207.333 124.106C208.292 138.134 208.856 147.597 209.043 152.558C209.961 176.278 208.772 192.453 205.477 201.04C202.182 209.649 195.8 214.13 186.31 214.485C176.612 214.86 169.667 210.629 165.516 201.812C161.345 192.974 158.821 177.112 157.945 154.225L156.465 115.852L140.76 134.736C130.478 146.7 120.78 152.87 111.707 153.204C102.217 153.579 91.5391 147.889 79.7344 136.153L60.6927 116.748L57.6894 143.219C56.0834 160.645 55.5411 176.153 56.0834 189.764C56.5423 201.52 53.5181 211.567 47.0109 219.862C40.5038 228.179 33.0164 232.494 24.5696 232.806C16.9362 233.098 10.4082 230.159 5.0064 223.948C2.62879 221.155 1.08543 210.879 0.397169 193.141C-0.583076 167.753 0.251169 138.488 2.89992 105.325C5.54866 72.1628 9.1151 52.0901 13.5992 45.0866L13.5575 45.1075Z" fill="white"/>
<path d="M265.481 55.8421C274.574 45.3785 281.769 38.8335 287.046 36.2489C292.323 33.6643 301.458 32.1218 314.472 31.6216C339.041 30.6836 358.228 37.833 372.056 53.1116C385.863 68.3901 393.35 90.7764 394.497 120.271C395.248 139.885 391.953 157.56 384.612 173.339C377.249 189.118 367.28 199.936 354.704 205.793C342.92 211.212 333.514 214.047 326.506 214.318C318.455 214.631 306.547 211.275 290.758 204.23C275.617 197.58 263.624 187.138 254.823 172.922C246.001 158.686 241.266 143.032 240.599 125.898C239.556 98.8639 247.857 75.5187 265.501 55.8213L265.481 55.8421ZM331.178 86.7744C324.337 81.0423 319.686 78.2284 317.204 78.3327C314.722 78.4369 310.718 81.7927 305.191 88.4002C293.928 101.845 288.568 115.914 289.132 130.547C289.444 138.592 291.676 145.387 295.806 150.911C299.956 156.435 305.775 159.978 313.283 161.541C316.412 162.25 319.311 162.542 322.001 162.438C327.987 162.208 332.846 159.436 336.559 154.121C341.439 146.7 343.608 135.883 343.066 121.646C342.398 104.116 338.415 92.4856 331.178 86.7744Z" fill="white"/>
<path d="M538.302 45.3161C541.951 38.1458 548.625 34.373 558.324 33.9978C567 33.6643 573.715 36.1864 578.471 41.585C582.162 45.9831 584.415 58.8229 585.228 80.0628C585.645 91.0058 585.791 99.8853 585.645 106.701C585.896 129.421 585.332 145.346 583.914 154.496C582.517 163.647 579.743 170.775 575.593 175.903C568.668 184.032 560.347 188.263 550.648 188.638C538.468 189.118 525.538 183.615 511.877 172.151C501.845 164.064 494.566 160.103 490.019 160.291C483.199 160.562 480.196 171.005 480.989 191.64C481.447 203.604 479.612 212.4 475.503 218.049C471.374 223.677 464.679 226.678 455.377 227.033C445.47 227.408 438.65 222.051 434.917 210.92C431.184 199.811 428.66 177.424 427.367 143.803C426.47 120.5 426.47 103.283 427.388 92.1939C428.306 81.105 430.412 73.1218 433.749 68.2443C439.005 59.5732 446.367 55.0501 455.857 54.675C465.138 54.3206 472.125 58.2809 476.776 66.5768C480.989 74.0597 490.311 85.0236 504.723 99.4475C519.135 113.871 527.894 121.021 530.981 120.896C531.607 120.875 532.212 119.395 532.816 116.477C533.421 113.559 533.901 109.578 534.214 104.492C534.527 99.4267 534.589 94.0907 534.381 88.5254C533.588 68.0984 534.902 53.6953 538.302 45.2952V45.3161Z" fill="white"/>
<path d="M685.422 8.33889C695.558 3.19046 705.694 0.439061 715.809 0.0430274C724.903 -0.311318 732.202 1.52296 737.729 5.54582C743.256 9.56868 746.176 15.405 746.468 23.0338C746.781 31.0795 744.591 37.3118 739.898 41.7307C735.206 46.1496 727.03 49.9224 715.371 53.0698C686.923 60.3652 672.032 82.1261 670.76 118.332C670.655 121.021 670.697 124.752 670.885 129.483C671.469 144.345 674.618 155.163 680.354 161.979C686.089 168.774 694.849 171.963 706.612 171.505C719.814 171.004 726.321 168.065 726.112 162.688C726.008 159.999 723.922 157.081 719.876 153.933C713.703 149.41 710.47 143.449 710.199 136.028C709.907 128.4 712.869 121 719.105 113.83C725.341 106.659 733.662 101.553 744.09 98.4469C746.551 97.7382 749.117 97.3213 751.786 97.2171C760.88 96.8628 768.972 100.531 776.084 108.223C783.196 115.914 788.389 126.92 791.622 141.26C793.624 150.473 794.75 157.768 794.959 163.146C795.334 172.63 793.144 180.426 788.41 186.491C783.676 192.557 774.853 199.456 761.922 207.189C743.131 218.237 724.631 224.114 706.466 224.823C683.336 225.719 663.835 218.299 647.922 202.604C632.009 186.887 622.582 165.043 619.641 137.05C619.328 134.173 619.057 129.838 618.828 124.064C616.721 69.3905 638.912 30.8294 685.38 8.35974L685.422 8.33889Z" fill="white"/>
</svg>
