<svg width="307" height="333" viewBox="0 0 307 333" fill="none" xmlns="http://www.w3.org/2000/svg">
<path d="M10.5144 10.5222C14.1214 4.13689 18.3107 0.839171 23.1147 0.661353C29.52 0.418873 40.9071 6.94967 57.3085 20.2537L82.6547 41.1555L97.5842 22.7917C107.839 10.2151 117.69 3.74893 127.136 3.37713C134.01 3.11848 140.787 6.06057 147.435 12.2034C151.916 16.1962 154.843 21.4176 156.218 27.8514C157.577 34.2852 159.114 48.931 160.796 71.7888C161.54 82.668 161.977 90.0071 162.122 93.8544C162.834 112.251 161.912 124.795 159.356 131.455C156.801 138.131 151.851 141.607 144.492 141.882C136.97 142.173 131.584 138.891 128.365 132.053C125.13 125.199 123.173 112.897 122.494 95.1477L121.345 65.3873L109.165 80.0331C101.191 89.312 93.6698 94.0969 86.6337 94.3556C79.2741 94.6466 70.9925 90.2334 61.8375 81.1323L47.0698 66.0824L44.7406 86.6124C43.4951 100.127 43.0746 112.154 43.4951 122.71C43.851 131.827 41.5056 139.618 36.459 146.052C31.4124 152.502 25.6056 155.848 19.0548 156.091C13.1348 156.317 8.072 154.038 3.88268 149.221C2.03874 147.055 0.841795 139.085 0.308022 125.328C-0.452201 105.639 0.194793 82.9429 2.24901 57.2238C4.30323 31.5048 7.06915 15.9376 10.5468 10.506L10.5144 10.5222Z" fill="#FFF9F9"/>
<path d="M205.892 18.8474C212.944 10.7324 218.524 5.65647 222.616 3.65197C226.709 1.64747 233.793 0.451237 243.887 0.0632696C262.941 -0.66417 277.822 4.88054 288.546 16.7297C299.253 28.5789 305.06 45.9405 305.95 68.8144C306.532 84.026 303.976 97.7341 298.283 109.971C292.573 122.208 284.842 130.598 275.088 135.141C265.949 139.344 258.654 141.542 253.219 141.752C246.976 141.995 237.74 139.392 225.496 133.928C213.753 128.772 204.452 120.673 197.626 109.648C190.784 98.6071 187.113 86.4669 186.595 73.179C185.786 52.2126 192.224 34.1074 205.908 18.8312L205.892 18.8474ZM256.843 42.8367C251.537 38.3913 247.93 36.2089 246.005 36.2898C244.081 36.3706 240.975 38.9732 236.689 44.0976C227.954 54.5243 223.797 65.4358 224.234 76.7839C224.477 83.0237 226.207 88.2936 229.41 92.5774C232.629 96.8612 237.142 99.6093 242.965 100.822C245.391 101.371 247.639 101.598 249.726 101.517C254.368 101.339 258.137 99.189 261.016 95.0669C264.801 89.312 266.483 80.9222 266.062 69.8813C265.545 56.2863 262.455 47.266 256.843 42.8367Z" fill="#FFF9F9"/>
<path d="M106.174 191.188C109.005 185.627 114.181 182.701 121.702 182.41C128.431 182.151 133.639 184.107 137.327 188.294C140.19 191.705 141.937 201.663 142.568 218.135C142.891 226.622 143.005 233.508 142.891 238.794C143.085 256.415 142.649 268.765 141.549 275.862C140.465 282.958 138.314 288.487 135.095 292.463C129.725 298.768 123.271 302.049 115.75 302.34C106.304 302.712 96.2751 298.445 85.6805 289.554C77.9003 283.281 72.2553 280.21 68.7291 280.356C63.4399 280.566 61.1108 288.664 61.7254 304.668C62.0812 313.947 60.6578 320.769 57.4714 325.15C54.2687 329.514 49.0766 331.842 41.8626 332.117C34.1795 332.408 28.8903 328.253 25.9949 319.621C23.0996 311.005 21.1425 293.643 20.1396 267.569C19.4441 249.496 19.4441 236.143 20.1558 227.543C20.8675 218.943 22.5012 212.752 25.0891 208.969C29.1652 202.245 34.875 198.737 42.2346 198.446C49.4325 198.171 54.8511 201.242 58.4581 207.676C61.7254 213.48 68.9556 221.983 80.1325 233.169C91.3094 244.355 98.1029 249.9 100.497 249.803C100.982 249.787 101.451 248.639 101.92 246.376C102.389 244.113 102.761 241.025 103.004 237.081C103.246 233.153 103.295 229.014 103.133 224.698C102.519 208.856 103.538 197.686 106.174 191.171V191.188Z" fill="#FFF9F9"/>
<path d="M220.272 162.51C228.133 158.517 235.994 156.384 243.839 156.076C250.891 155.802 256.553 157.224 260.839 160.344C265.125 163.464 267.39 167.99 267.616 173.907C267.859 180.147 266.16 184.98 262.521 188.407C258.882 191.834 252.541 194.76 243.499 197.201C221.437 202.859 209.888 219.735 208.901 247.815C208.82 249.9 208.853 252.794 208.998 256.463C209.451 267.989 211.893 276.379 216.342 281.665C220.79 286.935 227.583 289.408 236.706 289.052C246.945 288.664 251.991 286.385 251.829 282.214C251.749 280.129 250.131 277.866 246.993 275.425C242.205 271.917 239.698 267.294 239.488 261.539C239.262 255.622 241.558 249.884 246.395 244.323C251.231 238.762 257.685 234.801 265.772 232.393C267.681 231.843 269.67 231.52 271.741 231.439C278.793 231.164 285.069 234.009 290.585 239.974C296.1 245.939 300.128 254.475 302.635 265.596C304.188 272.742 305.061 278.399 305.223 282.57C305.514 289.925 303.816 295.971 300.144 300.675C296.472 305.379 289.63 310.73 279.602 316.727C265.028 325.295 250.681 329.854 236.593 330.403C218.655 331.098 203.531 325.343 191.19 313.171C178.848 300.982 171.537 284.041 169.256 262.331C169.014 260.1 168.803 256.738 168.625 252.26C166.992 209.858 184.202 179.953 220.24 162.526L220.272 162.51Z" fill="#FFF9F9"/>
</svg>
