<?xml version="1.0" encoding="UTF-8"?>
<svg id="Layer_1" data-name="Layer 1" xmlns="http://www.w3.org/2000/svg" version="1.1" viewBox="0 0 236 230">
  <defs>
    <style>
      .cls-1 {
        fill: #000;
      }

      .cls-1, .cls-2 {
        stroke-width: 0px;
      }

      .cls-2 {
        fill: #fff;
      }
    </style>
  </defs>
  <path class="cls-1" d="M230.7,94.9c0,22.8-1.9,45.7,1.8,68.4,1.8,11,4.3,21.9,3.3,33.1-.9,9.6-4.2,18.2-11.4,24.8-2.8,2.6-6.1,4-10,4.4-31.1,3.3-62.3,4.1-93.5,3-18.3-.7-36.5,1.6-54.8,1.4-9.9-.1-19.9.9-29.5-2.3-11.9-4-23.5-8.6-29.6-20.4-4.8-9.3-5.4-19.7-5.8-29.9C-.7,139.4-.3,101.5,2.4,63.7c.9-12.5,1.2-25.1,2.9-37.5C7.1,13.7,15,6.4,26.5,2.3,35.9-1,45.5-.2,54.9,1.1c20.8,2.7,41.6,3.5,62.6,2.1,20.9-1.3,41.7-3.7,62.7-2.6,15.7.8,30.1,5.4,42,16.4,7.6,7,9.6,16.1,9.7,25.8,0,17.3.2,34.7-1.2,52h0Z"/>
  <path class="cls-2" d="M192.1,7.9c-19.8-2.4-39.7-.9-59.5.5-23.4,1.6-46.7,2.7-70-.4-7.4-1-14.9-2.3-22.2-1.9-17.2,1-28.4,7.5-29.6,26.9-.7,10.8-1.2,21.5-2,32.3-3.2,41-4.2,82-.4,123,1.1,11.6,5.1,22.1,16.5,27.7,10.1,4.9,20.6,8,32.1,8.1,21.6.1,43.2-2.6,64.8-2,29.2.8,58.5.5,87.7-2.1,8-.7,13.3-4.4,16.7-11.7,5.5-11.7,3.8-23.6,1.6-35.4-3.3-17.7-4.1-35.5-3.6-53.3.7-25.5,1.1-50.9,1.4-76.4,0-8.7-1.8-16.4-8.1-22.7-.2-2.5-2.2-2.8-4.1-3.1-.3-.2-.7-.4-1-.6,0-1.4-.9-1.8-2.2-1.6-.3-.2-.7-.3-1-.5-.2-1.4-1-1.8-2.3-1.6-.6-.3-1.3-.5-1.9-.8-1.4-2-3.5-2.4-5.7-2.2-1.3-.3-2.6-.7-3.9-1-.6-1.9-2-1.6-3.5-1.3h0Z"/>
</svg>