<?xml version="1.0" encoding="UTF-8"?>
<svg id="Layer_1" data-name="Layer 1" xmlns="http://www.w3.org/2000/svg" viewBox="0 0 593.02 593.02">
  <defs>
    <style>
      .cls-1 {
        fill: #000;
      }

      .cls-1, .cls-2, .cls-3 {
        stroke-width: 0px;
      }

      .cls-2 {
        fill: #832eff;
      }

      .cls-3 {
        fill: #fff;
      }
    </style>
  </defs>
  <path class="cls-1" d="M551.29,293.21c-.87,61.08-16.43,115.64-52.71,163.27-30.13,39.55-70.14,65.31-116.71,81.42-28.91,10-58.78,15.03-89.33,14.6-83.96-1.17-151.51-34.97-200.44-103.63-36.42-51.1-53.33-108.39-49.93-171.26,2.48-45.82,17.88-87.17,44.63-124.3,28.74-39.88,66.57-68.03,110.87-89.12,33.78-16.08,68.88-23.84,105.61-23.71,69.02.25,127.77,26.66,176.88,74.4,43.43,42.22,64.26,95.12,69.84,154.64.79,8.45.93,16.96,1.29,23.68ZM293.15,524.69c.06.48.13.95.19,1.43,17.29-2.32,34.84-3.45,51.83-7.18,61.43-13.5,111.02-45.14,144.78-99.06,29.74-47.5,40.73-99.55,33.81-155.05-6.26-50.28-27.23-93.71-63.82-129.13-30.17-29.2-65.88-48.98-106.05-60.72-18.72-5.47-37.74-10.6-57.41-9.58-59.42,3.08-111.39,24.91-155.64,64.53-34.67,31.04-58.4,69.04-68.81,114.69-10.43,45.72-5.76,90.36,10.89,133.94,34.5,90.29,114.84,146.13,210.22,146.13Z"/>
  <path class="cls-2" d="M293.15,524.69c-95.38,0-175.72-55.83-210.22-146.13-16.65-43.58-21.32-88.22-10.89-133.94,10.41-45.66,34.14-83.65,68.81-114.69,44.25-39.62,96.23-61.45,155.64-64.53,19.67-1.02,38.69,4.1,57.41,9.58,40.17,11.74,75.88,31.52,106.05,60.72,36.59,35.41,57.55,78.85,63.82,129.13,6.91,55.5-4.07,107.55-33.81,155.05-33.76,53.92-83.35,85.56-144.78,99.06-16.98,3.73-34.53,4.86-51.83,7.18-.06-.48-.13-.95-.19-1.43ZM338.84,300.8c-.59,0-1.18,0-1.77,0,0-35.48.3-70.96-.23-106.43-.12-8.1-2.47-16.4-5.17-24.12-1.01-2.89-5.7-5.34-9.17-6.28-4-1.09-7.66,1.75-9.09,5.53-1.86,4.9-3.67,10.12-3.91,15.28-.84,18.13-1.09,36.29-1.41,54.44-.51,28.48-1.11,56.95-1.26,85.43-.16,28.8.05,57.61.38,86.42.11,9.86,7.24,16.64,16.39,16.59,8.5-.05,13.81-5.81,14.25-15.94.48-10.98.89-21.97.95-32.96.14-25.98.04-51.96.04-77.94ZM277.75,300.82c.71-29.83,1.66-61.13,2.08-92.43.14-10.45-.81-20.94-1.73-31.36-.52-5.92-6.28-10.41-12.64-10.79-5.76-.35-9.73,2.57-11.06,9.26-1.46,7.32-2.85,14.78-3.06,22.22-1.68,59.1-3.13,118.2-4.5,177.31-.31,13.48-.49,26.99.14,40.44.4,8.51,7.74,13.89,16.28,13.44,7.76-.41,12.62-5.5,13.02-14.2.62-13.81,1.27-27.62,1.4-41.44.23-23.65.06-47.31.06-72.44Z"/>
  <path class="cls-3" d="M338.84,300.8c0,25.98.09,51.96-.04,77.94-.06,10.99-.47,21.98-.95,32.96-.44,10.13-5.75,15.89-14.25,15.94-9.15.06-16.28-6.73-16.39-16.59-.33-28.8-.54-57.61-.38-86.42.15-28.48.76-56.96,1.26-85.43.32-18.15.56-36.31,1.41-54.44.24-5.16,2.05-10.38,3.91-15.28,1.43-3.78,5.09-6.62,9.09-5.53,3.47.95,8.16,3.4,9.17,6.28,2.7,7.73,5.05,16.02,5.17,24.12.53,35.47.23,70.95.23,106.43.59,0,1.18,0,1.77,0Z"/>
  <path class="cls-3" d="M277.75,300.82c0,25.13.16,48.79-.06,72.44-.13,13.82-.78,27.63-1.4,41.44-.39,8.71-5.25,13.8-13.02,14.2-8.54.45-15.88-4.93-16.28-13.44-.63-13.45-.45-26.97-.14-40.44,1.37-59.11,2.82-118.21,4.5-177.31.21-7.43,1.61-14.89,3.06-22.22,1.33-6.7,5.3-9.61,11.06-9.26,6.35.38,12.12,4.88,12.64,10.79.91,10.43,1.87,20.92,1.73,31.36-.43,31.3-1.37,62.6-2.08,92.43Z"/>
</svg>