<?xml version="1.0" encoding="UTF-8"?>
<svg id="Layer_1" data-name="Layer 1" xmlns="http://www.w3.org/2000/svg" viewBox="0 0 593.02 593.02">
  <defs>
    <style>
      .cls-1 {
        fill: #000;
      }

      .cls-1, .cls-2, .cls-3 {
        stroke-width: 0px;
      }

      .cls-2 {
        fill: #832eff;
      }

      .cls-3 {
        fill: #fff;
      }
    </style>
  </defs>
  <path class="cls-1" d="M551.8,295.33c-1.34,46.27-11.57,89.96-33.69,130.61-25.63,47.12-63.83,80.72-112.52,102.37-57.66,25.63-117.44,31.55-178.68,15.64-63.87-16.59-111.72-55.15-145.68-110.97-32.9-54.06-46.21-112.79-37.33-175.8,6.95-49.36,28.86-91.77,62.41-128.31,25.72-28.01,56.78-48.2,91.01-64.69,26.15-12.6,53.26-19.57,81.67-22.57,42.17-4.45,82.71,2.28,121.44,19.44,36.79,16.3,68.76,39.25,94.67,70.26,27.84,33.32,44.19,71.93,51.34,114.44,2.75,16.37,3.63,33.05,5.37,49.59ZM290,525.09c9.34-.49,15.67-.66,21.97-1.2,6.3-.53,12.61-1.18,18.85-2.21,53.31-8.82,100.02-30.96,136.01-71.82,48.91-55.53,66.31-120.96,55.2-193.7-7.13-46.67-27.92-86.88-61.93-119.96-31.27-30.4-68.37-50.63-110.16-62.32-17.8-4.98-35.88-9.62-54.58-8.48-68.59,4.19-126.43,31.68-172.66,82.38-37.81,41.47-56.89,90.77-56.47,147.09.25,33.94,7.43,66.56,22.17,97.16,41.25,85.61,109.44,130.04,201.61,133.05Z"/>
  <path class="cls-2" d="M290,525.09c-92.17-3.01-160.35-47.44-201.61-133.05-14.74-30.6-21.92-63.22-22.17-97.16-.42-56.33,18.66-105.62,56.47-147.09,46.23-50.7,104.07-78.19,172.66-82.38,18.69-1.14,36.78,3.5,54.58,8.48,41.8,11.69,78.9,31.91,110.16,62.32,34.01,33.08,54.8,73.29,61.93,119.96,11.11,72.74-6.29,138.17-55.2,193.7-35.99,40.86-82.7,63.01-136.01,71.82-6.24,1.03-12.55,1.68-18.85,2.21-6.3.54-12.63.71-21.97,1.2ZM242.97,405.17c-1.76-45.25-3.43-89.34-5.2-133.44-1.07-26.79-2.23-53.58-3.48-80.37-.28-6.03-3.42-8.92-8.66-8.76-4.76.15-6.54,2.6-6.61,9.13-.3,31.31-.71,62.63-.85,93.94-.19,41.32-.16,82.64-.24,123.96-.01,6.33-.15,12.66-.16,18.99-.02,9.73,10.64,19.58,21.39,11.32,3.82-2.93,8.05-5.34,12.12-7.93,59.76-37.94,116.01-81.21,177.24-116.94,9.01-5.25,10.08-16.96,2.62-24.43-1.76-1.76-3.79-3.25-5.76-4.78-22.12-17.15-44.18-34.37-66.39-51.4-37.14-28.49-74.39-56.85-111.58-85.29-5-3.82-10.39-5.49-16.28-2.48-5.94,3.04-9.08,8.15-9.61,14.8-.53,6.67,2.71,11.32,7.86,15.19,54.05,40.66,108.04,81.39,162.05,122.11,1.37,1.03,2.67,2.17,4.78,3.89-51.33,34.32-101.92,68.15-153.25,102.47Z"/>
  <path class="cls-3" d="M242.97,405.17c51.32-34.32,101.92-68.15,153.25-102.47-2.12-1.73-3.41-2.86-4.78-3.89-54.01-40.72-108-81.45-162.05-122.11-5.15-3.87-8.39-8.52-7.86-15.19.53-6.65,3.67-11.76,9.61-14.8,5.89-3.01,11.28-1.35,16.28,2.48,37.19,28.43,74.43,56.8,111.58,85.29,22.21,17.03,44.27,34.25,66.39,51.4,1.97,1.53,4.01,3.02,5.76,4.78,7.46,7.47,6.39,19.18-2.62,24.43-61.23,35.72-117.48,79-177.24,116.94-4.08,2.59-8.31,5-12.12,7.93-10.76,8.26-21.41-1.6-21.39-11.32.01-6.33.15-12.66.16-18.99.08-41.32.05-82.64.24-123.96.14-31.32.56-62.63.85-93.94.06-6.53,1.84-8.98,6.61-9.13,5.24-.16,8.38,2.73,8.66,8.76,1.25,26.79,2.41,53.58,3.48,80.37,1.77,44.09,3.44,88.19,5.2,133.44Z"/>
</svg>