<?xml version="1.0" encoding="UTF-8"?>
<svg id="Layer_1" data-name="Layer 1" xmlns="http://www.w3.org/2000/svg" viewBox="0 0 593.02 593.02">
  <defs>
    <style>
      .cls-1 {
        fill: #000;
      }

      .cls-1, .cls-2, .cls-3 {
        stroke-width: 0px;
      }

      .cls-2 {
        fill: #832eff;
      }

      .cls-3 {
        fill: #fff;
      }
    </style>
  </defs>
  <path class="cls-1" d="M549.01,296.1c.14,56.78-10.28,101.9-33.45,143.82-26.32,47.61-65.56,80.82-115.02,102.44-35.15,15.37-72.05,23.27-110.32,22.58-96.99-1.74-169.24-45.84-216.79-130-25.35-44.87-36.43-93.52-33.4-145.08,2.98-50.87,21.42-95.85,53.25-135.39,27.81-34.55,62.98-59.01,102.94-78.08,33.93-16.2,69.25-23.74,106.17-23.43,68.62.58,127.12,26.9,175.8,74.56,49.61,48.57,69.27,109.61,70.82,168.58ZM291.33,536.69c4.99,0,10.01.31,14.98-.05,57.92-4.11,109.23-24.35,150.58-65.63,46.91-46.85,67.87-104.73,66.48-170.6-1.08-51.16-17.52-97.13-50.76-136.37-33.11-39.08-75.48-63.86-124.46-77.62-18.28-5.14-36.84-9.71-56.05-8.54-48.63,2.96-92.78,18.92-132.24,47.41-39.13,28.25-68.05,64.57-83.81,110.49-17.59,51.26-14.76,102.3,3.83,152.71,33.85,91.77,114.96,148.68,211.46,148.2Z"/>
  <path class="cls-2" d="M291.75,538.4c-96.5.48-177.61-56.43-211.46-148.2-18.59-50.41-21.43-101.45-3.83-152.71,15.76-45.92,44.68-82.24,83.81-110.49,39.46-28.49,83.61-44.45,132.24-47.41,19.21-1.17,37.77,3.4,56.05,8.54,48.98,13.76,91.35,38.54,124.46,77.62,33.24,39.24,49.68,85.21,50.76,136.37,1.39,65.87-19.57,123.75-66.48,170.6-41.34,41.29-92.65,61.52-150.58,65.63-4.97.35-9.98.05-14.98.05ZM394.97,313.52c-.19,0-.38,0-.56.01-1.75-31.26-4.01-62.5-5.04-93.79-.52-15.86-7.88-19.79-19.51-21.68-2.62-.43-5.3-.73-7.94-.71-13.99.09-27.97.49-41.96.43-34.64-.16-69.29-.62-103.93-.71-6.1-.02-12.27.77-18.26,1.94-4.48.88-5.64,4.66-5.13,8.97.4,3.43,1.02,6.88.97,10.31-.21,17.65-.84,35.3-.89,52.95-.14,44.81-.05,89.62-.03,134.43,0,1.83,0,3.67.24,5.48.65,4.98,3.49,8.5,8.27,9.57,6.43,1.44,13.03,3.02,19.56,3.05,35.14.12,70.28-.09,105.41-.47,18.78-.2,37.55-.92,56.32-1.53,13.09-.43,14.7-1.99,14.47-14.86-.56-31.13-1.31-62.26-1.98-93.39Z"/>
  <path class="cls-3" d="M394.5,312.05c.67,31.13,1.42,62.26,1.98,93.39.23,12.86-1.38,14.43-14.47,14.86-18.77.61-37.55,1.33-56.32,1.53-35.14.38-70.28.59-105.41.47-6.53-.02-13.12-1.6-19.56-3.05-4.78-1.07-7.63-4.6-8.27-9.57-.23-1.81-.24-3.65-.24-5.48-.01-44.81-.1-89.62.03-134.43.05-17.65.68-35.3.89-52.95.04-3.43-.57-6.88-.97-10.31-.51-4.3.65-8.09,5.13-8.97,5.99-1.17,12.17-1.96,18.26-1.94,34.64.09,69.29.54,103.93.71,13.98.07,27.97-.34,41.96-.43,2.65-.02,5.32.29,7.94.71,11.63,1.89,18.99,5.82,19.51,21.68,1.03,31.28,3.29,62.53,5.04,93.79.19,0,.38,0,.56-.01ZM213.6,214.38c1.22,63.71,2.41,126.39,3.61,189.28,52.81-1.52,105.28-3.03,157.22-4.53-3.72-59.86-7.39-118.82-11.12-178.76-49.79-1.99-99.63-3.98-149.72-5.98Z"/>
  <path class="cls-2" d="M213.85,214.33c50.09,2,99.93,3.99,149.72,5.98,3.73,59.94,7.4,118.9,11.12,178.76-51.94,1.5-104.41,3.01-157.22,4.53-1.2-62.88-2.4-125.57-3.61-189.28Z"/>
</svg>