<svg width="980" height="522" viewBox="-30 -20 1020 562" fill="none" xmlns="http://www.w3.org/2000/svg">
  <path
    d="M482.587 8.32764L473.304 8.18735C347.121 6.28055 220.954 7.07251 95.0001 13.0923L94.9995 13.0923C59.963 14.7729 36.2612 23.5161 20.4513 41.454L20.4507 41.4546C7.90127 55.6996 3.46976 70.2978 3.50016 84.9043C3.53019 99.3323 7.92034 113.635 12.652 127.318L12.6527 127.32C26.7458 167.996 30.1261 209.057 27.9388 250.254L27.9388 250.256C24.8138 309.641 22.976 369.017 21.8734 428.406L21.8734 428.407C21.6803 439.053 23.7734 449.314 29.6124 458.871C35.4373 468.404 44.8269 476.97 58.7885 484.523L59.3479 484.825L59.9781 484.912C67.3473 485.922 72.4673 488.096 75.7322 491.171L76.3181 491.722L77.0863 491.963C77.8109 492.19 78.5333 492.41 79.2404 492.625L79.248 492.627C79.9619 492.844 80.6604 493.057 81.3566 493.275L81.9798 493.47L82.6314 493.427C85.0695 493.267 86.6561 493.472 87.5845 493.816C88.3526 494.101 88.4345 494.364 88.4893 494.561L89.019 496.465L90.923 496.995C91.6551 497.199 92.3953 497.395 93.1118 497.585L93.1219 497.588C93.8487 497.781 94.5513 497.967 95.2392 498.158L95.8763 498.336L96.5342 498.268C98.9922 498.016 100.495 498.259 101.386 498.614C102.171 498.926 102.607 499.369 102.921 499.994L103.669 501.486L105.3 501.844L113.427 503.626L113.816 503.712L114.213 503.707C123.419 503.612 131.145 505.079 137.168 508.458L137.744 508.781L138.398 508.873C143.91 509.64 149.473 510.409 155.039 511.153L155.547 511.22L156.052 511.14C159.114 510.653 161.669 510.506 163.7 510.815C165.661 511.114 166.912 511.798 167.755 512.836L168.719 514.023L170.245 514.122C253.784 519.534 337.211 516.358 420.299 513.195C422.551 513.11 424.802 513.024 427.053 512.938L427.053 512.938C527.785 509.102 628.177 506.585 728.574 513.848C733.759 514.223 738.967 514.622 744.193 515.023C770.865 517.067 797.986 519.145 824.674 518.311L824.676 518.311C861.929 517.119 893.093 512.739 915.693 502.73C938.519 492.621 952.858 476.62 955.601 452.506C956.497 444.617 957.327 436.752 958.156 428.9C959.972 411.696 961.781 394.557 964.265 377.384L964.266 377.383C978.072 281.737 982.241 185.747 965.951 89.7696C963.556 75.6303 957.78 62.0623 946.101 50.3533C934.459 38.6819 917.175 29.0815 892.134 22.4386C848.403 10.8376 802.599 3.65806 752.852 3.50852L752.842 7.00849L752.852 3.50849C709.793 3.38291 666.846 4.672 623.966 5.95905C620.294 6.06925 616.624 6.17942 612.953 6.2887C569.497 7.58253 526.094 8.7501 482.587 8.32764Z"
    fill="#95FFFD" stroke="black" stroke-width="10" />
</svg>