<svg width="242" height="246" viewBox="0 0 242 246" fill="none" xmlns="http://www.w3.org/2000/svg">
<path d="M120.529 0.104132C137.988 1.43239 159.082 4.54273 178.92 13.3424C200.091 22.7399 216.526 37.3839 226.439 58.6581C234.304 75.5492 239.217 93.3699 241.398 111.91C243.414 129.045 240.098 145.504 235.461 161.919C232.057 173.984 227.706 185.518 221.108 196.177C211.106 212.338 198.274 225.498 180.947 233.678C150.149 248.223 118.117 248.267 85.4023 242.146C72.1511 239.666 62.3587 231.387 51.3877 224.712C32.3426 213.123 22.6493 194.495 12.5264 175.999C6.14867 164.354 1.5554 152.223 0.354751 138.708C-0.746758 126.344 0.784347 114.445 4.01177 102.701C7.9772 88.234 12.5705 73.9774 18.8821 60.2853C25.8657 45.1431 35.8344 32.7461 49.7244 23.5036C58.5144 17.6593 67.3375 11.8813 77.0968 7.76375C89.7091 2.43965 102.773 -0.648548 120.518 0.1152L120.529 0.104132Z" fill="black"/>
<path d="M121.457 239.786C135.289 240.242 147.782 238.186 160.163 235.096C181.25 229.827 198.006 218.101 210.986 200.773C220.754 187.747 225.87 172.742 230.666 157.303C241.375 122.814 234.985 90.2805 220.156 59.0812C208.095 33.6949 185.824 20.0459 159.444 12.7768C146.829 9.29783 133.85 7.89736 120.87 6.35239C112.021 5.29648 103.682 6.8081 95.1873 8.31972C82.263 10.6205 71.3433 17.3894 60.1577 23.7249C39.0047 35.7067 26.324 54.1907 18.5605 76.6982C15.2602 86.2792 12.4583 96.0047 9.65637 105.741C5.73588 119.346 4.84989 132.884 7.5743 146.744C10.3652 160.926 17.5195 173.253 24.6185 185.435C32.4816 198.928 40.821 212.221 55.4509 219.857C62.5831 223.581 67.7661 230.794 75.7067 232.917C90.99 237.007 106.384 240.92 121.446 239.808L121.457 239.786Z" fill="black"/>
<path d="M53.2922 124.896C53.2922 124.32 51.6922 124.032 48.4922 124.032C46.5402 124.032 45.2922 124.08 44.7482 124.176C44.2362 124.272 43.9802 124.56 43.9802 125.04C43.9802 125.296 44.0602 125.744 44.2202 126.384C44.6042 128.048 44.9562 129.088 45.2762 129.504C45.6282 129.92 46.3002 130.128 47.2922 130.128C48.1882 130.128 49.4042 129.456 50.9402 128.112C52.5082 126.768 53.2922 125.696 53.2922 124.896ZM43.6922 114.432C44.0442 113.792 44.2202 113.36 44.2202 113.136C44.2202 112.848 43.9002 112.704 43.2602 112.704C42.9082 112.704 42.6042 112.88 42.3482 113.232C42.0922 113.552 41.9642 113.952 41.9642 114.432C41.9642 115.584 42.1082 116.16 42.3962 116.16C42.6202 116.16 43.0522 115.584 43.6922 114.432ZM37.8842 105.6C39.8682 104.704 41.6762 104.256 43.3082 104.256C45.8682 104.256 48.1242 105.328 50.0762 107.472C51.6442 109.168 52.4282 111.024 52.4282 113.04C52.4282 114.288 52.5722 115.12 52.8602 115.536C53.1802 115.92 53.9162 116.224 55.0682 116.448C56.4762 116.768 57.8362 117.808 59.1482 119.568C60.4922 121.296 61.1642 122.928 61.1642 124.464C61.1642 125.68 60.5242 127.568 59.2442 130.128C57.9962 132.56 56.2362 134.448 53.9642 135.792C51.7242 137.136 49.1802 137.808 46.3322 137.808C45.6922 137.808 45.1962 137.792 44.8442 137.76C41.7082 137.536 39.6122 136.864 38.5562 135.744C37.5002 134.624 36.8122 132.384 36.4922 129.024C36.2362 125.856 35.4682 121.872 34.1882 117.072C33.4842 114.256 33.1322 112.24 33.1322 111.024C33.1322 109.744 33.4682 108.736 34.1402 108C34.8442 107.232 36.0922 106.432 37.8842 105.6ZM69.8214 101.664C71.7414 100.352 73.0854 99.696 73.8534 99.696C74.3974 99.696 75.1814 99.968 76.2054 100.512C76.7814 100.864 77.1814 101.296 77.4054 101.808C77.6294 102.288 77.7414 103.088 77.7414 104.208C77.7414 104.976 77.7254 105.6 77.6934 106.08C77.6294 107.296 77.5974 108.32 77.5974 109.152C77.5974 113.536 77.8694 118.368 78.4134 123.648C78.9894 128.928 79.5814 132.016 80.1894 132.912C80.7654 133.776 81.0534 134.576 81.0534 135.312C81.0534 136.88 79.6454 138.016 76.8294 138.72C75.5174 139.072 74.5574 139.248 73.9494 139.248C73.0214 139.248 72.0774 138.928 71.1174 138.288C69.7094 137.328 69.0054 136.096 69.0054 134.592C69.0054 133.664 69.2934 132.672 69.8694 131.616C70.1894 131.008 70.3494 129.6 70.3494 127.392C70.3494 123.936 70.0454 119.984 69.4374 115.536C68.8294 111.056 68.2054 108.496 67.5654 107.856C66.8614 107.152 66.5094 106.448 66.5094 105.744C66.5094 104.528 67.6134 103.168 69.8214 101.664ZM94.4462 105.552C100.078 105.264 103.678 105.12 105.246 105.12C107.966 105.12 109.79 105.328 110.718 105.744C111.678 106.16 112.158 106.928 112.158 108.048C112.158 108.464 112.11 108.96 112.014 109.536C111.886 110.464 111.406 111.168 110.574 111.648C109.742 112.128 107.998 112.736 105.342 113.472C104.862 113.6 104.622 115.024 104.622 117.744C104.622 119.76 104.686 122.128 104.814 124.848C104.942 128.304 105.006 130.448 105.006 131.28C105.006 134.352 104.734 136.368 104.19 137.328C103.646 138.256 102.59 138.72 101.022 138.72C100.478 138.72 99.9342 138.608 99.3902 138.384C98.8462 138.16 98.4622 137.888 98.2382 137.568C97.8222 136.928 97.2942 132.864 96.6542 125.376L95.7422 114.288L92.6702 114C90.9102 113.84 89.4222 113.312 88.2062 112.416C87.0222 111.52 86.4302 110.512 86.4302 109.392C86.4302 108.144 87.0062 107.232 88.1582 106.656C89.3422 106.08 91.4382 105.712 94.4462 105.552ZM128.308 105.312C129.908 104.576 131.492 104.208 133.06 104.208C134.468 104.208 135.588 104.544 136.42 105.216C137.252 105.856 137.668 106.768 137.668 107.952C137.668 109.2 137.284 110.16 136.516 110.832C135.78 111.472 134.5 112 132.676 112.416C128.228 113.376 125.796 116.656 125.38 122.256C125.348 122.672 125.332 123.248 125.332 123.984C125.332 126.288 125.748 127.984 126.58 129.072C127.444 130.16 128.788 130.704 130.612 130.704C132.66 130.704 133.684 130.288 133.684 129.456C133.684 129.04 133.38 128.576 132.772 128.064C131.844 127.328 131.38 126.384 131.38 125.232C131.38 124.048 131.876 122.928 132.868 121.872C133.892 120.784 135.22 120.032 136.852 119.616C137.236 119.52 137.636 119.472 138.052 119.472C139.46 119.472 140.692 120.096 141.748 121.344C142.804 122.56 143.54 124.288 143.956 126.528C144.212 127.968 144.34 129.104 144.34 129.936C144.34 131.408 143.956 132.608 143.188 133.536C142.42 134.432 141.012 135.44 138.964 136.56C135.988 138.16 133.092 138.96 130.276 138.96C126.692 138.96 123.716 137.696 121.348 135.168C118.98 132.64 117.652 129.2 117.364 124.848C117.332 124.4 117.316 123.728 117.316 122.832C117.316 114.352 120.98 108.512 128.308 105.312ZM154.418 106.656C156.658 105.632 158.738 105.12 160.658 105.12C162.546 105.12 163.842 105.664 164.546 106.752C164.834 107.232 164.978 107.744 164.978 108.288C164.978 109.888 163.97 111.216 161.954 112.272C160.962 112.816 160.466 113.808 160.466 115.248C160.466 115.696 160.482 116.064 160.514 116.352C160.642 118.496 161.106 119.568 161.906 119.568C162.386 119.568 163.122 119.248 164.114 118.608C164.626 118.256 165.362 118.08 166.322 118.08C166.738 118.08 167.026 118.112 167.186 118.176C168.658 118.784 169.394 119.92 169.394 121.584C169.394 122.608 169.09 123.6 168.482 124.56C167.874 125.52 167.026 126.224 165.938 126.672C164.274 127.344 163.442 128.128 163.442 129.024C163.442 129.792 164.13 130.512 165.506 131.184C166.306 131.536 167.01 131.712 167.618 131.712C168.322 131.712 169.218 131.488 170.306 131.04C171.202 130.688 171.954 130.512 172.562 130.512C174.29 130.512 175.346 131.84 175.73 134.496C175.73 134.528 175.73 134.592 175.73 134.688C175.762 134.784 175.778 134.848 175.778 134.88C175.778 136.256 174.93 137.36 173.234 138.192C171.57 139.024 169.586 139.44 167.282 139.44C164.274 139.44 161.826 138.752 159.938 137.376C158.338 136.192 157.01 134.432 155.954 132.096C154.93 129.728 154.05 126.464 153.314 122.304C152.962 120.32 152.514 118.464 151.97 116.736C151.426 115.008 150.962 113.92 150.578 113.472C149.938 112.8 149.618 112.08 149.618 111.312C149.618 109.648 151.218 108.096 154.418 106.656ZM189.134 105.552C194.766 105.264 198.366 105.12 199.934 105.12C202.654 105.12 204.478 105.328 205.406 105.744C206.366 106.16 206.846 106.928 206.846 108.048C206.846 108.464 206.798 108.96 206.702 109.536C206.574 110.464 206.094 111.168 205.262 111.648C204.43 112.128 202.686 112.736 200.03 113.472C199.55 113.6 199.31 115.024 199.31 117.744C199.31 119.76 199.374 122.128 199.502 124.848C199.63 128.304 199.694 130.448 199.694 131.28C199.694 134.352 199.422 136.368 198.878 137.328C198.334 138.256 197.278 138.72 195.71 138.72C195.166 138.72 194.622 138.608 194.078 138.384C193.534 138.16 193.15 137.888 192.926 137.568C192.51 136.928 191.982 132.864 191.342 125.376L190.43 114.288L187.358 114C185.598 113.84 184.11 113.312 182.894 112.416C181.71 111.52 181.118 110.512 181.118 109.392C181.118 108.144 181.694 107.232 182.846 106.656C184.03 106.08 186.126 105.712 189.134 105.552Z" fill="#F5F5F5"/>
</svg>
