<svg width="242" height="246" viewBox="0 0 242 246" fill="none" xmlns="http://www.w3.org/2000/svg">
<path d="M120.529 0.104132C137.988 1.43239 159.082 4.54273 178.92 13.3424C200.091 22.7399 216.526 37.3839 226.439 58.6581C234.304 75.5492 239.217 93.3699 241.398 111.91C243.414 129.045 240.098 145.504 235.461 161.919C232.057 173.984 227.706 185.518 221.108 196.177C211.106 212.338 198.274 225.498 180.947 233.678C150.149 248.223 118.117 248.267 85.4023 242.146C72.1511 239.666 62.3587 231.387 51.3877 224.712C32.3426 213.123 22.6493 194.495 12.5264 175.999C6.14867 164.354 1.5554 152.223 0.354751 138.708C-0.746758 126.344 0.784347 114.445 4.01177 102.701C7.9772 88.234 12.5705 73.9774 18.8821 60.2853C25.8657 45.1431 35.8344 32.7461 49.7244 23.5036C58.5144 17.6593 67.3375 11.8813 77.0968 7.76375C89.7091 2.43965 102.773 -0.648548 120.518 0.1152L120.529 0.104132Z" fill="black"/>
<path d="M121.457 239.786C135.289 240.242 147.782 238.186 160.163 235.096C181.25 229.827 198.006 218.101 210.986 200.773C220.754 187.747 225.87 172.742 230.666 157.303C241.375 122.814 234.985 90.2805 220.156 59.0812C208.095 33.6949 185.824 20.0459 159.444 12.7768C146.829 9.29783 133.85 7.89736 120.87 6.35239C112.021 5.29648 103.682 6.8081 95.1873 8.31972C82.263 10.6205 71.3433 17.3894 60.1577 23.7249C39.0047 35.7067 26.324 54.1907 18.5605 76.6982C15.2602 86.2792 12.4583 96.0047 9.65637 105.741C5.73588 119.346 4.84989 132.884 7.5743 146.744C10.3652 160.926 17.5195 173.253 24.6185 185.435C32.4816 198.928 40.821 212.221 55.4509 219.857C62.5831 223.581 67.7661 230.794 75.7067 232.917C90.99 237.007 106.384 240.92 121.446 239.808L121.457 239.786Z" fill="#1C2729"/>
<path d="M220.166 59.0812C208.105 33.6949 185.832 20.0459 159.451 12.7768C146.836 9.29782 133.856 7.89736 120.875 6.35239C112.026 5.29648 103.686 6.8081 95.1916 8.31972C82.2667 10.6205 71.3464 17.3894 60.1603 23.7249C39.0063 35.7067 26.325 54.1907 18.5611 76.6982C15.2607 86.2792 12.4586 96.0047 9.65655 105.741C5.73587 119.346 4.84983 132.884 7.57437 146.744C10.3654 160.926 17.5201 173.253 24.6194 185.435C32.4829 198.928 40.8227 212.221 55.4532 219.857C62.5858 223.581 67.769 230.794 75.7101 232.917C90.9941 237.007 106.389 240.92 121.451 239.808C135.284 240.264 147.778 238.208 160.16 235.118C181.247 229.85 198.004 218.123 210.985 200.795C220.753 187.769 225.87 172.764 230.666 157.325C241.375 122.836 234.985 90.3028 220.155 59.0923L220.166 59.0812Z" fill="#95FFFD"/>
<g clip-path="url(#clip0_583_2)">
<path d="M157.792 138.777C155.433 140.727 153.071 142.674 150.71 144.621C149.564 145.566 148.417 146.511 147.272 147.456C147.271 147.456 147.27 147.457 147.269 147.458L147.234 147.486L147.234 147.486L147.228 147.491C138.613 154.598 129.703 161.953 120.834 169.307C118.014 171.643 114.7 174.456 111.555 177.579C110.059 179.062 109.399 180.958 109.11 182.262C108.536 184.841 108.946 187.173 110.352 188.95L110.352 188.95C112.23 191.323 114.961 192.251 117.29 192.831L117.291 192.831C117.474 192.877 117.661 192.915 117.851 192.945L117.753 193.043H118.958C121.196 193.043 122.91 192.002 123.888 191.408L123.926 191.385L123.926 191.385L123.936 191.379L124.021 191.324C125.505 190.424 127.055 189.524 128.585 188.637L128.586 188.637L128.636 188.608C132.449 186.392 136.42 184.085 140.141 181.283L140.141 181.283C148.647 174.872 157.145 168.199 165.366 161.744L165.814 161.392L165.823 161.385L165.831 161.378L165.88 161.336C166.355 160.963 166.832 160.589 167.31 160.213C170.846 157.437 174.465 154.596 178.039 151.813C181.674 148.985 183.378 144.981 182.988 140.284C182.915 139.402 182.827 138.526 182.769 138.036V137.994C182.797 134.763 182.345 132.201 181.19 129.985C180.034 127.769 178.2 125.949 175.555 124.159C172.929 122.382 170.244 120.702 167.643 119.075C167.518 118.997 167.393 118.919 167.269 118.842L167.268 118.841C165.179 117.542 163.023 116.198 160.957 114.838L160.956 114.837C158.003 112.9 155.008 110.889 152.1 108.933C147.548 105.869 142.842 102.701 138.094 99.6899C134.55 97.4354 130.813 95.8126 127.23 94.2567L127.212 94.2486L127.207 94.2467L126.917 94.1172L126.917 94.1171L126.913 94.1152C126.053 93.7417 125.133 93.5562 124.175 93.5562C122.464 93.5562 121.093 94.1644 120.24 94.5431L120.239 94.5433C120.239 94.5434 120.239 94.5435 120.239 94.5436C120.186 94.5669 120.138 94.5884 120.094 94.6082C120.018 94.6424 119.954 94.6711 119.897 94.6937C118.394 95.1716 117.115 96.2436 116.385 97.6555L116.384 97.6566C115.652 99.0806 115.509 100.772 116.01 102.305L116.011 102.307C116.231 102.971 116.417 103.774 116.623 104.665C116.63 104.696 116.637 104.728 116.645 104.76L116.645 104.761L116.656 104.807C117.257 107.391 118.035 110.736 120.376 113.4L120.376 113.4C124.03 117.55 128.662 120.664 132.667 123.236L132.667 123.236C139.781 127.799 147.082 132.251 154.159 136.566L154.624 136.849C155.25 137.231 155.879 137.613 156.507 137.995L156.508 137.996L156.509 137.997C156.937 138.257 157.365 138.517 157.792 138.777Z" fill="white" stroke="black"/>
<path d="M117.831 195.431C117.446 195.385 117.065 195.315 116.692 195.222L116.691 195.222C114.121 194.575 110.771 193.449 108.42 190.488L108.42 190.487C106.534 188.107 105.963 185.063 106.702 181.728L106.702 181.728C107.066 180.092 107.899 177.729 109.819 175.828C109.819 175.828 109.819 175.828 109.82 175.828L110.171 176.183L117.831 195.431ZM117.831 195.431L117.746 195.516H118.95C121.893 195.516 124.065 194.189 125.187 193.502L125.266 193.458L125.276 193.453L125.285 193.448C126.738 192.571 128.258 191.686 129.814 190.782L129.86 190.755C133.74 188.506 137.778 186.165 141.616 183.271C150.301 176.727 158.961 169.929 167.387 163.306L167.387 163.306C171.367 160.176 175.485 156.939 179.545 153.785L179.546 153.785C183.802 150.473 185.901 145.599 185.437 140.102L185.436 140.101C185.364 139.272 185.283 138.445 185.226 137.877C185.235 134.29 184.665 131.361 183.325 128.817C181.982 126.266 179.888 124.145 176.923 122.138L176.643 122.552L176.923 122.138C174.203 120.297 171.437 118.567 168.732 116.876L168.563 116.771L117.831 195.431ZM127.883 91.8658L127.883 91.8658L128.174 91.9954L128.178 91.9973L128.197 92.0053C131.87 93.6026 135.697 95.2665 139.404 97.6192C143.802 100.409 148.157 103.331 152.387 106.17C152.748 106.412 153.108 106.654 153.467 106.895L153.468 106.895C156.359 108.843 159.354 110.854 162.3 112.792C164.145 114.004 166.05 115.197 167.919 116.368C168.134 116.502 168.349 116.637 168.563 116.771L127.883 91.8658ZM127.883 91.8658L127.878 91.8633M127.883 91.8658L127.878 91.8633M127.878 91.8633C126.71 91.3598 125.463 91.0994 124.167 91.0994C121.96 91.0994 120.249 91.8496 119.266 92.2807L119.244 92.2904L119.241 92.2918L119.034 92.3806M127.878 91.8633L119.034 92.3806M124.327 97.013H124.175C123.214 97.013 122.379 97.3772 121.635 97.7092L121.626 97.713L121.618 97.7166L121.549 97.7441C121.446 97.7921 121.332 97.8397 121.242 97.877C121.205 97.8924 121.172 97.9061 121.146 97.9173L121.127 97.9255L121.107 97.9322L120.959 97.9814L120.949 97.985L120.949 97.9849C120.307 98.1834 119.759 98.6441 119.452 99.24L119.451 99.242C119.138 99.8423 119.081 100.566 119.287 101.224C119.565 102.071 119.782 103.003 120.002 103.968C120.581 106.448 121.208 109.111 122.961 111.105L122.961 111.105C126.301 114.9 130.652 117.834 134.518 120.316C141.751 124.954 149.198 129.495 156.405 133.883L156.406 133.884L163.129 137.984L163.728 138.349L163.187 138.796L149.347 150.218C149.347 150.218 149.347 150.218 149.347 150.218C148.232 151.139 147.111 152.063 145.986 152.992C138.45 159.212 130.723 165.59 123.028 171.967C120.255 174.265 117.026 177.015 113.979 180.031C113.104 180.902 112.674 182.116 112.478 183.012L112.477 183.013C112.113 184.653 112.34 185.896 113.052 186.793L113.052 186.793C114.249 188.301 116.127 188.961 118.119 189.461C118.394 189.526 118.681 189.562 118.966 189.562C120.222 189.562 121.271 188.937 122.133 188.413L122.219 188.358L122.227 188.353L122.227 188.353C123.715 187.446 125.275 186.54 126.798 185.661L124.327 97.013ZM124.327 97.013L124.347 96.9995C124.774 97.0167 125.18 97.1088 125.562 97.2747C125.563 97.275 125.563 97.2753 125.564 97.2756L125.855 97.4052L125.855 97.4052L125.858 97.4068L126.033 97.4831C129.489 98.99 133.016 100.528 136.272 102.596C140.912 105.552 145.538 108.66 150.019 111.671L150.199 111.792C153.099 113.748 156.106 115.762 159.081 117.719L159.081 117.719C161.086 119.037 163.134 120.318 165.152 121.579C165.266 121.65 165.38 121.722 165.494 121.793L165.495 121.793L165.689 121.914C168.316 123.554 171.023 125.243 173.635 127.017L173.635 127.017C175.861 128.526 177.277 129.924 178.142 131.585C179.008 133.246 179.353 135.226 179.328 137.954L179.328 137.973L179.329 137.992L179.354 138.362L179.354 138.362L179.355 138.372C179.373 138.579 179.398 138.834 179.426 139.123C179.466 139.544 179.514 140.038 179.559 140.564C179.857 144.125 178.637 146.965 175.935 149.068C172.868 151.451 169.774 153.881 166.702 156.293C165.695 157.084 164.69 157.873 163.69 158.658L163.69 158.658L162.722 159.418C154.67 165.739 146.376 172.251 138.074 178.504C134.533 181.167 130.691 183.398 126.882 185.612L126.799 185.66L124.327 97.013ZM113.659 103.076C112.955 100.919 113.155 98.5292 114.199 96.5212L113.659 103.076ZM113.659 103.076C113.834 103.624 114.003 104.34 114.191 105.133C114.207 105.198 114.222 105.263 114.238 105.329C114.238 105.329 114.238 105.33 114.238 105.33L113.659 103.076ZM119.034 92.3806C116.962 93.074 115.205 94.5797 114.199 96.5206L119.034 92.3806Z" fill="black" stroke="black"/>
<path d="M116.948 152.452H116.829C115.871 152.452 114.951 152.266 114.091 151.893L114.087 151.891L113.797 151.761L113.792 151.759L113.774 151.751C110.191 150.195 106.454 148.573 102.91 146.318C102.91 146.318 102.91 146.318 102.909 146.318L103.178 145.896C98.4363 142.889 93.7357 139.725 89.1826 136.66L116.948 152.452ZM116.948 152.452L116.966 152.443M116.948 152.452L116.966 152.443M116.966 152.443C118.621 152.415 119.947 151.826 120.78 151.457L120.781 151.456C120.781 151.456 120.782 151.456 120.782 151.456C120.835 151.433 120.882 151.411 120.926 151.392C121.002 151.357 121.066 151.329 121.123 151.306C122.626 150.828 123.905 149.756 124.635 148.344L124.636 148.343C125.368 146.919 125.511 145.228 125.011 143.695L125.01 143.692C124.789 143.029 124.604 142.226 124.398 141.335L124.375 141.239L124.375 141.239L124.364 141.192C123.763 138.609 122.985 135.264 120.644 132.6L120.644 132.599C116.99 128.45 112.358 125.336 108.353 122.764L108.353 122.764C101.239 118.201 93.9379 113.749 86.8608 109.434L86.3965 109.151C85.7711 108.769 85.1438 108.388 84.5167 108.007L84.5124 108.004L84.5092 108.002C84.0819 107.742 83.6548 107.483 83.2284 107.223C85.4328 105.4 87.6397 103.579 89.8479 101.757C91.1595 100.675 92.4716 99.5925 93.7839 98.5089C102.399 91.4014 111.301 84.0553 120.178 76.6927C122.998 74.357 126.312 71.5434 129.457 68.421C129.457 68.421 129.457 68.4211 129.457 68.4212L116.966 152.443ZM75.1322 84.6672L75.1323 84.6673L75.1937 84.621C75.5095 84.3731 75.8257 84.1248 76.1423 83.8762C84.2056 77.5443 92.5224 71.0135 100.863 64.7333C104.584 61.9311 108.554 59.6239 112.368 57.4085L112.404 57.3871L112.416 57.3795L112.429 57.3704L112.443 57.3622C113.947 56.4931 115.498 55.584 116.983 54.6837L117.068 54.6293L117.077 54.6232L117.077 54.6233L117.116 54.6C118.094 54.0058 119.808 52.9648 122.046 52.9648C122.619 52.9648 123.183 53.0356 123.721 53.1684L123.722 53.1687C126.051 53.7486 128.782 54.6764 130.66 57.0493L130.268 57.3596L130.66 57.0494C132.066 58.8268 132.476 61.1587 131.902 63.7377L75.1322 84.6672ZM75.1322 84.6672L75.1238 84.6738M75.1322 84.6672L75.1238 84.6738M75.1238 84.6738C71.1443 87.8041 67.0258 91.0328 62.9648 94.1956M75.1238 84.6738L62.9648 94.1956M62.9648 94.1956C59.3297 97.0231 57.6258 101.027 58.0158 105.724L62.9648 94.1956Z" fill="white" stroke="black"/>
<path d="M116.829 154.917H116.947L116.965 154.908C119.132 154.882 120.809 154.139 121.78 153.708L121.781 153.707L121.782 153.707L121.838 153.682C121.873 153.67 121.904 153.656 121.925 153.647C121.939 153.641 121.949 153.637 121.956 153.633C121.96 153.632 121.964 153.63 121.967 153.629C124.047 152.936 125.814 151.439 126.822 149.486L126.822 149.486C127.857 147.479 128.057 145.09 127.353 142.934C127.178 142.385 127.009 141.669 126.821 140.875C126.805 140.811 126.79 140.746 126.775 140.681C126.774 140.68 126.774 140.679 126.774 140.678L126.769 140.655C126.141 137.946 125.249 134.101 122.494 130.973C118.636 126.577 113.841 123.348 109.688 120.685L109.418 121.106L109.688 120.685C102.557 116.114 95.2377 111.653 88.1433 107.329L87.6819 107.047L87.6815 107.047L87.4716 106.92L95.4541 100.333L95.4542 100.333C96.3678 99.5794 97.2847 98.8227 98.2046 98.0635C105.926 91.6917 113.855 85.1487 121.751 78.5991L121.751 78.5989C124.603 76.2302 127.966 73.3677 131.184 70.1802C133.105 68.2792 133.938 65.916 134.301 64.2801L134.301 64.2799C135.041 60.9457 134.469 57.9013 132.584 55.5211L132.583 55.5207C130.232 52.5588 126.883 51.433 124.313 50.7864L124.311 50.7859C123.576 50.6037 122.807 50.5083 122.037 50.5083C119.114 50.5083 116.947 51.8258 115.815 52.5141L115.793 52.5273L115.791 52.5284L115.711 52.5766C114.24 53.4621 112.704 54.3644 111.182 55.2424L111.182 55.2429L111.136 55.2696C107.255 57.5188 103.217 59.8598 99.3798 62.7536C90.9713 69.0853 82.5942 75.6641 74.4319 82.0741C74.1794 82.2724 73.9271 82.4706 73.675 82.6685C73.6748 82.6687 73.6747 82.6688 73.6745 82.6689L73.602 82.7255L73.601 82.7263C72.9712 83.2204 72.338 83.7173 71.7021 84.2163C68.3191 86.8712 64.8612 89.5848 61.4498 92.2402C57.1935 95.5515 55.0947 100.426 55.559 105.922L55.5591 105.924C55.6319 106.752 55.7126 107.587 55.7701 108.148C55.7605 111.736 56.3325 114.664 57.6734 117.208C59.0178 119.759 61.112 121.88 64.0723 123.886L64.0729 123.887C66.8412 125.758 69.6574 127.521 72.4327 129.254L72.4333 129.254C74.5047 130.544 76.6374 131.881 78.6954 133.233C81.6741 135.195 84.7843 137.281 87.5272 139.129L87.5281 139.13L88.1323 139.535C92.5122 142.473 97.0287 145.503 101.591 148.405L101.591 148.406C105.298 150.758 109.125 152.422 112.799 154.019L112.822 154.029L112.828 154.032L113.118 154.153C113.119 154.154 113.12 154.154 113.121 154.154C114.288 154.657 115.533 154.917 116.829 154.917ZM118.87 57.5789C119.651 57.1047 120.583 56.5485 121.683 56.4466H122.029C122.314 56.4466 122.602 56.4824 122.877 56.5474C124.869 57.0473 126.747 57.7072 127.943 59.2154L127.943 59.2156C128.656 60.1125 128.882 61.3555 128.518 62.9951L128.518 62.9967C128.322 63.8923 127.892 65.1058 127.017 65.9774C123.97 68.9934 120.741 71.743 117.968 74.0413L117.967 74.0414C110.274 80.4232 102.555 86.7925 95.0223 93.0087C93.9043 93.9313 92.7904 94.8505 91.6812 95.7659C91.6812 95.7659 91.6812 95.7659 91.6812 95.7659L77.8088 107.212L77.2673 107.659L77.8665 108.024L84.598 112.133L84.5985 112.133L84.7447 112.222C91.9066 116.583 99.3017 121.085 106.478 125.693L106.748 125.272L106.478 125.693C110.344 128.175 114.695 131.108 118.034 134.904L118.41 134.573L118.034 134.904C119.788 136.897 120.415 139.56 120.993 142.04C121.213 143.005 121.431 143.938 121.709 144.784C121.915 145.442 121.858 146.166 121.545 146.766L121.544 146.768C121.237 147.364 120.688 147.825 120.047 148.023L120.037 148.026L120.028 148.03L119.897 148.076C119.896 148.077 119.894 148.077 119.893 148.078C119.744 148.128 119.57 148.202 119.357 148.301C118.614 148.632 117.78 148.995 116.821 148.995C116.339 148.995 115.884 148.902 115.458 148.717C115.457 148.717 115.457 148.717 115.456 148.716L115.166 148.587L115.162 148.585L114.987 148.509C111.531 147.002 108.004 145.464 104.748 143.395C100.098 140.439 95.4704 137.329 90.9871 134.317L90.8125 134.2C90.4987 133.989 90.1801 133.775 89.8574 133.558C87.351 131.873 84.596 130.021 81.9308 128.272C79.9913 126.997 78.004 125.757 76.0374 124.53C75.8557 124.417 75.6741 124.304 75.4928 124.191L75.4918 124.19C72.8062 122.522 70.0457 120.793 67.3686 118.983C65.1429 117.474 63.7271 116.076 62.8615 114.416C61.9956 112.754 61.6512 110.774 61.6754 108.046L61.6756 108.027L61.6743 108.008L61.6498 107.638L61.6499 107.638L61.649 107.628C61.6309 107.421 61.6062 107.166 61.5781 106.877C61.5373 106.456 61.4894 105.962 61.4444 105.436C61.1468 101.875 62.3668 99.0345 65.0693 96.9324L65.0695 96.9322C69.1322 93.7681 73.2603 90.5301 77.2405 87.3993L77.2444 87.3962L77.3631 87.3008L77.3672 87.2976L77.6325 87.0892C85.8859 80.6057 94.4041 73.9141 102.93 67.4963L102.93 67.496C106.476 64.8212 110.324 62.5866 114.099 60.3941L114.165 60.356L114.165 60.3559L114.21 60.3299C115.71 59.4592 117.271 58.5535 118.776 57.6393L118.776 57.6395L118.785 57.6334L118.87 57.5789Z" fill="black" stroke="black"/>
</g>
<defs>
<clipPath id="clip0_583_2">
<rect width="129" height="144" fill="white" transform="translate(56 51)"/>
</clipPath>
</defs>
</svg>
