<svg width="230" height="235" viewBox="0 0 230 235" fill="none" xmlns="http://www.w3.org/2000/svg">
<path d="M94.8521 5.26498C117.659 5.24376 140.509 7.14301 163.221 3.48245C174.21 1.71053 185.114 -0.761677 196.369 0.225082C205.987 1.07391 214.531 4.38433 221.184 11.61C223.735 14.3792 225.202 17.7321 225.616 21.5836C228.964 52.5552 229.708 83.5903 228.581 114.7C227.922 132.907 230.207 151.04 229.942 169.237C229.804 179.083 230.856 189.036 227.625 198.638C223.65 210.447 219.016 221.991 207.177 228.135C197.899 232.941 187.484 233.482 177.239 233.96C139.372 235.71 101.526 235.254 63.7021 232.57C51.1826 231.678 38.5994 231.403 26.1543 229.684C13.6773 227.954 6.37596 220.103 2.32678 208.622C-0.957196 199.296 -0.160116 189.736 1.06208 180.335C3.7509 159.592 4.51609 138.891 3.20887 117.978C1.91229 97.1928 -0.457687 76.4178 0.636973 55.5367C1.45531 39.8546 6.07838 25.5625 17.0037 13.732C24.0287 6.13503 33.1367 4.1509 42.8505 4.10846C60.195 4.0448 77.5395 3.91747 94.8628 5.25437L94.8521 5.26498Z" fill="black"/>
<path d="M7.87572 43.7461C5.49621 63.5035 6.99404 83.2397 8.38562 102.944C10.0322 126.199 11.1157 149.412 7.99258 172.636C7.00467 179.97 5.65555 187.422 6.08046 194.735C7.10025 211.885 13.5802 222.994 32.988 224.181C43.7383 224.838 54.5098 225.347 65.2706 226.184C106.221 229.364 147.247 230.318 188.229 226.576C199.861 225.516 210.314 221.499 215.923 210.126C220.873 200.088 223.933 189.584 223.996 178.179C224.113 156.63 221.373 135.198 221.978 113.628C222.796 84.5116 222.456 55.4055 219.875 26.3523C219.163 18.3709 215.477 13.156 208.211 9.71117C196.558 4.18885 184.586 5.88476 172.848 8.06826C155.161 11.3647 137.336 12.1491 119.521 11.6403C94.0584 10.9195 68.5956 10.4955 43.1221 10.2411C34.4327 10.1564 26.6887 12.0749 20.3894 18.3391C17.8399 18.5617 17.5956 20.5014 17.3194 22.4199C17.1282 22.7485 16.9476 23.0771 16.7564 23.4057C15.3117 23.4799 14.9505 24.3172 15.1736 25.5892C15.0036 25.9178 14.8443 26.2569 14.6743 26.5855C13.2721 26.7445 12.8684 27.5819 13.1234 28.8644C12.8684 29.4898 12.6135 30.1151 12.3585 30.7405C10.3402 32.1396 9.98965 34.1959 10.1277 36.443C9.79844 37.7256 9.46914 38.9975 9.13983 40.28C7.28084 40.9054 7.53579 42.3045 7.87572 43.7355V43.7461Z" fill="#242527"/>
<path d="M221.989 113.633C222.807 84.5153 222.467 55.4078 219.885 26.3533C219.174 18.3715 215.487 13.1563 208.222 9.71135C196.568 4.18876 184.596 5.88476 172.858 8.06835C155.171 11.3649 137.346 12.1493 119.532 11.6405C94.069 10.9197 68.6062 10.4957 43.1327 10.2413C34.4433 10.1565 26.6993 12.0751 20.4 18.3397C19.9432 20.1311 18.934 21.4985 17.3194 22.4207C17.1282 22.7493 16.9476 23.0779 16.7564 23.4065C16.9051 24.6255 16.4483 25.3993 15.1736 25.5901C15.0036 25.9187 14.8443 26.2579 14.6743 26.5865C14.9186 27.8691 14.2919 28.5475 13.1127 28.8655C12.8578 29.4909 12.6029 30.1163 12.3479 30.7417C12.3904 32.9465 11.7424 34.8863 10.1171 36.4445C9.78781 37.7165 9.45848 38.9991 9.1398 40.2817C9.57534 41.7551 9.50101 43.0271 7.87572 43.7373C5.49621 63.4956 6.99401 83.2327 8.38559 102.938C10.0321 126.194 11.1157 149.408 7.99255 172.633C7.00463 179.968 5.65555 187.42 6.08047 194.734C7.10025 211.885 13.5801 222.993 32.988 224.181C43.7382 224.838 54.5098 225.347 65.2707 226.184C106.222 229.364 147.247 230.318 188.229 226.576C199.861 225.516 210.314 221.499 215.923 210.125C220.873 200.087 223.933 189.582 223.996 178.177C224.113 156.627 221.373 135.194 221.978 113.623L221.989 113.633Z" fill="#95FFFD"/>
<g clip-path="url(#clip0_583_5)">
<path d="M143.471 107.841C142.251 109.813 141.03 111.776 139.818 113.748C134.573 122.257 129.351 130.774 124.076 139.261C122.462 141.856 120.521 144.193 117.975 145.943C112.321 149.848 105.772 147.915 103.097 141.575C101.718 138.302 101.422 134.839 101.415 131.345C101.407 124.114 101.415 116.876 101.415 109.645C101.415 109.211 101.415 108.785 101.111 108.245C90.6295 125.157 80.1401 142.069 69.4839 159.256C71.7803 161.432 73.9859 163.762 76.4339 165.794C87.992 175.384 101.354 180.118 116.315 179.791C131.117 179.464 144.153 174.242 155.287 164.37C156.173 163.586 157.06 162.742 158.091 162.201C161.107 160.618 164.654 161.585 166.595 164.378C168.588 167.247 168.292 171.152 165.518 173.481C161.751 176.64 157.97 179.844 153.831 182.462C140.75 190.736 126.357 194.496 110.941 193.552C88.8333 192.205 70.7572 182.645 56.9178 165.329C44.6473 149.985 38.9554 132.213 40.5622 112.69C43.086 82.1075 58.4033 59.677 86.5899 47.6284C112.685 36.4702 137.756 40.2911 160.319 57.5383C176.758 70.1045 186.05 87.1995 188.907 107.727C189.855 114.547 190.241 121.45 188.483 128.232C186.444 136.087 182.094 142.252 174.666 145.791C162.729 151.469 149.223 145.068 145.259 132C144.251 128.681 143.827 125.286 143.819 121.831C143.804 117.683 143.819 113.542 143.819 109.394C143.819 108.915 143.819 108.435 143.819 107.955L143.471 107.849V107.841ZM114.943 127.654C115.042 127.661 115.133 127.676 115.231 127.684C115.421 127.387 115.61 127.098 115.8 126.801C121.059 118.254 126.304 109.698 131.587 101.166C133.754 97.6726 136.202 94.3922 139.598 91.9642C145.798 87.5268 152.854 89.559 155.802 96.6147C156.999 99.4765 157.348 102.483 157.371 105.535C157.401 111.137 157.257 116.739 157.447 122.333C157.53 124.662 157.947 127.106 158.803 129.267C160.584 133.781 165.435 135.25 169.641 132.822C173.613 130.531 175.356 126.793 175.826 122.463C176.485 116.32 175.856 110.224 174.545 104.211C167.678 72.563 137.665 50.9773 105.431 56.2367C90.4249 58.68 77.9649 65.827 68.3622 77.594C55.2428 93.6767 51.2638 112.073 55.6597 132.319C56.7586 137.373 58.5928 142.176 61.0635 146.864C61.3288 146.484 61.541 146.217 61.7229 145.928C72.3791 128.765 83.0201 111.586 93.7142 94.4454C95.4119 91.7282 97.0869 88.9044 99.2848 86.6286C104.386 81.3616 111.752 83.2264 113.852 90.2592C114.572 92.6644 114.867 95.2827 114.898 97.802C115.019 107.286 114.943 116.762 114.943 126.245C114.943 126.71 114.943 127.182 114.943 127.646V127.654Z" fill="white"/>
<path d="M115.542 197C113.95 197 112.343 196.954 110.729 196.855C87.8098 195.455 68.8394 185.545 54.333 167.4C41.3501 151.149 35.6127 132.654 37.2801 112.423C38.5913 96.5003 43.2979 82.663 51.2559 71.3069C59.3428 59.7758 70.7948 50.7868 85.2935 44.5836C98.7464 38.8295 112.184 36.8353 125.235 38.6468C138.067 40.4279 150.542 45.9004 162.32 54.897C179.077 67.7068 189.119 85.3269 192.174 107.263C193.007 113.283 193.712 121.199 191.673 129.061C189.256 138.37 184.011 144.999 176.083 148.775C169.603 151.857 162.494 151.987 156.067 149.132C149.428 146.187 144.342 140.288 142.114 132.951C141.06 129.488 140.545 125.849 140.53 121.831C140.53 120.856 140.53 119.867 140.53 118.885C139.689 120.255 138.84 121.625 137.998 122.995C134.36 128.902 130.601 135.006 126.88 141.004C124.826 144.307 122.529 146.811 119.854 148.661C116.292 151.119 112.267 151.873 108.523 150.769C104.772 149.673 101.77 146.857 100.08 142.853C98.3826 138.819 98.1476 134.77 98.14 131.337C98.14 127.326 98.14 123.323 98.14 119.319L73.7127 158.715C73.7961 158.799 73.8794 158.883 73.9628 158.959C75.5165 160.481 76.9793 161.919 78.5557 163.229C89.5151 172.324 102.202 176.777 116.262 176.472C130.146 176.168 142.546 171.258 153.126 161.874L153.414 161.615C154.301 160.823 155.309 159.925 156.582 159.255C161.039 156.919 166.397 158.274 169.315 162.475C172.354 166.852 171.634 172.667 167.648 176.008L167.223 176.366C163.563 179.441 159.773 182.615 155.605 185.248C143.273 193.05 129.828 196.992 115.572 196.992L115.542 197ZM115.852 44.6217C106.674 44.6217 97.2988 46.6463 87.8856 50.6727C74.5237 56.3888 64.0191 64.609 56.6522 75.1202C49.3763 85.502 45.0638 98.2357 43.8512 112.971C42.3278 131.459 47.5877 148.379 59.4792 163.259C72.7729 179.89 90.1517 188.97 111.131 190.249C125.781 191.147 139.552 187.585 152.065 179.661C155.862 177.264 159.477 174.227 162.971 171.297L163.396 170.939C164.942 169.645 164.806 167.613 163.881 166.273C162.865 164.812 161.107 164.347 159.599 165.139C159.045 165.428 158.424 165.984 157.765 166.578L157.454 166.852C145.676 177.294 131.859 182.767 116.375 183.102C115.868 183.109 115.36 183.117 114.859 183.117C99.7771 183.117 86.15 178.154 74.3342 168.343C72.5531 166.867 70.916 165.261 69.332 163.708C68.6423 163.031 67.9223 162.323 67.2174 161.661L65.2545 159.803L101.255 101.737L103.976 106.631C104.696 107.925 104.696 109.044 104.696 109.645V116.107C104.696 121.184 104.696 126.26 104.696 131.337C104.696 134.108 104.87 137.335 106.113 140.28C107.015 142.419 108.516 143.896 110.335 144.429C112.146 144.961 114.193 144.528 116.087 143.218C118.005 141.894 119.695 140.029 121.256 137.51C124.97 131.528 128.729 125.423 132.36 119.524C133.906 117.02 135.444 114.509 136.99 112.005C137.816 110.665 138.643 109.325 139.476 107.993L142 103.914L147.093 105.52V109.386C147.093 110.627 147.093 111.868 147.093 113.116C147.093 115.97 147.093 118.916 147.093 121.815C147.108 125.18 147.533 128.194 148.389 131.033C150.057 136.528 153.816 140.92 158.704 143.089C163.35 145.152 168.512 145.045 173.233 142.8C179.41 139.862 183.344 134.823 185.269 127.395C187.005 120.704 186.421 113.93 185.625 108.184C182.821 88.0365 173.628 71.8854 158.303 60.1716C147.442 51.8677 136.005 46.8366 124.311 45.2078C121.506 44.8196 118.679 44.6217 115.83 44.6217H115.852ZM60.654 153.166L58.1453 148.409C55.432 143.257 53.56 138.225 52.4383 133.019C47.762 111.464 52.2639 92.1086 65.8077 75.4931C75.8955 63.1248 89.0452 55.5515 104.893 52.9637C138.408 47.4988 170.414 69.7009 177.751 103.503C179.289 110.581 179.721 116.899 179.085 122.82C178.448 128.734 175.818 133.065 171.263 135.691C168.345 137.373 164.987 137.746 162.032 136.711C159.152 135.698 156.908 133.491 155.726 130.485C154.786 128.11 154.24 125.332 154.142 122.447C154.013 118.718 154.036 114.95 154.051 111.312C154.058 109.424 154.074 107.468 154.058 105.55C154.043 102.422 153.626 99.9863 152.747 97.8856C151.716 95.4119 150.026 93.7298 147.988 93.1513C145.956 92.5729 143.652 93.1057 141.492 94.6508C138.309 96.9265 136.104 100.1 134.368 102.901C130.647 108.899 126.887 115.011 123.257 120.925C121.703 123.46 120.142 125.994 118.588 128.521C118.452 128.742 118.308 128.962 118.172 129.183L116.891 131.193L111.646 130.584V126.238C111.646 123.65 111.646 121.062 111.654 118.474C111.669 111.708 111.684 104.705 111.593 97.8399C111.563 95.3358 111.259 93.1057 110.691 91.2028C110.024 88.9803 108.629 87.4581 106.864 87.0319C105.12 86.6056 103.218 87.2983 101.642 88.9271C99.8832 90.7386 98.466 93.0296 96.9577 95.45L96.4954 96.1882C88.7117 108.663 80.8219 121.366 73.1973 133.659C70.3021 138.324 67.4069 142.998 64.5041 147.663C64.3222 147.96 64.1403 148.204 63.966 148.447C63.8978 148.546 63.822 148.645 63.7386 148.759L60.6464 153.151L60.654 153.166ZM115.049 58.7635C112.04 58.7635 109.008 59.0071 105.946 59.5018C91.7282 61.8156 79.9351 68.6125 70.9009 79.6946C64.7467 87.2374 60.6237 95.4576 58.6455 104.134C56.6901 112.69 56.7659 121.937 58.8653 131.619C59.4792 134.45 60.3432 137.236 61.4877 140.029C63.5264 136.741 65.5652 133.461 67.604 130.173C75.2285 117.88 83.1183 105.17 90.9096 92.687L91.3644 91.9564C92.9863 89.3457 94.6613 86.6437 96.9122 84.3222C100.111 81.0113 104.416 79.6261 108.425 80.6079C112.457 81.5974 115.663 84.8474 116.997 89.3076C117.747 91.7965 118.141 94.6432 118.179 97.7638C118.255 104.005 118.255 110.338 118.24 116.503C121.696 110.886 125.25 105.101 128.775 99.4154C130.738 96.2491 133.519 92.238 137.672 89.2696C141.5 86.5295 145.805 85.6542 149.799 86.7959C153.801 87.9376 157.007 90.9745 158.833 95.3358C160.053 98.2585 160.629 101.493 160.652 105.52C160.66 107.468 160.652 109.447 160.645 111.35C160.629 114.927 160.607 118.626 160.728 122.219C160.804 124.358 161.19 126.367 161.85 128.042C162.327 129.252 163.146 130.089 164.207 130.462C165.366 130.865 166.708 130.69 167.981 129.952C170.679 128.399 172.119 125.903 172.536 122.105C173.097 116.914 172.695 111.289 171.316 104.911C165.397 77.6319 141.621 58.7559 115.049 58.7559V58.7635Z" fill="black"/>
</g>
<defs>
<clipPath id="clip0_583_5">
<rect width="156" height="159" fill="white" transform="translate(37 38)"/>
</clipPath>
</defs>
</svg>
