<svg width="229" height="235" viewBox="0 0 229 235" fill="none" xmlns="http://www.w3.org/2000/svg">
<path d="M94.4397 5.26498C117.148 5.24376 139.898 7.14301 162.511 3.48245C173.452 1.71053 184.309 -0.761677 195.515 0.225082C205.091 1.07391 213.599 4.38433 220.223 11.61C222.762 14.3792 224.223 17.7321 224.635 21.5836C227.968 52.5552 228.709 83.5903 227.588 114.7C226.931 132.907 229.206 151.04 228.942 169.237C228.804 179.083 229.852 189.036 226.635 198.638C222.678 210.447 218.064 221.991 206.276 228.135C197.039 232.941 186.669 233.482 176.468 233.96C138.766 235.71 101.085 235.254 63.4252 232.57C50.9601 231.678 38.4315 231.403 26.0405 229.684C13.6178 227.954 6.34824 220.103 2.31667 208.622C-0.953035 199.296 -0.15942 189.736 1.05746 180.335C3.73459 159.592 4.49645 138.891 3.19492 117.978C1.90397 97.1928 -0.455697 76.4178 0.634203 55.5367C1.44898 39.8546 6.05196 25.5625 16.9298 13.732C23.9242 6.13503 32.9926 4.1509 42.6642 4.10846C59.9333 4.0448 77.2024 3.91747 94.4503 5.25437L94.4397 5.26498Z" fill="black"/>
<path d="M7.87572 43.7461C5.49621 63.5035 6.99404 83.2397 8.38562 102.944C10.0322 126.199 11.1157 149.412 7.99258 172.636C7.00467 179.97 5.65555 187.422 6.08046 194.735C7.10025 211.885 13.5802 222.994 32.988 224.181C43.7383 224.838 54.5098 225.347 65.2706 226.184C106.221 229.364 147.247 230.318 188.229 226.576C199.861 225.516 210.314 221.499 215.923 210.126C220.873 200.088 223.933 189.584 223.996 178.179C224.113 156.63 221.373 135.198 221.978 113.628C222.796 84.5116 222.456 55.4055 219.875 26.3523C219.163 18.3709 215.477 13.156 208.211 9.71117C196.558 4.18885 184.586 5.88476 172.848 8.06826C155.161 11.3647 137.336 12.1491 119.521 11.6403C94.0584 10.9195 68.5956 10.4955 43.1221 10.2411C34.4327 10.1564 26.6887 12.0749 20.3894 18.3391C17.8399 18.5617 17.5956 20.5014 17.3194 22.4199C17.1282 22.7485 16.9476 23.0771 16.7564 23.4057C15.3117 23.4799 14.9505 24.3172 15.1736 25.5892C15.0036 25.9178 14.8443 26.2569 14.6743 26.5855C13.2721 26.7445 12.8684 27.5819 13.1234 28.8644C12.8684 29.4898 12.6135 30.1151 12.3585 30.7405C10.3402 32.1396 9.98965 34.1959 10.1277 36.443C9.79844 37.7256 9.46914 38.9975 9.13983 40.28C7.28084 40.9054 7.53579 42.3045 7.87572 43.7355V43.7461Z" fill="black"/>
<path d="M74.2753 109.104C76.7713 107.504 78.5953 106.704 79.7473 106.704C80.4193 106.704 81.2993 106.96 82.3873 107.472C83.5393 108.08 84.1153 109.008 84.1153 110.256C84.1153 111.248 83.7153 112.304 82.9153 113.424C82.1473 114.512 81.0433 115.52 79.6033 116.448C77.7153 117.568 76.7713 119.472 76.7713 122.16C76.7713 123.088 76.9313 124.24 77.2513 125.616C77.5713 126.736 78.1153 127.616 78.8833 128.256C79.6833 128.864 80.6273 129.168 81.7153 129.168C82.6753 129.168 83.6193 128.944 84.5473 128.496C86.0193 127.824 87.3153 127.488 88.4353 127.488C90.1953 127.488 91.4113 128.224 92.0833 129.696C92.4353 130.496 92.6113 131.088 92.6113 131.472C92.6113 132.112 92.1153 132.944 91.1233 133.968C90.0673 135.088 88.6273 136 86.8033 136.704C85.0113 137.376 83.2033 137.712 81.3793 137.712C80.0993 137.712 78.9793 137.552 78.0193 137.232C74.4673 136.176 71.6993 134.272 69.7153 131.52C67.7313 128.768 66.7393 125.728 66.7393 122.4C66.7393 119.808 67.3793 117.344 68.6593 115.008C69.9393 112.64 71.8113 110.672 74.2753 109.104ZM100.649 106.992C101.417 105.744 102.281 105.12 103.241 105.12C104.521 105.12 106.745 106.512 109.913 109.296L114.809 113.664L117.929 110.112C120.073 107.68 122.089 106.464 123.977 106.464C125.353 106.464 126.681 107.104 127.961 108.384C128.825 109.216 129.369 110.288 129.593 111.6C129.817 112.88 130.009 115.808 130.169 120.384C130.233 122.56 130.265 124.032 130.265 124.8C130.265 128.48 129.977 130.976 129.401 132.288C128.857 133.6 127.849 134.256 126.377 134.256C124.873 134.256 123.817 133.568 123.209 132.192C122.633 130.784 122.345 128.304 122.345 124.752V118.8L119.801 121.632C118.137 123.424 116.601 124.32 115.193 124.32C113.721 124.32 112.105 123.376 110.345 121.488L107.513 118.368L106.889 122.448C106.537 125.136 106.361 127.536 106.361 129.648C106.361 131.472 105.833 133.008 104.777 134.256C103.721 135.504 102.537 136.128 101.225 136.128C100.041 136.128 99.0494 135.632 98.2494 134.64C97.8974 134.192 97.7214 132.592 97.7214 129.84C97.7214 125.904 98.0254 121.376 98.6334 116.256C99.2414 111.136 99.9134 108.048 100.649 106.992ZM142.807 109.104C145.303 107.504 147.127 106.704 148.279 106.704C148.951 106.704 149.831 106.96 150.919 107.472C152.071 108.08 152.647 109.008 152.647 110.256C152.647 111.248 152.247 112.304 151.447 113.424C150.679 114.512 149.575 115.52 148.135 116.448C146.247 117.568 145.303 119.472 145.303 122.16C145.303 123.088 145.463 124.24 145.783 125.616C146.103 126.736 146.647 127.616 147.415 128.256C148.215 128.864 149.159 129.168 150.247 129.168C151.207 129.168 152.151 128.944 153.079 128.496C154.551 127.824 155.847 127.488 156.967 127.488C158.727 127.488 159.943 128.224 160.615 129.696C160.967 130.496 161.143 131.088 161.143 131.472C161.143 132.112 160.647 132.944 159.655 133.968C158.599 135.088 157.159 136 155.335 136.704C153.543 137.376 151.735 137.712 149.911 137.712C148.631 137.712 147.511 137.552 146.551 137.232C142.999 136.176 140.231 134.272 138.247 131.52C136.263 128.768 135.271 125.728 135.271 122.4C135.271 119.808 135.911 117.344 137.191 115.008C138.471 112.64 140.343 110.672 142.807 109.104Z" fill="#F5F5F5"/>
</svg>
