<svg width="242" height="246" viewBox="0 0 242 246" fill="none" xmlns="http://www.w3.org/2000/svg">
<path d="M120.529 0.104132C137.988 1.43239 159.082 4.54273 178.92 13.3424C200.091 22.7399 216.526 37.3839 226.439 58.6581C234.304 75.5492 239.217 93.3699 241.398 111.91C243.414 129.045 240.098 145.504 235.461 161.919C232.057 173.984 227.706 185.518 221.108 196.177C211.106 212.338 198.274 225.498 180.947 233.678C150.149 248.223 118.117 248.267 85.4023 242.146C72.1511 239.666 62.3587 231.387 51.3877 224.712C32.3426 213.123 22.6493 194.495 12.5264 175.999C6.14867 164.354 1.5554 152.223 0.354751 138.708C-0.746758 126.344 0.784347 114.445 4.01177 102.701C7.9772 88.234 12.5705 73.9774 18.8821 60.2853C25.8657 45.1431 35.8344 32.7461 49.7244 23.5036C58.5144 17.6593 67.3375 11.8813 77.0968 7.76375C89.7091 2.43965 102.773 -0.648548 120.518 0.1152L120.529 0.104132Z" fill="black"/>
<path d="M220.166 59.0812C208.105 33.6949 185.832 20.0459 159.451 12.7768C146.836 9.29782 133.856 7.89736 120.875 6.35239C112.026 5.29648 103.686 6.8081 95.1916 8.31972C82.2667 10.6205 71.3464 17.3894 60.1603 23.7249C39.0063 35.7067 26.325 54.1907 18.5611 76.6982C15.2607 86.2792 12.4586 96.0047 9.65655 105.741C5.73587 119.346 4.84983 132.884 7.57437 146.744C10.3654 160.926 17.5201 173.253 24.6194 185.435C32.4829 198.928 40.8227 212.221 55.4532 219.857C62.5858 223.581 67.769 230.794 75.7101 232.917C90.9941 237.007 106.389 240.92 121.451 239.808C135.284 240.264 147.778 238.208 160.16 235.118C181.247 229.85 198.004 218.123 210.985 200.795C220.753 187.769 225.87 172.764 230.666 157.325C241.375 122.836 234.985 90.3028 220.155 59.0923L220.166 59.0812Z" fill="#95FFFD"/>
<g clip-path="url(#clip0_583_4)">
<path d="M55.767 164.334C55.6835 163.708 55.736 163.079 55.7608 162.457C55.8597 160.007 55.8535 157.557 55.8566 155.104C55.8597 152.611 55.9339 150.121 56.0143 147.631C56.0452 146.701 56.0978 145.769 56.2369 144.846C56.2678 144.648 56.3142 144.45 56.3575 144.252C56.4378 143.868 56.6542 143.607 57.016 143.443C58.3763 142.821 59.7242 142.173 61.0845 141.554C66.841 138.934 72.5975 136.313 78.3571 133.703C91.4221 127.781 104.49 121.862 117.558 115.943C124.038 113.007 130.512 110.068 136.992 107.138C142.792 104.515 148.595 101.904 154.388 99.271C156.484 98.3171 158.577 97.3569 160.624 96.2977C160.887 96.1614 161.168 96.053 161.381 95.83C161.239 95.5853 161.007 95.4862 160.809 95.3593C158.438 93.8478 155.987 92.4758 153.541 91.0913C151.324 89.837 149.108 88.5795 146.937 87.2446C146.613 87.0464 146.276 86.8605 145.973 86.5663C146.208 86.303 146.514 86.1915 146.795 86.0584C148.746 85.123 150.688 84.1722 152.654 83.2771C156.827 81.3754 161.01 79.4985 165.196 77.6185C166.43 77.0641 167.688 76.5593 168.919 75.9956C169.404 75.7726 169.815 75.7974 170.285 76.0358C172.143 76.9743 174.026 77.8632 175.881 78.8047C179.411 80.6011 182.926 82.4285 186.46 84.2155C186.89 84.4323 187.014 84.6801 187.007 85.1447C186.936 90.4905 186.89 95.8393 186.834 101.185C186.806 103.88 186.763 106.571 186.757 109.266C186.757 109.736 186.627 109.972 186.182 110.173C180.456 112.759 174.743 115.38 169.021 117.975C154.317 124.643 139.614 131.305 124.904 137.961C114.998 142.443 105.09 146.909 95.1783 151.372C90.7017 153.388 86.2066 155.367 81.8042 157.545C81.5321 157.678 81.2694 157.833 81.0035 157.978C80.7716 158.105 80.7963 158.257 80.9818 158.4C81.0931 158.486 81.2168 158.561 81.3436 158.616C83.1645 159.412 84.8618 160.434 86.5745 161.426C89.0601 162.863 91.5488 164.29 94.0839 165.638C94.4333 165.824 94.7672 166.04 95.0949 166.263C95.3298 166.421 95.6019 166.555 95.7534 166.824C95.6143 167.078 95.3453 167.149 95.1196 167.267C92.7731 168.493 90.3709 169.608 87.9657 170.708C83.0223 172.966 78.0634 175.193 73.12 177.454C72.6655 177.661 72.3254 177.639 71.8895 177.413C66.7111 174.753 61.5266 172.111 56.3389 169.472C56.1101 169.354 55.8968 169.178 55.6155 169.181V167.843C55.801 167.688 55.7268 167.474 55.736 167.282C55.7608 166.747 55.7422 166.214 55.8288 165.675C55.8999 165.244 55.9741 164.764 55.7546 164.328L55.767 164.334Z" fill="white"/>
<path d="M72.5543 180.232C71.9329 180.232 71.3146 180.074 70.7024 179.761C65.6261 177.15 60.4508 174.517 55.4455 171.968L55.1611 171.823C55.1147 171.798 55.0653 171.773 55.0189 171.745C54.5582 171.634 54.1316 171.402 53.7884 171.064C53.2845 170.568 53.0032 169.893 53.0032 169.187V167.849C53.0032 167.57 53.0465 167.298 53.1299 167.041C53.1299 166.948 53.1361 166.855 53.1361 166.759C53.1454 166.319 53.1578 165.817 53.2505 165.254C53.2567 165.223 53.2629 165.182 53.269 165.142C53.2196 164.993 53.1856 164.839 53.1639 164.681C53.065 163.928 53.0959 163.25 53.1237 162.652L53.1361 162.348C53.2227 160.159 53.2258 157.904 53.2289 155.727V155.098C53.235 152.617 53.3031 150.21 53.3896 147.547C53.4174 146.643 53.47 145.568 53.64 144.45C53.674 144.236 53.7173 144.025 53.7637 143.818L53.7884 143.703C54.0419 142.508 54.8025 141.566 55.9247 141.052C56.5647 140.761 57.1984 140.464 57.8353 140.166C58.5556 139.829 59.276 139.494 59.9994 139.163C65.7559 136.543 71.5155 133.922 77.2751 131.311C85.9872 127.362 94.6992 123.417 103.411 119.471L123.735 110.263C127.795 108.423 131.854 106.583 135.913 104.744C138.105 103.753 140.294 102.761 142.486 101.773C146.094 100.144 149.701 98.5152 153.306 96.8768C154.252 96.4463 155.186 96.0188 156.11 95.5852C154.985 94.9286 153.85 94.2875 152.734 93.6588L152.255 93.3862C149.862 92.0328 147.707 90.8063 145.571 89.4931L145.444 89.4156C145.098 89.2081 144.625 88.9201 144.152 88.4586C143.141 87.4768 143.079 85.8693 144.016 84.8163C144.579 84.1845 145.222 83.8871 145.568 83.7292L145.667 83.6827L146.95 83.0664C148.456 82.3416 150.014 81.589 151.575 80.8798C155.619 79.0369 159.74 77.1879 163.725 75.3977L164.13 75.215C164.708 74.9548 165.292 74.707 165.877 74.4562C166.557 74.165 167.2 73.8925 167.837 73.6013C169.03 73.0531 170.291 73.0841 171.482 73.685C172.36 74.1279 173.247 74.5615 174.131 74.9951C175.099 75.4689 176.097 75.9583 177.083 76.457C178.71 77.2839 180.333 78.1171 181.956 78.9502C183.854 79.9258 185.755 80.9014 187.66 81.8647C188.961 82.5244 189.669 83.7013 189.648 85.1787C189.595 89.2112 189.555 93.2438 189.515 97.2794L189.475 101.213C189.465 102.006 189.456 102.799 189.447 103.591C189.425 105.456 189.4 107.382 189.397 109.272C189.397 110.783 188.64 111.957 187.276 112.573C184.002 114.054 180.732 115.544 177.461 117.033C175.015 118.148 172.567 119.263 170.118 120.372C156.048 126.752 140.968 133.588 125.998 140.358C116.903 144.474 107.177 148.86 96.2667 153.769L94.2757 154.664C91.6757 155.832 89.0138 157.024 86.386 158.26C86.6982 158.44 87.0043 158.619 87.3104 158.796L87.9039 159.14C90.1423 160.434 92.7454 161.933 95.333 163.309C95.8029 163.559 96.2296 163.838 96.5851 164.077L96.6593 164.123C96.9715 164.321 97.6177 164.73 98.066 165.532C98.508 166.322 98.5142 167.282 98.0814 168.078C97.5558 169.048 96.7335 169.425 96.3841 169.587L96.3378 169.608C93.8645 170.9 91.2923 172.089 89.0757 173.102C86.7044 174.183 84.3332 175.261 81.9589 176.335C79.3805 177.503 76.8052 178.671 74.233 179.848C73.6765 180.102 73.12 180.229 72.5636 180.229L72.5543 180.232ZM58.3794 167.555C63.0477 169.93 67.852 172.38 72.5883 174.812C74.9843 173.715 77.3864 172.628 79.7855 171.541C82.1536 170.469 84.5218 169.395 86.8868 168.314C88.006 167.803 89.2179 167.245 90.4576 166.654C88.6274 165.641 86.859 164.622 85.2699 163.702L84.6671 163.352C83.1769 162.485 81.7703 161.667 80.3018 161.026C79.9802 160.883 79.6711 160.701 79.3836 160.478C78.5736 159.852 78.15 158.932 78.2242 157.963C78.2984 156.993 78.8549 156.157 79.7453 155.668L79.9277 155.566C80.1657 155.432 80.4038 155.302 80.648 155.181C84.4445 153.305 88.346 151.555 92.1209 149.861L94.1057 148.969C105.013 144.059 114.733 139.677 123.828 135.561C138.794 128.79 153.875 121.955 167.942 115.575C170.387 114.466 172.833 113.351 175.275 112.239C178.227 110.895 181.18 109.547 184.138 108.209C184.148 106.639 184.166 105.06 184.185 103.526C184.194 102.737 184.203 101.947 184.213 101.157L184.253 97.2268C184.29 93.5194 184.327 89.809 184.373 86.1016C182.763 85.284 181.158 84.457 179.551 83.6332C177.934 82.8031 176.317 81.9731 174.7 81.1492C173.751 80.666 172.768 80.186 171.819 79.7214C171.058 79.3497 170.297 78.9781 169.543 78.6002C169.002 78.8418 168.461 79.071 167.932 79.2971C167.379 79.5325 166.826 79.7679 166.278 80.0156L165.873 80.1984C161.895 81.9824 157.783 83.8283 153.751 85.668C152.951 86.0335 152.141 86.4144 151.337 86.7954C152.459 87.4458 153.618 88.1024 154.84 88.7962L155.319 89.0656C157.597 90.3541 159.953 91.6859 162.228 93.1354L162.272 93.1601C162.553 93.3243 163.208 93.7114 163.666 94.5105C164.25 95.5264 164.093 96.8055 163.283 97.6511C162.791 98.1652 162.259 98.4223 161.944 98.5771L161.836 98.6298C159.755 99.7076 157.641 100.68 155.476 101.662C151.869 103.303 148.258 104.933 144.644 106.565C142.455 107.553 140.263 108.541 138.074 109.532C134.015 111.369 129.956 113.208 125.899 115.048L105.572 124.259C96.8602 128.205 88.1482 132.151 79.4392 136.1C73.6796 138.711 67.9262 141.328 62.1728 143.948C61.4648 144.27 60.763 144.598 60.0581 144.93C59.6377 145.125 59.2172 145.323 58.7968 145.518C58.6979 146.274 58.6638 147.045 58.6422 147.711C58.5587 150.331 58.4907 152.698 58.4845 155.104V155.73C58.4814 157.96 58.4784 160.264 58.3856 162.556L58.3701 162.9C58.3547 163.2 58.3423 163.485 58.3516 163.73C58.6608 164.708 58.5185 165.591 58.432 166.102C58.4011 166.3 58.3949 166.567 58.3856 166.873C58.3825 167.022 58.3794 167.171 58.3732 167.319C58.3763 167.4 58.3763 167.477 58.3732 167.552L58.3794 167.555ZM82.2958 160.276L82.2804 160.286C82.2804 160.286 82.2897 160.279 82.2958 160.276ZM58.9297 144.8V144.809C58.9297 144.809 58.9297 144.803 58.9297 144.8Z" fill="black"/>
<path d="M121.37 202.349C121.274 202.154 121.067 202.117 120.9 202.033C114.606 198.852 108.299 195.693 102.014 192.497C97.9361 190.425 93.849 188.371 89.9196 186.017C89.4342 185.726 88.9674 185.407 88.5377 185.039C88.4418 184.958 88.3522 184.868 88.278 184.769C88.1543 184.599 88.2409 184.407 88.4418 184.351C90.5565 183.769 92.4949 182.753 94.4828 181.867C99.3736 179.687 104.243 177.466 109.115 175.245C109.681 174.988 110.228 174.948 110.819 175.106C112.318 175.506 113.688 176.227 115.079 176.881C116.47 177.534 117.738 178.138 119.027 178.847C120.721 179.78 122.344 179.823 124.109 179.008C127.247 177.562 130.438 176.24 133.61 174.864C133.962 174.713 134.327 174.586 134.664 174.403C135.007 174.217 135.292 174.27 135.625 174.44C138.702 176.014 141.79 177.565 144.869 179.135C148.363 180.913 151.85 182.703 155.34 184.491C155.622 184.636 155.897 184.791 156.243 184.98C155.776 185.317 155.347 185.525 154.923 185.748C151.093 187.758 147.197 189.638 143.32 191.549C136.361 194.981 129.399 198.406 122.44 201.838C122.118 201.996 121.76 202.098 121.5 202.368L121.37 202.349Z" fill="white"/>
<path d="M121.5 205C121.37 205 121.24 204.991 121.11 204.972L120.974 204.951C120.489 204.876 120.044 204.672 119.679 204.362C117.484 203.253 115.286 202.144 113.088 201.039C109.066 199.013 104.908 196.92 100.824 194.841L99.9827 194.414C96.2079 192.497 92.3063 190.515 88.5686 188.275C87.9101 187.882 87.3443 187.479 86.8311 187.043C86.5621 186.813 86.3395 186.575 86.151 186.318C85.5883 185.547 85.4399 184.552 85.7521 183.657C86.0675 182.756 86.8126 182.068 87.7462 181.811C89.1652 181.421 90.5472 180.78 92.0126 180.102C92.4794 179.885 92.9432 179.671 93.4131 179.461C97.9082 177.457 102.465 175.382 106.874 173.375L108.027 172.851C109.14 172.343 110.309 172.247 111.496 172.563C112.983 172.96 114.272 173.579 115.518 174.177C115.744 174.285 115.969 174.394 116.198 174.499C117.589 175.152 118.949 175.803 120.294 176.54C121.256 177.07 121.995 177.088 123.015 176.617C125.262 175.58 127.563 174.598 129.785 173.647C130.713 173.251 131.643 172.851 132.568 172.452C132.701 172.396 132.834 172.34 132.967 172.284C133.146 172.21 133.316 172.142 133.418 172.089C134.169 171.684 135.369 171.355 136.822 172.099C138.566 172.991 140.315 173.876 142.062 174.762C143.395 175.437 144.727 176.113 146.059 176.791C148.842 178.206 151.618 179.631 154.397 181.053L156.537 182.146C156.75 182.254 156.957 182.369 157.189 182.496L157.498 182.663C158.293 183.094 158.809 183.905 158.868 184.809C158.927 185.714 158.515 186.584 157.783 187.114C157.223 187.52 156.716 187.783 156.308 187.993L156.144 188.077C153.065 189.694 149.905 191.242 146.854 192.744C146.063 193.132 145.274 193.522 144.486 193.909C140.859 195.699 137.23 197.486 133.604 199.27C130.271 200.912 126.938 202.553 123.605 204.195C123.485 204.254 123.364 204.309 123.241 204.362C123.222 204.371 123.203 204.378 123.185 204.387C122.712 204.78 122.118 204.994 121.506 204.994L121.5 205ZM93.6573 185.141C96.5201 186.748 99.4787 188.254 102.36 189.719L103.201 190.146C107.276 192.218 111.431 194.312 115.447 196.334C117.459 197.347 119.469 198.36 121.478 199.376C124.743 197.765 128.011 196.158 131.279 194.547C134.905 192.76 138.532 190.973 142.158 189.186C142.949 188.796 143.744 188.405 144.535 188.015C146.529 187.036 148.567 186.036 150.589 185.014C148.285 183.834 145.982 182.657 143.676 181.48C142.346 180.805 141.017 180.13 139.688 179.458C138.145 178.677 136.602 177.897 135.063 177.11C135.019 177.128 134.973 177.147 134.933 177.162C134.84 177.2 134.744 177.24 134.652 177.28C133.718 177.686 132.781 178.085 131.844 178.488C129.656 179.427 127.389 180.396 125.207 181.403C122.681 182.567 120.177 182.483 117.762 181.158C116.55 180.492 115.274 179.882 113.96 179.265C113.722 179.154 113.484 179.039 113.246 178.925C112.179 178.414 111.171 177.931 110.169 177.658L109.047 178.169C104.629 180.182 100.06 182.264 95.5463 184.274C95.1011 184.472 94.659 184.676 94.2169 184.881C94.0283 184.967 93.8428 185.054 93.6542 185.141H93.6573Z" fill="black"/>
<path d="M55.7671 116.913C55.7207 116.913 55.6743 116.919 55.6279 116.922C55.6279 106.103 55.6279 95.288 55.6279 84.4695C55.7083 84.4757 55.7856 84.485 55.866 84.4912C55.6959 84.7482 55.7516 85.0394 55.7516 85.3181C55.7516 89.6108 55.7207 93.9004 55.7578 98.1932C55.7949 102.48 55.6341 106.766 55.8567 111.053C55.9495 112.831 55.8722 114.615 55.8691 116.395C55.8691 116.572 55.9247 116.764 55.7671 116.913Z" fill="white"/>
<path d="M55.6433 119.551C54.9786 119.551 54.3294 119.301 53.8409 118.842C53.3092 118.344 53 117.65 53 116.922V84.4695C53 83.7293 53.3122 83.02 53.8595 82.5214C54.4067 82.0227 55.1394 81.7781 55.8752 81.8493L56.1132 81.871C57.0345 81.9577 57.8414 82.5245 58.2371 83.3607C58.5216 83.9647 58.5648 84.643 58.3762 85.2624C58.3762 85.281 58.3762 85.2996 58.3762 85.3213C58.3762 86.5292 58.3732 87.7402 58.3701 88.9512C58.3639 91.974 58.3577 95.1022 58.3824 98.1684C58.3948 99.6396 58.3824 101.123 58.3732 102.56C58.3546 105.311 58.333 108.154 58.4752 110.913C58.5432 112.245 58.5246 113.555 58.5092 114.825C58.503 115.333 58.4937 115.844 58.4937 116.352C58.5617 117.613 58.0269 118.39 57.5632 118.827C57.1211 119.242 56.5491 119.493 55.9432 119.536L55.8133 119.545C55.7546 119.548 55.6989 119.551 55.6402 119.551H55.6433Z" fill="black"/>
<path d="M55.7671 164.334C55.9896 164.77 55.9124 165.251 55.8412 165.681C55.7516 166.22 55.7732 166.753 55.7485 167.288C55.7392 167.481 55.8134 167.694 55.6279 167.849C55.6279 166.675 55.6279 165.498 55.6279 164.324C55.6743 164.324 55.7207 164.331 55.7671 164.334Z" fill="white"/>
<path d="M55.6278 170.482C55.2538 170.482 54.8735 170.401 54.5211 170.237C53.5936 169.807 53 168.874 53 167.849V164.324C53 163.597 53.2999 162.9 53.8316 162.404C54.3634 161.906 55.0775 161.652 55.801 161.698L55.9401 161.707C56.8645 161.769 57.6899 162.314 58.1104 163.141C58.7225 164.349 58.537 165.492 58.435 166.108C58.4041 166.307 58.3979 166.573 58.3886 166.88C58.3855 167.028 58.3824 167.177 58.3762 167.326C58.4319 168.642 57.8352 169.429 57.322 169.865C56.8397 170.274 56.2369 170.485 55.6278 170.485V170.482ZM58.3732 167.406C58.3732 167.406 58.3732 167.406 58.3732 167.409C58.3732 167.409 58.3732 167.409 58.3732 167.406Z" fill="black"/>
<path d="M55.7672 116.913C55.9248 116.764 55.8692 116.572 55.8692 116.395C55.8723 114.615 55.9496 112.827 55.8568 111.053C55.6342 106.766 55.795 102.48 55.7579 98.1932C55.7208 93.9005 55.7486 89.6108 55.7517 85.3181C55.7517 85.0394 55.6961 84.7482 55.8661 84.4912C56.1845 84.3146 56.4968 84.1319 56.8183 83.9646C61.9256 81.3475 66.9741 78.6189 72.1525 76.1442C72.9718 75.754 73.8158 75.4102 74.6319 75.0076C75.1699 74.7443 75.6429 74.7877 76.1808 75.0323C77.8534 75.7942 79.5104 76.5902 81.1613 77.4048C89.4251 81.4807 97.6333 85.6681 105.804 89.9237C109.425 91.8098 113.042 93.6991 116.603 95.6968C117.589 96.2512 118.579 96.8056 119.509 97.4498C119.784 97.6419 120.097 97.806 120.242 98.1529C119.995 98.4255 119.67 98.5493 119.367 98.7011C116.999 99.8842 114.569 100.931 112.157 102.024C107.888 103.96 103.625 105.902 99.3645 107.856C99.0183 108.014 98.7617 108.027 98.4154 107.838C91.2677 103.935 84.1107 100.045 76.9568 96.1583C76.7651 96.053 76.5889 95.9074 76.3138 95.8703C76.2303 96.0716 76.2705 96.2915 76.2705 96.499C76.2705 103.486 76.2705 110.474 76.2705 117.461C76.2705 117.603 76.255 117.746 76.2736 117.885C76.3169 118.204 76.1592 118.347 75.884 118.467C69.5649 121.258 63.2797 124.123 56.9234 126.833C56.6483 126.951 56.3824 127.099 56.0021 127.152C55.965 126.743 55.9094 126.353 55.9001 125.96C55.8723 124.786 55.8661 123.612 55.8414 122.435C55.8104 120.815 55.7672 119.195 55.7332 117.575C55.7301 117.356 55.6899 117.129 55.7672 116.913Z" fill="white"/>
<path d="M55.9989 129.781C55.4054 129.781 54.8272 129.58 54.3573 129.205C53.7977 128.756 53.4453 128.097 53.3804 127.381C53.3711 127.267 53.3587 127.155 53.3464 127.044C53.3155 126.74 53.2784 126.393 53.2691 126.018C53.2536 125.349 53.2443 124.68 53.2351 124.011C53.2289 123.503 53.2227 122.995 53.2103 122.488C53.1918 121.63 53.1732 120.769 53.1547 119.911C53.1361 119.152 53.1207 118.39 53.1021 117.631V117.572C53.0836 117.29 53.0558 116.783 53.2382 116.182C53.2382 115.708 53.2474 115.231 53.2536 114.757C53.2722 113.518 53.2876 112.347 53.2289 111.192C53.0774 108.278 53.099 105.354 53.1176 102.529C53.1269 101.114 53.1392 99.6488 53.1269 98.2179C53.1021 95.1207 53.1083 91.9802 53.1145 88.9449C53.1145 87.737 53.1207 86.5291 53.1207 85.3212V85.2562C53.1021 84.8659 53.0681 83.9491 53.6772 83.0324C53.909 82.6824 54.2244 82.3943 54.5923 82.1899L54.8736 82.032C55.1209 81.8926 55.3683 81.7532 55.6187 81.6262C57.1614 80.8365 58.701 80.0343 60.2375 79.2321C63.7433 77.4048 67.3697 75.5155 71.0209 73.7748C71.4135 73.589 71.8092 73.4125 72.205 73.2359C72.6502 73.0377 73.0675 72.8519 73.4694 72.6537C74.6875 72.0528 75.9643 72.0497 77.2659 72.6444C78.8055 73.3474 80.4564 74.1341 82.3175 75.0509C89.9753 78.8264 98.0536 82.9302 107.013 87.5976C110.377 89.3506 114.185 91.3329 117.883 93.4111C118.903 93.9841 119.961 94.5756 120.996 95.2942L121.08 95.3499C121.451 95.5977 122.217 96.1087 122.653 97.1246C123.061 98.0755 122.876 99.175 122.18 99.9369C121.63 100.541 121.018 100.835 120.653 101.008L120.536 101.064C118.712 101.975 116.847 102.808 115.048 103.616C114.445 103.886 113.842 104.158 113.239 104.431C108.593 106.537 104.413 108.445 100.456 110.26C99.0553 110.901 97.8898 110.56 97.154 110.158C91.0821 106.844 84.9175 103.489 78.892 100.216C78.892 104.892 78.892 109.566 78.892 114.243V117.467C78.892 117.538 78.892 117.609 78.889 117.684C78.9879 118.802 78.5272 120.183 76.9413 120.883C74.8637 121.8 72.7893 122.726 70.7148 123.652C66.5443 125.514 62.2316 127.437 57.9466 129.264L57.8384 129.314C57.5385 129.45 57.0346 129.679 56.3483 129.769C56.2308 129.785 56.1164 129.794 55.9989 129.794V129.781ZM58.3609 117.557C58.3764 118.303 58.3949 119.043 58.4104 119.787C58.432 120.651 58.4506 121.515 58.4691 122.382C58.4753 122.686 58.4815 122.992 58.4846 123.296C61.876 121.828 65.2737 120.31 68.5786 118.836C70.2666 118.083 71.9515 117.331 73.6395 116.584V114.237C73.6395 108.324 73.6395 102.412 73.6395 96.499V96.468C73.624 96.1769 73.5962 95.5698 73.8744 94.8822C74.3289 93.7611 75.482 93.0952 76.6785 93.2655C77.4205 93.3708 77.9337 93.6805 78.1779 93.8323L78.2212 93.8571L78.7158 94.1265C85.3565 97.7348 92.2136 101.461 98.9687 105.149C102.725 103.427 106.691 101.619 111.072 99.6333C111.681 99.3577 112.293 99.082 112.902 98.8095C113.607 98.4936 114.321 98.1746 115.039 97.8463C111.499 95.8671 107.832 93.9562 104.589 92.2682C95.6638 87.6193 87.6226 83.5341 79.9988 79.7741C78.3077 78.941 76.7929 78.2162 75.3862 77.572C75.0307 77.7393 74.6813 77.8941 74.3382 78.0459C73.9857 78.2038 73.6302 78.3587 73.2808 78.5259C69.7132 80.2294 66.1269 82.097 62.6613 83.9027C61.233 84.646 59.8047 85.3893 58.3733 86.1265C58.3733 87.068 58.3702 88.0127 58.3671 88.9542C58.3609 91.9771 58.3547 95.1052 58.3795 98.1715C58.3918 99.6426 58.3795 101.126 58.3702 102.563C58.3516 105.314 58.33 108.157 58.4722 110.916C58.5402 112.248 58.5217 113.558 58.5062 114.828C58.5 115.336 58.4907 115.847 58.4907 116.355C58.5155 116.817 58.4598 117.216 58.3547 117.557H58.3609ZM78.8735 117.52C78.8735 117.52 78.8766 117.544 78.8797 117.557C78.8797 117.544 78.8797 117.532 78.8735 117.52Z" fill="black"/>
<path d="M122.792 154.918C123.522 154.485 124.267 154.172 125 153.84C130.472 151.378 135.947 148.925 141.422 146.469C141.809 146.296 142.201 146.132 142.578 145.933C143.33 145.54 144.078 145.546 144.857 145.862C146.001 146.327 147.092 146.903 148.18 147.482C153.668 150.393 159.134 153.342 164.695 156.111C165.088 156.306 165.743 156.616 166.142 156.798C166.569 156.99 166.652 156.993 166.699 156.6C166.776 155.959 166.829 155.312 166.863 154.664C167.085 150.455 167.113 146.243 167.132 142.031C167.144 139.767 167.19 137.503 167.2 135.239C167.2 134.923 167.385 134.638 167.673 134.508C171.781 132.662 175.887 130.803 179.986 128.933C182.138 127.951 184.271 126.938 186.417 125.944C186.615 125.851 186.809 125.733 187.082 125.755C187.174 126.303 187.218 126.861 187.233 127.418C187.326 130.738 187.375 134.059 187.372 137.382C187.363 144.694 187.36 152.007 187.366 159.316C187.366 161.748 187.279 164.176 187.23 166.607C187.227 166.83 187.171 167.053 187.193 167.273C187.27 168.032 186.853 168.422 186.241 168.772C184.098 169.992 181.937 171.182 179.754 172.328C175.853 174.372 171.939 176.388 168.041 178.438C167.691 178.621 167.274 178.624 166.924 178.438C159.795 174.712 152.663 170.996 145.525 167.292C138.958 163.885 132.413 160.441 125.939 156.86C125.089 156.389 124.251 155.9 123.414 155.411C123.21 155.29 122.984 155.191 122.792 154.909V154.918Z" fill="white"/>
<path d="M167.481 181.213C166.872 181.213 166.263 181.068 165.709 180.78C158.787 177.159 151.587 173.412 144.316 169.636C138.479 166.607 131.578 162.996 124.669 159.174C123.757 158.669 122.832 158.13 122.09 157.693L122.041 157.665C121.747 157.498 121.132 157.151 120.622 156.402C120.214 155.801 120.072 155.058 120.229 154.348C120.387 153.639 120.829 153.026 121.454 152.654C122.211 152.205 122.956 151.871 123.615 151.579L123.927 151.44C127.819 149.69 131.711 147.943 135.607 146.197L140.628 143.945C140.896 143.827 141.15 143.713 141.366 143.601C142.776 142.867 144.325 142.805 145.849 143.425C147.138 143.951 148.347 144.589 149.411 145.156C150.388 145.673 151.365 146.193 152.341 146.714C156.255 148.795 160.29 150.941 164.315 152.976C164.46 149.52 164.488 146.063 164.507 142.018C164.513 140.907 164.525 139.792 164.541 138.68C164.556 137.527 164.572 136.378 164.575 135.226C164.581 133.882 165.376 132.656 166.6 132.104C170.841 130.196 174.981 128.326 178.898 126.536C180.227 125.928 181.578 125.297 182.886 124.687C183.696 124.309 184.503 123.931 185.313 123.556L185.353 123.537C185.65 123.392 186.346 123.054 187.298 123.135C188.494 123.234 189.471 124.129 189.672 125.312C189.777 125.932 189.839 126.597 189.861 127.347C189.957 130.791 190.003 134.17 190 137.388C189.994 143.821 189.988 151.459 189.994 159.319C189.994 161.066 189.95 162.825 189.907 164.523C189.889 165.235 189.87 165.95 189.858 166.666C189.855 166.873 189.833 167.05 189.821 167.168V167.174C189.895 168.354 189.536 169.927 187.539 171.067C185.217 172.39 183.069 173.566 180.969 174.666C179.254 175.564 177.532 176.459 175.813 177.354C173.627 178.491 171.441 179.628 169.259 180.774C168.702 181.068 168.09 181.213 167.478 181.213H167.481ZM128.376 155.209C134.837 158.762 141.252 162.119 146.73 164.962C153.776 168.62 160.754 172.253 167.478 175.765C169.447 174.731 171.42 173.706 173.392 172.681C175.108 171.789 176.824 170.897 178.536 169.998C180.472 168.986 182.453 167.902 184.587 166.691C184.59 166.654 184.596 166.619 184.599 166.588L184.605 166.527C184.621 165.814 184.639 165.105 184.655 164.393C184.698 162.726 184.741 161.004 184.738 159.326C184.729 151.462 184.738 143.821 184.744 137.385C184.744 134.898 184.72 132.312 184.661 129.673C183.483 130.224 182.274 130.788 181.075 131.336C177.479 132.978 173.695 134.69 169.818 136.434C169.812 137.208 169.803 137.98 169.79 138.754C169.775 139.853 169.763 140.95 169.756 142.049C169.735 146.77 169.698 150.706 169.484 154.81C169.447 155.528 169.385 156.238 169.305 156.919C169.147 158.229 168.439 158.889 167.874 159.208C166.625 159.914 165.444 159.378 165.057 159.202C164.655 159.019 163.969 158.697 163.521 158.474C158.917 156.182 154.32 153.735 149.871 151.369C148.897 150.852 147.921 150.331 146.947 149.814C145.945 149.281 144.906 148.733 143.864 148.306C143.83 148.293 143.803 148.284 143.784 148.278C143.404 148.473 143.054 148.628 142.745 148.764L142.495 148.876L137.749 151.003C134.624 152.403 131.501 153.806 128.376 155.209ZM189.808 167.013C189.808 167.013 189.808 167.016 189.808 167.019C189.808 167.019 189.808 167.016 189.808 167.013Z" fill="black"/>
<path d="M155.866 68.8906C155.68 69.1508 155.411 69.2561 155.167 69.38C153.312 70.3277 151.414 71.1763 149.519 72.0343C143.979 74.543 138.432 77.0362 132.895 79.5512C132.469 79.7432 132.141 79.7525 131.714 79.5326C128.453 77.8322 125.173 76.1659 121.914 74.4656C121.503 74.2519 121.203 74.2704 120.801 74.478C117.855 75.9956 114.949 77.5968 111.913 78.9286C110.602 79.5016 110.809 79.514 109.82 79.0401C105.9 77.1694 101.995 75.2677 98.1245 73.2917C95.2617 71.8298 92.3958 70.368 89.5887 68.8039C89.1682 68.5685 88.7354 68.3486 88.3428 68.0265C88.5221 67.757 88.8003 67.6641 89.0353 67.5278C91.4189 66.1589 93.8458 64.8674 96.2727 63.5789C102.273 60.4012 108.283 57.2421 114.327 54.1449C116.504 53.0299 118.693 51.9427 120.863 50.8154C121.324 50.5769 121.71 50.5769 122.168 50.7999C123.695 51.5463 125.16 52.4011 126.66 53.194C132.664 56.3655 138.667 59.5402 144.665 62.7241C148.146 64.5731 151.637 66.4005 155.071 68.3331C155.346 68.488 155.649 68.6088 155.869 68.8906H155.866Z" fill="white"/>
<path d="M132.305 82.3293C131.696 82.3293 131.09 82.1745 130.496 81.8648C128.855 81.0068 127.207 80.1613 125.562 79.3127C124.162 78.591 122.761 77.8694 121.361 77.1446C120.903 77.3831 120.449 77.6216 119.991 77.8601C117.725 79.0463 115.385 80.2728 112.958 81.3351L112.621 81.4838C111.233 82.1032 110.404 82.2426 108.855 81.4962L108.679 81.4126C104.067 79.2105 100.332 77.3738 96.9219 75.6332L96.891 75.6177C94.0622 74.1744 91.1407 72.6816 88.2995 71.0989L88.1295 71.006C87.709 70.7737 87.1865 70.4857 86.661 70.052C85.6191 69.191 85.3996 67.6796 86.1509 66.5553C86.6702 65.781 87.3411 65.4341 87.6657 65.2669L87.7276 65.2359C90.1297 63.8577 92.5566 62.563 95.036 61.2467C102.311 57.3938 107.888 54.4793 113.122 51.7972C114.006 51.345 114.89 50.8959 115.774 50.4499C117.048 49.8057 118.362 49.1398 119.642 48.4739C120.832 47.8544 122.1 47.839 123.308 48.4305C124.335 48.9323 125.324 49.4743 126.283 49.9977C126.814 50.2888 127.343 50.58 127.878 50.8618C133.65 53.9126 139.796 57.1584 145.886 60.395L147.611 61.3087C150.483 62.8294 153.454 64.4059 156.351 66.0319L156.45 66.0845C156.787 66.2642 157.415 66.5956 157.94 67.2739C158.651 68.1968 158.673 69.476 157.993 70.4237C157.449 71.1794 156.756 71.5201 156.425 71.6843L156.354 71.7183C154.617 72.6072 152.839 73.4125 151.117 74.1899L150.592 74.4284C148.325 75.4536 146.056 76.4787 143.79 77.5008C140.516 78.9782 137.242 80.4555 133.971 81.9422C133.412 82.1962 132.852 82.3231 132.299 82.3231L132.305 82.3293ZM121.373 71.675C121.961 71.675 122.545 71.8267 123.126 72.1272C124.737 72.9665 126.351 73.7966 127.967 74.6297C129.436 75.3854 130.901 76.138 132.364 76.9C135.455 75.4969 138.547 74.1001 141.642 72.7032C143.908 71.6812 146.174 70.6591 148.437 69.6308L148.965 69.3923C149.435 69.1786 149.908 68.9649 150.384 68.7481C148.638 67.8035 146.882 66.8712 145.163 65.9607L143.435 65.0439C137.347 61.8104 131.204 58.5645 125.435 55.5169C124.876 55.2227 124.323 54.9191 123.769 54.6125C123.006 54.1944 122.276 53.7949 121.54 53.4201C120.405 54.0055 119.265 54.5846 118.155 55.1452C117.277 55.5881 116.399 56.0341 115.524 56.4801C110.312 59.1499 104.753 62.0551 97.5 65.8956C96.1861 66.5925 94.8876 67.2832 93.6046 67.98C95.4967 68.9866 97.4135 69.9653 99.2869 70.9193L99.3148 70.9348C102.629 72.6258 106.268 74.416 110.744 76.5531L110.859 76.5035C113.116 75.5124 115.379 74.3293 117.564 73.1864C118.241 72.8302 118.918 72.4772 119.599 72.1272C120.192 71.8205 120.786 71.6688 121.376 71.6688L121.373 71.675Z" fill="black"/>
</g>
<defs>
<clipPath id="clip0_583_4">
<rect width="137" height="157" fill="white" transform="translate(53 48)"/>
</clipPath>
</defs>
</svg>
