<svg width="242" height="246" viewBox="0 0 242 246" fill="none" xmlns="http://www.w3.org/2000/svg">
<path d="M120.529 0.104132C137.988 1.43239 159.082 4.54273 178.92 13.3424C200.091 22.7399 216.526 37.3839 226.439 58.6581C234.304 75.5492 239.217 93.3699 241.398 111.91C243.414 129.045 240.098 145.504 235.461 161.919C232.057 173.984 227.706 185.518 221.108 196.177C211.106 212.338 198.274 225.498 180.947 233.678C150.149 248.223 118.117 248.267 85.4023 242.146C72.1511 239.666 62.3587 231.387 51.3877 224.712C32.3426 213.123 22.6493 194.495 12.5264 175.999C6.14867 164.354 1.5554 152.223 0.354751 138.708C-0.746758 126.344 0.784347 114.445 4.01177 102.701C7.9772 88.234 12.5705 73.9774 18.8821 60.2853C25.8657 45.1431 35.8344 32.7461 49.7244 23.5036C58.5144 17.6593 67.3375 11.8813 77.0968 7.76375C89.7091 2.43965 102.773 -0.648548 120.518 0.1152L120.529 0.104132Z" fill="black"/>
<path d="M121.457 239.786C135.289 240.242 147.782 238.186 160.163 235.096C181.25 229.827 198.006 218.101 210.986 200.773C220.754 187.747 225.87 172.742 230.666 157.303C241.375 122.814 234.985 90.2805 220.156 59.0812C208.095 33.6949 185.824 20.0459 159.444 12.7768C146.829 9.29783 133.85 7.89736 120.87 6.35239C112.021 5.29648 103.682 6.8081 95.1873 8.31972C82.263 10.6205 71.3433 17.3894 60.1577 23.7249C39.0047 35.7067 26.324 54.1907 18.5605 76.6982C15.2602 86.2792 12.4583 96.0047 9.65637 105.741C5.73588 119.346 4.84989 132.884 7.5743 146.744C10.3652 160.926 17.5195 173.253 24.6185 185.435C32.4816 198.928 40.821 212.221 55.4509 219.857C62.5831 223.581 67.7661 230.794 75.7067 232.917C90.99 237.007 106.384 240.92 121.446 239.808L121.457 239.786Z" fill="black"/>
<path d="M91.3049 90.96C89.9609 89.456 88.2169 88.704 86.0729 88.704C84.9209 88.704 84.1209 88.864 83.6729 89.184C83.2569 89.472 83.0489 90.16 83.0489 91.248C83.0489 92.784 83.8009 97.088 85.3049 104.16C85.5609 105.44 86.1369 106.08 87.0329 106.08C88.0249 106.08 89.3369 105.264 90.9689 103.632C92.7289 101.872 93.6089 99.696 93.6089 97.104C93.6089 94.672 92.8409 92.624 91.3049 90.96ZM77.9609 82.224C79.6889 81.36 82.0569 80.928 85.0649 80.928C89.5449 80.928 92.8569 81.712 95.0009 83.28C96.9849 84.688 98.5369 86.64 99.6569 89.136C100.777 91.632 101.337 94.256 101.337 97.008C101.337 99.856 100.761 102.432 99.6089 104.736C98.2969 107.52 96.0889 109.904 92.9849 111.888C89.8809 113.84 86.9849 114.816 84.2969 114.816C82.4409 114.816 81.0329 114.288 80.0729 113.232C79.3049 112.368 78.1849 108.448 76.7129 101.472C75.2729 94.464 74.5529 89.6 74.5529 86.88C74.5529 86.496 74.5849 86.144 74.6489 85.824C74.7769 85.216 75.1609 84.56 75.8009 83.856C76.4409 83.152 77.1609 82.608 77.9609 82.224ZM111.371 82.656C113.611 81.632 115.691 81.12 117.611 81.12C119.499 81.12 120.795 81.664 121.499 82.752C121.787 83.232 121.931 83.744 121.931 84.288C121.931 85.888 120.923 87.216 118.907 88.272C117.915 88.816 117.419 89.808 117.419 91.248C117.419 91.696 117.435 92.064 117.467 92.352C117.595 94.496 118.059 95.568 118.859 95.568C119.339 95.568 120.075 95.248 121.067 94.608C121.579 94.256 122.315 94.08 123.275 94.08C123.691 94.08 123.979 94.112 124.139 94.176C125.611 94.784 126.347 95.92 126.347 97.584C126.347 98.608 126.043 99.6 125.435 100.56C124.827 101.52 123.979 102.224 122.891 102.672C121.227 103.344 120.395 104.128 120.395 105.024C120.395 105.792 121.083 106.512 122.459 107.184C123.259 107.536 123.963 107.712 124.571 107.712C125.275 107.712 126.171 107.488 127.259 107.04C128.155 106.688 128.907 106.512 129.515 106.512C131.243 106.512 132.299 107.84 132.683 110.496C132.683 110.528 132.683 110.592 132.683 110.688C132.715 110.784 132.731 110.848 132.731 110.88C132.731 112.256 131.883 113.36 130.187 114.192C128.523 115.024 126.539 115.44 124.235 115.44C121.227 115.44 118.779 114.752 116.891 113.376C115.291 112.192 113.963 110.432 112.907 108.096C111.883 105.728 111.003 102.464 110.267 98.304C109.915 96.32 109.467 94.464 108.923 92.736C108.379 91.008 107.915 89.92 107.531 89.472C106.891 88.8 106.571 88.08 106.571 87.312C106.571 85.648 108.171 84.096 111.371 82.656ZM139.895 84.144C140.631 83.6 141.335 83.328 142.007 83.328C142.807 83.328 143.607 83.744 144.407 84.576C145.207 85.376 146.135 86.688 147.191 88.512C147.863 89.6 148.519 90.544 149.159 91.344C149.799 92.112 150.231 92.496 150.455 92.496C151.063 92.496 152.791 91.008 155.639 88.032C158.455 85.024 160.823 83.52 162.743 83.52C163.959 83.52 164.871 84.112 165.479 85.296C166.087 86.64 166.391 87.408 166.391 87.6C166.391 87.984 164.423 90.208 160.487 94.272L154.631 100.416L157.463 104.496C159.223 107.088 160.103 109.168 160.103 110.736C160.103 112.496 159.031 113.472 156.887 113.664C156.631 113.696 156.279 113.712 155.831 113.712C154.999 113.712 154.311 113.488 153.767 113.04C153.223 112.592 152.503 111.664 151.607 110.256C150.167 108.144 149.079 107.088 148.343 107.088C147.703 107.088 147.047 107.792 146.375 109.2C145.639 110.896 144.471 111.744 142.871 111.744C142.135 111.744 141.383 111.552 140.615 111.168C139.431 110.528 138.839 109.424 138.839 107.856C138.839 106.64 139.271 105.664 140.135 104.928C141.031 104.16 141.479 103.488 141.479 102.912C141.479 102.336 141.959 101.504 142.919 100.416C143.431 99.84 143.687 99.328 143.687 98.88C143.687 98.176 142.839 96.576 141.143 94.08C139.095 91.04 138.071 88.752 138.071 87.216C138.071 86 138.679 84.976 139.895 84.144ZM59.9774 130.552C65.6094 130.264 69.2094 130.12 70.7774 130.12C73.4974 130.12 75.3214 130.328 76.2494 130.744C77.2094 131.16 77.6894 131.928 77.6894 133.048C77.6894 133.464 77.6414 133.96 77.5454 134.536C77.4174 135.464 76.9374 136.168 76.1054 136.648C75.2734 137.128 73.5294 137.736 70.8734 138.472C70.3934 138.6 70.1534 140.024 70.1534 142.744C70.1534 144.76 70.2174 147.128 70.3454 149.848C70.4734 153.304 70.5374 155.448 70.5374 156.28C70.5374 159.352 70.2654 161.368 69.7214 162.328C69.1774 163.256 68.1214 163.72 66.5534 163.72C66.0094 163.72 65.4654 163.608 64.9214 163.384C64.3774 163.16 63.9934 162.888 63.7694 162.568C63.3534 161.928 62.8254 157.864 62.1854 150.376L61.2734 139.288L58.2014 139C56.4414 138.84 54.9534 138.312 53.7374 137.416C52.5534 136.52 51.9614 135.512 51.9614 134.392C51.9614 133.144 52.5374 132.232 53.6894 131.656C54.8734 131.08 56.9694 130.712 59.9774 130.552ZM97.1996 140.344C96.1756 139.416 95.4716 138.952 95.0876 138.952C94.7036 138.952 94.0636 139.448 93.1676 140.44C91.3436 142.456 90.4316 144.6 90.4316 146.872C90.4316 148.12 90.7356 149.192 91.3436 150.088C91.9516 150.952 92.8316 151.528 93.9836 151.816C94.4636 151.944 94.9116 152.008 95.3276 152.008C96.2556 152.008 97.0236 151.608 97.6316 150.808C98.4316 149.688 98.8316 148.024 98.8316 145.816C98.8316 143.096 98.2876 141.272 97.1996 140.344ZM87.2156 135.16C88.6876 133.592 89.8396 132.632 90.6716 132.28C91.5036 131.896 92.9276 131.704 94.9436 131.704C98.7516 131.704 101.68 132.936 103.728 135.4C105.776 137.832 106.8 141.336 106.8 145.912C106.8 148.952 106.176 151.672 104.928 154.072C103.712 156.472 102.112 158.088 100.128 158.92C98.2716 159.688 96.7996 160.072 95.7116 160.072C94.4636 160.072 92.6396 159.48 90.2396 158.296C87.9356 157.176 86.1436 155.496 84.8636 153.256C83.5836 150.984 82.9436 148.52 82.9436 145.864C82.9436 141.672 84.3676 138.104 87.2156 135.16ZM126.168 140.344C125.144 139.416 124.44 138.952 124.056 138.952C123.672 138.952 123.032 139.448 122.136 140.44C120.312 142.456 119.4 144.6 119.4 146.872C119.4 148.12 119.704 149.192 120.312 150.088C120.92 150.952 121.8 151.528 122.952 151.816C123.432 151.944 123.88 152.008 124.296 152.008C125.224 152.008 125.992 151.608 126.6 150.808C127.4 149.688 127.8 148.024 127.8 145.816C127.8 143.096 127.256 141.272 126.168 140.344ZM116.184 135.16C117.656 133.592 118.808 132.632 119.64 132.28C120.472 131.896 121.896 131.704 123.912 131.704C127.72 131.704 130.648 132.936 132.696 135.4C134.744 137.832 135.768 141.336 135.768 145.912C135.768 148.952 135.144 151.672 133.896 154.072C132.68 156.472 131.08 158.088 129.096 158.92C127.24 159.688 125.768 160.072 124.68 160.072C123.432 160.072 121.608 159.48 119.208 158.296C116.904 157.176 115.112 155.496 113.832 153.256C112.552 150.984 111.912 148.52 111.912 145.864C111.912 141.672 113.336 138.104 116.184 135.16ZM141.889 130.984C142.593 130.28 143.601 129.928 144.913 129.928C146.225 129.928 147.137 130.28 147.649 130.984C148.065 131.752 148.449 135.704 148.801 142.84L149.233 153.496L155.041 153.736C158.209 153.896 160.337 154.264 161.425 154.84C162.513 155.384 163.057 156.408 163.057 157.912C163.057 159.32 162.529 160.376 161.473 161.08C160.449 161.752 158.625 162.248 156.001 162.568C155.233 162.664 154.481 162.712 153.745 162.712C151.121 162.712 148.721 162.232 146.545 161.272C144.369 160.28 142.897 159.016 142.129 157.48C141.201 155.688 140.737 150.648 140.737 142.36C140.737 135.544 141.121 131.752 141.889 130.984ZM174.014 131.608C175.806 130.52 177.79 129.976 179.966 129.976C181.406 129.976 182.494 130.232 183.23 130.744C183.87 131.128 184.19 131.976 184.19 133.288C184.19 133.608 184.174 133.848 184.142 134.008C184.046 135.032 183.758 135.784 183.278 136.264C182.83 136.712 181.982 137.144 180.734 137.56C178.622 138.264 177.566 138.936 177.566 139.576C177.566 140.184 178.59 140.792 180.638 141.4C183.134 142.136 185.166 143.56 186.734 145.672C188.334 147.784 189.134 150.056 189.134 152.488C189.134 153.736 188.894 154.952 188.414 156.136C186.526 160.456 183.006 162.616 177.854 162.616C177.278 162.616 176.846 162.6 176.558 162.568C173.934 162.408 171.902 161.832 170.462 160.84C169.022 159.848 168.302 158.552 168.302 156.952C168.302 155.896 168.622 155.08 169.262 154.504C169.902 153.928 170.798 153.64 171.95 153.64C172.846 153.64 173.79 153.8 174.782 154.12C175.87 154.472 176.894 154.648 177.854 154.648C179.774 154.648 180.734 153.816 180.734 152.152C180.734 151 179.934 150.088 178.334 149.416C174.878 148.072 172.59 147.048 171.47 146.344C170.382 145.608 169.598 144.664 169.118 143.512C168.862 142.84 168.734 142.136 168.734 141.4C168.734 139.64 169.246 137.8 170.27 135.88C171.294 133.928 172.542 132.504 174.014 131.608Z" fill="#F5F5F5"/>
</svg>
