<svg width="127" height="129" viewBox="0 0 127 129" fill="none" xmlns="http://www.w3.org/2000/svg">
<path d="M52.0678 2.89014C64.5875 2.87849 77.1305 3.92106 89.5977 1.91164C95.63 0.93897 101.616 -0.418112 107.794 0.123556C113.074 0.589507 117.764 2.40672 121.416 6.37312C122.816 7.89329 123.621 9.73379 123.849 11.848C125.687 28.8494 126.095 45.8858 125.477 62.9629C125.115 72.9575 126.369 82.9114 126.223 92.9002C126.147 98.3052 126.725 103.769 124.951 109.04C122.77 115.522 120.226 121.859 113.727 125.231C108.634 127.87 102.917 128.167 97.2927 128.429C76.5062 129.39 55.7315 129.14 34.9684 127.666C28.096 127.177 21.1886 127.025 14.357 126.082C7.50794 125.132 3.5 120.822 1.27726 114.52C-0.52544 109.401 -0.0878936 104.153 0.583012 98.9925C2.05901 87.6058 2.47905 76.2425 1.76147 64.7626C1.04972 53.3526 -0.251241 41.9485 0.349657 30.4861C0.798873 21.8776 3.33664 14.0322 9.33396 7.538C13.1902 3.36774 18.1899 2.27858 23.5222 2.25528C33.0432 2.22034 42.5642 2.15044 52.0736 2.88431L52.0678 2.89014Z" fill="black"/>
<path d="M4.32335 24.0139C3.01715 34.8594 3.83936 45.6934 4.60326 56.5098C5.5071 69.2755 6.10189 82.0178 4.3875 94.766C3.8452 98.7924 3.10462 102.883 3.33787 106.897C3.89767 116.312 7.45473 122.409 18.1084 123.061C24.0096 123.422 29.9225 123.701 35.8295 124.161C58.3089 125.906 80.8291 126.43 103.326 124.376C109.711 123.794 115.449 121.589 118.528 115.346C121.245 109.836 122.925 104.07 122.96 97.809C123.024 85.9802 121.519 74.2153 121.852 62.3748C122.301 46.3916 122.114 30.4142 120.697 14.4658C120.307 10.0846 118.283 7.22189 114.295 5.3309C107.898 2.2995 101.326 3.23044 94.8824 4.42904C85.1734 6.23857 75.3886 6.66914 65.6096 6.38985C51.6321 5.9942 37.6547 5.76146 23.6714 5.62182C18.9014 5.57527 14.6505 6.62841 11.1925 10.0671C9.79305 10.1893 9.65894 11.2541 9.50732 12.3072C9.40236 12.4876 9.30323 12.6679 9.19827 12.8483C8.40522 12.889 8.20695 13.3487 8.3294 14.0469C8.2361 14.2273 8.14864 14.4135 8.05534 14.5938C7.28561 14.6811 7.06403 15.1408 7.20398 15.8448C7.06403 16.1881 6.92408 16.5314 6.78413 16.8747C5.6762 17.6427 5.48376 18.7715 5.55957 20.005C5.3788 20.709 5.19804 21.4072 5.01727 22.1113C3.9968 22.4545 4.13675 23.2226 4.32335 24.0081V24.0139Z" fill="#242527"/>
<path d="M121.858 62.3776C122.307 46.3936 122.12 30.4154 120.703 14.4664C120.312 10.0849 118.289 7.22207 114.3 5.33099C107.904 2.29945 101.332 3.23044 94.8882 4.4291C85.1792 6.23871 75.3944 6.6693 65.6154 6.39C51.638 5.99433 37.6605 5.76158 23.6772 5.62193C18.9072 5.57538 14.6563 6.62857 11.1984 10.0674C10.9476 11.0508 10.3937 11.8014 9.50731 12.3076C9.40235 12.488 9.30322 12.6684 9.19825 12.8488C9.27989 13.5179 9.02915 13.9427 8.32941 14.0474C8.23611 14.2278 8.14864 14.414 8.05534 14.5944C8.18946 15.2984 7.84541 15.6708 7.19814 15.8454C7.0582 16.1887 6.91825 16.532 6.7783 16.8753C6.80162 18.0856 6.44591 19.1504 5.55373 20.0058C5.37296 20.704 5.19219 21.4081 5.01725 22.1121C5.25633 22.9209 5.21553 23.6192 4.32335 24.009C3.01715 34.8551 3.83935 45.6895 4.60324 56.5065C5.50708 69.2728 6.10187 82.0157 4.38749 94.7645C3.84518 98.7911 3.10462 102.882 3.33787 106.897C3.89767 116.311 7.45471 122.409 18.1084 123.061C24.0096 123.422 29.9225 123.701 35.8295 124.161C58.3089 125.906 80.8291 126.43 103.326 124.376C109.711 123.794 115.449 121.589 118.528 115.345C121.245 109.835 122.925 104.069 122.96 97.8077C123.024 85.9783 121.519 74.2129 121.852 62.3718L121.858 62.3776Z" fill="#95FFFD"/>
<g clip-path="url(#clip0_583_13)">
<path d="M19.5276 66.2464C19.5276 59.7199 19.5215 53.1935 19.5276 46.6639C19.5307 43.5994 20.9152 41.3602 23.6904 40.1683C26.4231 38.9917 29.0279 39.4814 31.1549 41.5543C35.6282 45.9032 40.007 50.3537 44.4255 54.7612C45.8831 56.2149 47.362 57.6502 48.7922 59.1317C49.3917 59.7538 49.7355 59.6429 50.2133 58.9746C54.2027 53.4275 58.2286 47.9082 62.2301 42.3705C63.5356 40.5656 65.2884 39.6416 67.4732 39.6385C78.3855 39.6231 89.2946 39.6231 100.207 39.6385C103.673 39.6416 106.442 42.3982 106.479 45.8139C106.518 49.2727 103.801 52.1771 100.323 52.214C94.4252 52.2756 88.5248 52.2356 82.6274 52.2387C82.384 52.2387 82.1314 52.2048 81.8971 52.2479C81.6445 52.2972 81.2368 52.3773 81.1972 52.5251C81.1333 52.7623 81.2429 53.1319 81.4102 53.3321C83.096 55.371 84.8123 57.3822 86.5073 59.4181C87.2924 60.3636 88.1413 61.2753 88.7865 62.3133C90.4845 65.0421 90.3536 67.8387 88.327 70.4167C86.1421 73.1948 83.8203 75.8651 81.5776 78.5971C81.3676 78.8527 81.2915 79.2223 81.1546 79.5395C81.4772 79.6473 81.8028 79.8537 82.1253 79.8537C88.0227 79.8722 93.9231 79.829 99.8204 79.903C100.913 79.9153 102.078 80.1925 103.07 80.6514C105.639 81.8403 106.768 84.1903 106.311 86.9561C105.873 89.6079 103.7 91.7793 101.12 92.1212C100.606 92.189 100.085 92.2013 99.5648 92.2013C90.2745 92.2074 80.9812 92.2013 71.6908 92.2074C69.7951 92.2074 67.9053 92.2567 66.0795 91.5976C62.8966 90.4457 61.3598 87.2364 62.7627 84.141C63.5812 82.3331 64.7132 80.6483 65.8635 79.0252C68.7483 74.9565 71.7122 70.9464 74.676 66.9394C75.1903 66.2433 75.1873 65.7905 74.6 65.113C72.3755 62.5658 70.2241 59.9509 68.0453 57.3607C67.3028 56.4798 67.1598 56.4829 66.4782 57.4007C62.5983 62.6428 58.6242 67.8202 54.8752 73.1578C52.5047 76.5335 47.6176 76.0253 45.4327 73.7954C41.9059 70.1918 38.3243 66.6437 34.7457 63.0925C34.3379 62.689 33.7902 62.4272 33.3063 62.1007C33.1846 62.6705 32.9564 63.2403 32.9564 63.8101C32.9321 70.8325 32.9564 77.8548 32.9351 84.8771C32.9229 88.6039 30.449 91.69 27.0225 92.3399C23.1062 93.0791 19.552 90.1346 19.5428 86.0999C19.5246 79.481 19.5367 72.8591 19.5367 66.2402L19.5276 66.2464Z" fill="white"/>
<path d="M25.8082 94.0002C23.9885 94.0002 22.2296 93.3719 20.8177 92.1892C19.0406 90.6985 18.0151 88.4809 18.009 86.1124C17.9968 81.4924 17.9998 76.7986 17.9998 72.2556C17.9998 70.2536 17.9998 68.2486 17.9998 66.2466V60.561C17.9998 55.9287 17.9998 51.2964 17.9998 46.6611C18.012 42.9189 19.7709 40.1839 23.0969 38.7517C26.3925 37.3349 29.6302 37.9355 32.2107 40.4457C35.3846 43.5318 38.5584 46.7165 41.6258 49.7934C42.913 51.0839 44.2032 52.3775 45.4934 53.6649C45.9225 54.093 46.3546 54.5181 46.7837 54.9462C47.6357 55.7901 48.509 56.6556 49.3702 57.5334C51.6707 54.3394 54.0108 51.1085 56.2778 47.9824C57.8541 45.811 59.4274 43.6365 61.0006 41.4621C62.586 39.2661 64.8226 38.1049 67.47 38.0988C78.1875 38.0834 89.2001 38.0834 100.207 38.0988C104.455 38.1049 107.951 41.5576 107.997 45.7987C108.021 47.8869 107.242 49.8642 105.809 51.3673C104.36 52.8857 102.416 53.7327 100.331 53.7542C96.1717 53.7974 91.9449 53.7912 87.8612 53.785C86.4949 53.785 85.1286 53.782 83.7592 53.7789C84.3222 54.4503 84.8852 55.1187 85.4359 55.7747C86.1784 56.6587 86.924 57.5426 87.6634 58.4296C87.8369 58.6391 88.0134 58.8454 88.1899 59.0518C88.838 59.8095 89.5075 60.5949 90.0674 61.4973C92.1245 64.799 91.9267 68.3102 89.5136 71.3809C88.1107 73.1642 86.6379 74.9229 85.2108 76.623C84.736 77.1897 84.2613 77.7564 83.7866 78.3232C85.3081 78.3232 86.8266 78.3232 88.3481 78.3232C92.1093 78.3232 96.0013 78.3201 99.8294 78.3663C101.117 78.3817 102.489 78.6958 103.694 79.2533C106.85 80.7132 108.386 83.6885 107.802 87.2119C107.254 90.5168 104.522 93.224 101.305 93.6522C100.681 93.7353 100.07 93.7446 99.5555 93.7476C90.2652 93.7538 80.9749 93.7476 71.6815 93.7538H71.3346C69.4632 93.76 67.5187 93.763 65.556 93.0516C63.5293 92.3185 61.9896 90.8956 61.2197 89.0476C60.4894 87.2951 60.5411 85.327 61.3657 83.5037C62.236 81.5787 63.4411 79.7861 64.6157 78.1322C67.5644 73.9742 70.6621 69.7855 73.4008 66.0834C71.8337 64.2877 70.2848 62.4336 68.7846 60.6411C68.2886 60.0466 67.7895 59.4522 67.2905 58.8608C66.2832 60.2191 65.2669 61.5774 64.2536 62.9325C61.5422 66.5546 58.7396 70.3029 56.1013 74.0574C54.8537 75.8345 52.9305 76.9125 50.6878 77.0973C48.2991 77.2944 45.8647 76.4475 44.3371 74.8828C41.0811 71.5565 37.7246 68.2209 34.4564 64.9807C34.4473 68.2886 34.4473 71.5965 34.4473 74.9044C34.4473 78.2123 34.4473 81.5571 34.4382 84.8835C34.426 89.3002 31.4165 93.0731 27.2841 93.8554C26.7911 93.9478 26.2951 93.994 25.8021 93.994L25.8082 94.0002ZM21.0459 66.2466C21.0459 68.2517 21.0459 70.2536 21.0459 72.2587C21.0459 76.7955 21.0398 81.4894 21.052 86.1032C21.055 87.5569 21.6788 88.9121 22.7591 89.8176C23.8516 90.7324 25.3 91.105 26.7302 90.834C29.472 90.3166 31.3921 87.868 31.4013 84.8804C31.4104 81.5571 31.4104 78.2338 31.4104 74.9105C31.4104 71.2115 31.4104 67.5125 31.4226 63.8134C31.4226 63.219 31.5656 62.6985 31.6903 62.2426C31.7329 62.0886 31.7755 61.9377 31.809 61.7837L32.2837 59.5723L34.14 60.8289C34.2739 60.9182 34.4108 61.0014 34.5508 61.0846C34.9464 61.3248 35.3937 61.5958 35.8014 61.9993L35.9049 62.101C39.3952 65.5628 43.0042 69.1418 46.5067 72.7176C47.3923 73.6231 48.9777 74.1498 50.4505 74.0297C51.3938 73.9527 52.7084 73.5831 53.6304 72.2741C56.2961 68.4796 59.1139 64.7159 61.8374 61.0722C62.9785 59.5446 64.1227 58.0169 65.2578 56.4831C65.6351 55.9718 66.2041 55.2018 67.184 55.171C68.1669 55.1402 68.7633 55.8486 69.1985 56.3661C69.8375 57.1268 70.4765 57.8876 71.1155 58.6514C72.6218 60.4501 74.1768 62.3073 75.7379 64.0999C76.7938 65.3103 76.8455 66.5762 75.8931 67.8667C73.1513 71.5719 70.0475 75.7729 67.0988 79.9278C65.8481 81.6926 64.8652 83.1957 64.144 84.788C63.6724 85.829 63.6358 86.8885 64.0345 87.8526C64.4696 88.8967 65.3764 89.716 66.5906 90.1533C68.0543 90.6831 69.6488 90.68 71.3377 90.6738H71.6876C80.9779 90.6646 90.2713 90.6708 99.5616 90.6646C99.9815 90.6646 100.468 90.6554 100.919 90.5968C102.839 90.3412 104.476 88.7057 104.808 86.7038C105.161 84.5755 104.318 82.9246 102.437 82.0561C101.622 81.6803 100.66 81.4555 99.802 81.4462C95.9891 81.4 92.1093 81.4031 88.3572 81.4031C86.2789 81.4031 84.2005 81.4031 82.1191 81.397C81.5896 81.397 81.1727 81.2152 80.8653 81.0828C80.8014 81.0551 80.7345 81.0243 80.6706 81.0027L79.0852 80.4668L79.7607 78.9176C79.7912 78.8498 79.8155 78.779 79.8399 78.7082C79.9464 78.4094 80.0924 77.9967 80.4058 77.6117C81.2275 76.6107 82.0612 75.6159 82.895 74.6241C84.307 72.9424 85.7646 71.2023 87.137 69.4559C88.7498 67.4016 88.8685 65.3349 87.4991 63.1327C87.0609 62.4274 86.4919 61.7622 85.8924 61.0599C85.7068 60.8443 85.5242 60.6287 85.3416 60.4101C84.6052 59.5261 83.8658 58.6483 83.1263 57.7674C82.1769 56.6402 81.197 55.4759 80.2415 54.3179C79.8277 53.8158 79.5082 52.9411 79.7273 52.1188C80.0163 51.0408 81.0905 50.8314 81.6078 50.7297C81.9487 50.665 82.2469 50.6774 82.469 50.6866C82.5207 50.6866 82.5755 50.6928 82.6272 50.6928C84.3739 50.6928 86.1237 50.6928 87.8734 50.6989C91.951 50.7051 96.1656 50.7112 100.307 50.6681C101.57 50.6558 102.748 50.1414 103.627 49.2205C104.5 48.3058 104.975 47.0984 104.96 45.8233C104.932 43.2177 102.845 41.1726 100.207 41.1695C89.2032 41.1541 78.1936 41.1572 67.4792 41.1695C65.7964 41.1695 64.4818 41.8594 63.4624 43.27C61.8891 45.4476 60.3129 47.6189 58.7366 49.7934C56.3417 53.0951 53.8678 56.5077 51.4486 59.8711C51.2295 60.1791 50.6422 60.9922 49.6289 61.0661C48.6125 61.14 47.9339 60.4316 47.7087 60.1975C46.7137 59.1657 45.6699 58.134 44.6627 57.136C44.2275 56.7079 43.7954 56.2767 43.3633 55.8455C42.07 54.555 40.7798 53.2614 39.4896 51.9679C36.4283 48.8971 33.2636 45.7217 30.108 42.654C28.4161 41.0062 26.4564 40.6428 24.2928 41.576C22.117 42.5124 21.0611 44.1725 21.0581 46.6549C21.052 51.2872 21.055 55.9164 21.055 60.5487V66.2343L21.0459 66.2466Z" fill="black"/>
</g>
<defs>
<clipPath id="clip0_583_13">
<rect width="90" height="56" fill="white" transform="translate(18 38)"/>
</clipPath>
</defs>
</svg>
