<svg width="236" height="230" viewBox="0 0 236 230" fill="none" xmlns="http://www.w3.org/2000/svg">
<path d="M230.713 94.8521C230.734 117.659 228.827 140.509 232.503 163.221C234.282 174.21 236.765 185.114 235.774 196.369C234.922 205.987 231.597 214.531 224.341 221.184C221.56 223.735 218.192 225.202 214.324 225.616C183.221 228.964 152.054 229.708 120.812 228.581C102.527 227.922 84.3172 230.207 66.043 229.942C56.1548 229.804 46.1599 230.856 36.5167 227.625C24.6572 223.65 13.064 219.016 6.89454 207.177C2.06762 197.899 1.52419 187.484 1.0447 177.239C-0.713446 139.372 -0.255269 101.526 2.44056 63.7021C3.33563 51.1826 3.61267 38.5994 5.33885 26.1542C7.0757 13.6772 14.9607 6.37595 26.4899 2.32677C35.8561 -0.957205 45.4567 -0.160125 54.8974 1.06207C75.7289 3.7509 96.5177 4.51608 117.52 3.20887C138.394 1.91228 159.257 -0.457691 180.227 0.63697C195.976 1.45531 210.329 6.07838 222.21 17.0037C229.839 24.0287 231.831 33.1367 231.874 42.8505C231.938 60.195 232.066 77.5395 230.723 94.8628L230.713 94.8521Z" fill="black"/>
<path d="M192.085 7.87572C172.239 5.49621 152.414 6.99403 132.621 8.38562C109.262 10.0321 85.9447 11.1157 62.6172 7.99258C55.2495 7.00466 47.7646 5.65554 40.4182 6.08046C23.1914 7.10024 12.0333 13.5802 10.8408 32.988C10.1807 43.7383 9.66966 54.5097 8.82855 65.2706C5.63446 106.221 4.67622 147.247 8.43459 188.229C9.4993 199.861 13.5345 210.314 24.9587 215.923C35.0414 220.873 45.5926 223.933 57.0488 223.996C78.6941 224.113 100.222 221.373 121.889 221.978C151.136 222.796 180.373 222.456 209.556 219.875C217.574 219.163 222.812 215.477 226.272 208.211C231.819 196.558 230.116 184.586 227.922 172.848C224.611 155.161 223.823 137.336 224.334 119.521C225.058 94.0584 225.484 68.5956 225.74 43.1221C225.825 34.4327 223.898 26.6887 217.606 20.3894C217.382 17.8399 215.434 17.5956 213.506 17.3194C213.176 17.1282 212.846 16.9476 212.516 16.7564C212.442 15.3117 211.601 14.9505 210.323 15.1736C209.993 15.0036 209.652 14.8443 209.322 14.6743C209.162 13.2721 208.321 12.8684 207.033 13.1234C206.405 12.8684 205.777 12.6135 205.149 12.3585C203.743 10.3402 201.678 9.98965 199.42 10.1277C198.132 9.79844 196.855 9.46914 195.566 9.13983C194.938 7.28084 193.533 7.53579 192.095 7.87572L192.085 7.87572Z" fill="black"/>
<path d="M65.5114 95.312C67.1114 94.576 68.6954 94.208 70.2634 94.208C71.6714 94.208 72.7914 94.544 73.6234 95.216C74.4554 95.856 74.8714 96.768 74.8714 97.952C74.8714 99.2 74.4874 100.16 73.7194 100.832C72.9834 101.472 71.7034 102 69.8794 102.416C65.4314 103.376 62.9994 106.656 62.5834 112.256C62.5514 112.672 62.5354 113.248 62.5354 113.984C62.5354 116.288 62.9514 117.984 63.7834 119.072C64.6474 120.16 65.9914 120.704 67.8154 120.704C69.8634 120.704 70.8874 120.288 70.8874 119.456C70.8874 119.04 70.5834 118.576 69.9754 118.064C69.0474 117.328 68.5834 116.384 68.5834 115.232C68.5834 114.048 69.0794 112.928 70.0714 111.872C71.0954 110.784 72.4234 110.032 74.0554 109.616C74.4394 109.52 74.8394 109.472 75.2554 109.472C76.6634 109.472 77.8954 110.096 78.9514 111.344C80.0074 112.56 80.7434 114.288 81.1594 116.528C81.4154 117.968 81.5434 119.104 81.5434 119.936C81.5434 121.408 81.1594 122.608 80.3914 123.536C79.6234 124.432 78.2154 125.44 76.1674 126.56C73.1914 128.16 70.2954 128.96 67.4794 128.96C63.8954 128.96 60.9194 127.696 58.5514 125.168C56.1834 122.64 54.8554 119.2 54.5674 114.848C54.5354 114.4 54.5194 113.728 54.5194 112.832C54.5194 104.352 58.1834 98.512 65.5114 95.312ZM104.629 109.328C103.957 107.888 103.397 107.168 102.949 107.168C102.501 107.168 101.989 107.856 101.413 109.232C100.773 110.608 100.453 111.552 100.453 112.064C100.453 112.576 100.757 112.832 101.365 112.832C101.813 112.832 102.293 112.768 102.805 112.64C104.309 112.256 105.141 111.952 105.301 111.728C105.365 111.632 105.397 111.52 105.397 111.392C105.397 111.136 105.141 110.448 104.629 109.328ZM99.1088 96.752C99.9408 95.504 100.965 94.88 102.181 94.88C103.781 94.88 105.445 95.92 107.173 98C108.517 99.664 110.773 103.984 113.941 110.96C117.109 117.904 118.693 122.048 118.693 123.392C118.693 124.512 118.309 125.424 117.541 126.128C116.773 126.8 115.749 127.136 114.469 127.136C113.669 127.136 113.029 126.896 112.549 126.416C112.101 125.904 111.605 124.976 111.061 123.632L109.669 120.128L103.237 120.512C100.901 120.672 99.3168 120.832 98.4848 120.992C97.6848 121.152 97.0768 121.408 96.6608 121.76C96.2448 122.08 95.7808 122.736 95.2688 123.728C93.8608 126.384 92.5328 127.712 91.2848 127.712C90.5168 127.712 89.7008 127.28 88.8368 126.416L86.8208 124.496L88.5008 119.888C89.3648 117.36 91.0928 113.264 93.6848 107.6C96.3088 101.904 98.1168 98.288 99.1088 96.752ZM132.102 95.552C137.734 95.264 141.334 95.12 142.902 95.12C145.622 95.12 147.446 95.328 148.374 95.744C149.334 96.16 149.814 96.928 149.814 98.048C149.814 98.464 149.766 98.96 149.67 99.536C149.542 100.464 149.062 101.168 148.23 101.648C147.398 102.128 145.654 102.736 142.998 103.472C142.518 103.6 142.278 105.024 142.278 107.744C142.278 109.76 142.342 112.128 142.47 114.848C142.598 118.304 142.662 120.448 142.662 121.28C142.662 124.352 142.39 126.368 141.846 127.328C141.302 128.256 140.246 128.72 138.678 128.72C138.134 128.72 137.59 128.608 137.046 128.384C136.502 128.16 136.118 127.888 135.894 127.568C135.478 126.928 134.95 122.864 134.31 115.376L133.398 104.288L130.326 104C128.566 103.84 127.078 103.312 125.862 102.416C124.678 101.52 124.086 100.512 124.086 99.392C124.086 98.144 124.662 97.232 125.814 96.656C126.998 96.08 129.094 95.712 132.102 95.552ZM159.965 96.656C162.205 95.632 164.285 95.12 166.205 95.12C168.093 95.12 169.389 95.664 170.093 96.752C170.381 97.232 170.525 97.744 170.525 98.288C170.525 99.888 169.517 101.216 167.501 102.272C166.509 102.816 166.013 103.808 166.013 105.248C166.013 105.696 166.029 106.064 166.061 106.352C166.189 108.496 166.653 109.568 167.453 109.568C167.933 109.568 168.669 109.248 169.661 108.608C170.173 108.256 170.909 108.08 171.869 108.08C172.285 108.08 172.573 108.112 172.733 108.176C174.205 108.784 174.941 109.92 174.941 111.584C174.941 112.608 174.637 113.6 174.029 114.56C173.421 115.52 172.573 116.224 171.485 116.672C169.821 117.344 168.989 118.128 168.989 119.024C168.989 119.792 169.677 120.512 171.053 121.184C171.853 121.536 172.557 121.712 173.165 121.712C173.869 121.712 174.765 121.488 175.853 121.04C176.749 120.688 177.501 120.512 178.109 120.512C179.837 120.512 180.893 121.84 181.277 124.496C181.277 124.528 181.277 124.592 181.277 124.688C181.309 124.784 181.325 124.848 181.325 124.88C181.325 126.256 180.477 127.36 178.781 128.192C177.117 129.024 175.133 129.44 172.829 129.44C169.821 129.44 167.373 128.752 165.485 127.376C163.885 126.192 162.557 124.432 161.501 122.096C160.477 119.728 159.597 116.464 158.861 112.304C158.509 110.32 158.061 108.464 157.517 106.736C156.973 105.008 156.509 103.92 156.125 103.472C155.485 102.8 155.165 102.08 155.165 101.312C155.165 99.648 156.765 98.096 159.965 96.656Z" fill="#F5F5F5"/>
</svg>
