<svg width="236" height="230" viewBox="0 0 236 230" fill="none" xmlns="http://www.w3.org/2000/svg">
<path d="M230.713 94.8521C230.734 117.659 228.827 140.509 232.503 163.221C234.282 174.21 236.765 185.114 235.774 196.369C234.922 205.987 231.597 214.531 224.341 221.184C221.56 223.735 218.192 225.202 214.324 225.616C183.221 228.964 152.054 229.708 120.812 228.581C102.527 227.922 84.3172 230.207 66.043 229.942C56.1548 229.804 46.1599 230.856 36.5167 227.625C24.6572 223.65 13.064 219.016 6.89454 207.177C2.06762 197.899 1.52419 187.484 1.0447 177.239C-0.713446 139.372 -0.255269 101.526 2.44056 63.7021C3.33563 51.1826 3.61267 38.5994 5.33885 26.1542C7.0757 13.6772 14.9607 6.37595 26.4899 2.32677C35.8561 -0.957205 45.4567 -0.160125 54.8974 1.06207C75.7289 3.7509 96.5177 4.51608 117.52 3.20887C138.394 1.91228 159.257 -0.457691 180.227 0.63697C195.976 1.45531 210.329 6.07838 222.21 17.0037C229.839 24.0287 231.831 33.1367 231.874 42.8505C231.938 60.195 232.066 77.5395 230.723 94.8628L230.713 94.8521Z" fill="black"/>
<path d="M192.085 7.87572C172.239 5.49621 152.414 6.99403 132.621 8.38562C109.262 10.0321 85.9447 11.1157 62.6172 7.99258C55.2495 7.00466 47.7646 5.65554 40.4182 6.08046C23.1914 7.10024 12.0333 13.5802 10.8408 32.988C10.1807 43.7383 9.66966 54.5097 8.82855 65.2706C5.63446 106.221 4.67622 147.247 8.43459 188.229C9.4993 199.861 13.5345 210.314 24.9587 215.923C35.0414 220.873 45.5926 223.933 57.0488 223.996C78.6941 224.113 100.222 221.373 121.889 221.978C151.136 222.796 180.373 222.456 209.556 219.875C217.574 219.163 222.812 215.477 226.272 208.211C231.819 196.558 230.116 184.586 227.922 172.848C224.611 155.161 223.823 137.336 224.334 119.521C225.058 94.0584 225.484 68.5956 225.74 43.1221C225.825 34.4327 223.898 26.6887 217.606 20.3894C217.382 17.8399 215.434 17.5956 213.506 17.3194C213.176 17.1282 212.846 16.9476 212.516 16.7564C212.442 15.3117 211.601 14.9505 210.323 15.1736C209.993 15.0036 209.652 14.8443 209.322 14.6743C209.162 13.2721 208.321 12.8684 207.033 13.1234C206.405 12.8684 205.777 12.6135 205.149 12.3585C203.743 10.3402 201.678 9.98965 199.42 10.1277C198.132 9.79844 196.855 9.46914 195.566 9.13983C194.938 7.28084 193.533 7.53579 192.095 7.87572L192.085 7.87572Z" fill="#242527"/>
<path d="M121.884 221.989C151.133 222.807 180.371 222.467 209.555 219.885C217.573 219.174 222.812 215.487 226.272 208.222C231.819 196.568 230.116 184.596 227.922 172.858C224.611 155.171 223.823 137.346 224.334 119.532C225.058 94.069 225.484 68.6062 225.74 43.1327C225.825 34.4433 223.898 26.6993 217.605 20.4C215.806 19.9432 214.432 18.934 213.506 17.3194C213.176 17.1282 212.846 16.9476 212.515 16.7564C211.291 16.9051 210.514 16.4483 210.322 15.1736C209.992 15.0036 209.651 14.8443 209.321 14.6743C208.033 14.9186 207.351 14.2919 207.032 13.1127C206.404 12.8578 205.776 12.6029 205.147 12.3479C202.933 12.3904 200.984 11.7424 199.419 10.1171C198.141 9.7878 196.853 9.45848 195.565 9.1398C194.085 9.57533 192.807 9.501 192.094 7.87572C172.247 5.49621 152.421 6.994 132.627 8.38559C109.267 10.0321 85.9485 11.1156 62.6199 7.99255C55.2518 7.00463 47.7666 5.65555 40.4198 6.08046C23.1922 7.10024 12.0336 13.5801 10.841 32.988C10.1809 43.7382 9.66983 54.5098 8.82867 65.2706C5.63443 106.221 4.67613 147.247 8.4347 188.229C9.49944 199.861 13.5349 210.314 24.9596 215.923C35.0428 220.873 45.5945 223.933 57.0512 223.996C78.6976 224.113 100.227 221.373 121.895 221.978L121.884 221.989Z" fill="#95FFFD"/>
<g clip-path="url(#clip0_583_3)">
<path d="M157.847 112.998C168.29 112.998 178.737 113.039 189.18 112.953C190.904 112.94 191.321 113.369 191.284 115.095C190.587 148.778 166.054 178.405 132.844 185.573C92.2138 194.343 52.5982 168.381 44.2132 127.488C35.9312 87.1267 63.26 47.0465 103.903 39.9235C107.697 39.2591 111.516 38.8876 115.36 38.7226C116.705 38.6648 117.084 39.0486 117.08 40.4105C117.023 50.9959 117.047 61.5855 117.047 72.1709L117.064 72.1379C114.655 72.1214 112.267 72.3814 109.895 72.794C88.6255 76.5124 73.8475 96.6144 76.549 118.408C79.3413 140.912 101.861 157.601 124.154 153.21C144.108 149.282 157.43 133.389 157.884 112.982L157.851 112.998H157.847Z" fill="white"/>
<path d="M116.907 188.318C102.459 188.318 88.341 184.158 75.9923 176.098C58.9706 164.988 47.3272 147.8 43.2028 127.698C39.1484 107.93 43.2729 87.7003 54.8132 70.7306C66.3864 53.7072 83.7587 42.4078 103.721 38.9082C107.355 38.2727 111.145 37.8724 115.315 37.6908C115.983 37.6619 116.833 37.7032 117.435 38.281C118.037 38.8587 118.116 39.6841 118.111 40.4145C118.066 48.4826 118.07 56.6868 118.074 64.6187C118.074 66.7811 118.074 68.9478 118.074 71.1102H118.656L116.029 76.9085L116.016 73.1778C114.168 73.2273 112.213 73.4337 110.069 73.8092C100.034 75.5631 91.1539 81.1097 85.0621 89.4294C78.9578 97.7657 76.2975 108.013 77.572 118.276C78.8836 128.849 84.827 138.671 93.8719 145.221C102.773 151.663 113.735 154.205 123.952 152.195C143.139 148.415 155.941 133.492 156.816 114.026H153.132L158.952 111.351L158.94 111.962C161.196 111.962 163.456 111.962 165.712 111.966C173.4 111.975 181.356 111.983 189.172 111.917C190.055 111.913 190.983 111.991 191.622 112.639C192.261 113.287 192.331 114.211 192.315 115.111C191.61 149.261 166.69 179.317 133.059 186.576C127.68 187.736 122.269 188.309 116.903 188.309L116.907 188.318ZM115.608 39.7501C115.55 39.7501 115.48 39.7501 115.406 39.7542C111.331 39.9317 107.623 40.3196 104.08 40.9428C84.6702 44.3433 67.7764 55.3373 56.5166 71.8902C45.2898 88.3936 41.2808 108.066 45.2196 127.281C49.2327 146.838 60.5586 163.561 77.1142 174.369C93.5832 185.115 113.294 188.739 132.621 184.566C165.324 177.505 189.564 148.283 190.249 115.074C190.265 114.273 190.162 114.104 190.15 114.088C190.141 114.083 189.972 113.976 189.184 113.984C181.356 114.05 173.4 114.042 165.704 114.034C163.427 114.034 161.15 114.03 158.878 114.03C158.453 123.876 155.087 132.815 149.115 139.938C142.937 147.309 134.37 152.249 124.348 154.221C113.57 156.343 102.022 153.673 92.6593 146.896C83.1483 140.008 76.9038 129.671 75.5221 118.532C74.1817 107.74 76.9781 96.9734 83.3958 88.2079C89.8052 79.4548 99.1513 73.6194 109.714 71.7747C111.978 71.3785 114.049 71.1598 116.012 71.1144C116.012 68.9478 116.012 66.7853 116.012 64.6187C116.012 56.6827 116.004 48.4743 116.049 40.4022C116.049 40.0266 116.016 39.8533 115.996 39.779C115.938 39.7666 115.822 39.746 115.608 39.746V39.7501Z" fill="black"/>
<path d="M116.903 189.968C102.137 189.968 87.71 185.714 75.0891 177.48C57.6962 166.127 45.7971 148.568 41.586 128.028C37.4409 107.819 41.6561 87.1431 53.448 69.7979C65.277 52.4072 83.0328 40.8602 103.437 37.2822C107.14 36.6343 111.005 36.2257 115.241 36.04C116.161 35.9988 117.509 36.0648 118.578 37.0924C119.77 38.2397 119.761 39.8244 119.757 40.4228C119.712 48.4867 119.716 56.6868 119.72 64.6186C119.72 66.2364 119.72 67.8541 119.72 69.4718L121.201 69.4801L114.371 84.5473L114.358 74.9152C113.092 75.0142 111.764 75.1834 110.345 75.4311C100.735 77.1107 92.2222 82.4261 86.386 90.4034C80.5293 98.3971 77.9804 108.227 79.2012 118.074C80.455 128.193 86.1551 137.602 94.833 143.888C103.362 150.061 113.859 152.505 123.626 150.577C141.468 147.065 153.549 133.513 155.046 115.68H145.576L160.651 108.756L160.618 110.316C162.313 110.316 164.009 110.316 165.708 110.316C173.392 110.324 181.344 110.328 189.156 110.266C190.282 110.254 191.717 110.386 192.793 111.479C194.01 112.713 193.977 114.418 193.961 115.148C193.239 150.053 167.77 180.774 133.405 188.194C127.907 189.378 122.38 189.968 116.899 189.968H116.903ZM114.391 41.4545C110.811 41.6485 107.52 42.0116 104.361 42.5646C85.392 45.8868 68.8859 56.6331 57.8777 72.8146C46.9066 88.9466 42.9842 108.174 46.8365 126.947C50.7588 146.071 61.833 162.421 78.0175 172.982C94.1153 183.485 113.381 187.026 132.275 182.949C164.046 176.09 187.638 147.837 188.586 115.635C180.948 115.697 173.202 115.689 165.704 115.68C163.947 115.68 162.19 115.68 160.433 115.676C159.715 125.267 156.267 133.975 150.381 140.995C143.955 148.658 135.067 153.788 124.669 155.839C113.447 158.051 101.428 155.278 91.6942 148.233C81.8161 141.081 75.3242 130.327 73.8848 118.734C72.4948 107.522 75.3984 96.3378 82.0636 87.2339C88.7246 78.1342 98.446 72.0676 109.425 70.1487C111.162 69.8433 112.795 69.6411 114.358 69.5379C114.358 67.8995 114.358 66.2611 114.358 64.6186C114.358 57.0252 114.35 49.1883 114.391 41.4504V41.4545Z" fill="black"/>
<path d="M116.903 191C101.869 191 87.2148 186.626 74.528 178.343C56.9 166.842 44.8441 149.046 40.5753 128.239C36.3725 107.757 40.6413 86.7967 52.594 69.2244C64.5839 51.5944 82.5748 39.8906 103.259 36.2672C107.008 35.611 110.914 35.1984 115.195 35.0126C115.835 34.9838 117.781 34.8971 119.291 36.3498C120.8 37.8065 120.792 39.7792 120.788 40.4312C120.743 48.5117 120.747 56.6994 120.751 64.623V68.4527L122.801 68.4651L113.352 89.3141L113.335 76.0544C112.44 76.1535 111.512 76.2855 110.53 76.4547C101.184 78.089 92.9066 83.2599 87.2231 91.0185C81.5231 98.8018 79.0401 108.364 80.228 117.95C81.4488 127.789 86.9921 136.938 95.439 143.054C103.737 149.063 113.941 151.436 123.428 149.566C140.454 146.211 152.047 133.674 153.912 116.712H140.858L161.715 107.13L161.666 109.288H165.699C173.383 109.296 181.327 109.305 189.139 109.239C190.368 109.226 192.154 109.371 193.519 110.757C195.041 112.301 195 114.385 194.983 115.169C194.249 150.549 168.442 181.686 133.615 189.205C128.097 190.398 122.467 191 116.89 191H116.903ZM115.624 37.0637C115.509 37.0637 115.397 37.0637 115.29 37.072C111.096 37.2535 107.276 37.658 103.618 38.2976C83.4863 41.8261 65.9738 53.2204 54.3015 70.38C42.6623 87.49 38.5048 107.889 42.5963 127.822C46.7538 148.089 58.492 165.418 75.6539 176.618C88.0067 184.678 102.269 188.941 116.903 188.941C122.335 188.941 127.812 188.351 133.19 187.191C167.094 179.874 192.22 149.566 192.933 115.132C192.946 114.484 192.975 113.134 192.063 112.21C191.259 111.393 190.145 111.294 189.168 111.302C181.348 111.368 173.396 111.36 165.712 111.352H159.57L159.591 110.382L150.303 114.649H156.18L156.085 115.767C155.331 124.76 151.928 132.857 146.244 139.187C140.544 145.539 132.794 149.826 123.836 151.589C113.789 153.57 102.999 151.064 94.2388 144.721C85.33 138.271 79.4815 128.602 78.1905 118.202C76.9367 108.091 79.5557 98.0053 85.5651 89.7969C91.562 81.6051 100.306 76.1452 110.18 74.4202C111.64 74.1643 112.985 73.991 114.288 73.8919L115.397 73.8053L115.406 79.7892L119.617 70.5038H118.697V64.623C118.697 56.6994 118.689 48.5075 118.734 40.4189C118.734 39.8989 118.742 38.6773 117.868 37.8354C117.2 37.1916 116.358 37.0637 115.628 37.0637H115.624ZM116.911 185.635C102.979 185.635 89.3637 181.624 77.4563 173.853C61.0368 163.14 49.8059 146.554 45.8257 127.162C41.9199 108.112 45.8959 88.6084 57.0278 72.2412C68.1928 55.8203 84.9423 44.9213 104.187 41.5496C107.396 40.9884 110.716 40.6211 114.337 40.423L115.43 40.3652V41.4588C115.385 49.2875 115.389 57.434 115.393 64.6188V70.4996L114.432 70.5657C112.902 70.6688 111.322 70.8628 109.607 71.1641C98.8871 73.0377 89.4008 78.9597 82.8965 87.8408C76.384 96.7301 73.5463 107.658 74.9074 118.607C76.3097 129.914 82.6491 140.409 92.2962 147.396C101.795 154.275 113.521 156.982 124.467 154.828C134.63 152.827 143.316 147.817 149.589 140.335C155.31 133.513 158.704 124.958 159.401 115.602L159.472 114.649H165.699C173.181 114.661 180.915 114.67 188.574 114.608L189.642 114.599L189.609 115.668C188.648 148.299 164.623 177.023 132.485 183.96C127.296 185.078 122.075 185.635 116.903 185.635H116.911ZM113.356 42.5524C110.238 42.7547 107.342 43.0931 104.542 43.5842C85.8496 46.8609 69.5827 57.4463 58.7354 73.4008C47.921 89.3017 44.0563 108.244 47.8509 126.745C51.7155 145.596 62.633 161.712 78.5864 172.124C94.4492 182.478 113.442 185.965 132.064 181.946C162.936 175.281 186.099 147.932 187.522 116.683C180.209 116.737 172.843 116.729 165.708 116.721H161.385C160.499 126.134 156.98 134.743 151.173 141.668C144.595 149.513 135.5 154.766 124.867 156.859C113.364 159.124 101.052 156.285 91.0919 149.075C80.9828 141.754 74.3382 130.744 72.8658 118.871C71.4429 107.398 74.4166 95.9501 81.2385 86.6316C88.0604 77.3172 98.0086 71.1063 109.256 69.1419C110.687 68.8902 112.032 68.7127 113.335 68.593V64.6312C113.331 57.7765 113.327 50.051 113.36 42.5607L113.356 42.5524Z" fill="black"/>
<path d="M117.043 72.1709C130.089 72.1668 143.135 72.1792 156.18 72.1255C157.529 72.1214 157.896 72.4928 157.892 73.8382C157.839 86.8915 157.851 99.9448 157.847 112.998L157.88 112.982C144.896 112.986 131.916 112.961 118.932 113.031C117.39 113.039 116.998 112.647 117.006 111.104C117.076 98.1166 117.052 85.1252 117.056 72.1379L117.039 72.1709H117.043Z" fill="white"/>
<path d="M156.849 114.591L156.836 114.013C154.188 114.013 151.536 114.013 148.888 114.013C139.072 114.013 128.922 114.013 118.941 114.063C118.161 114.063 117.27 113.988 116.66 113.378C116.049 112.767 115.971 111.884 115.975 111.095C116.029 101.088 116.029 90.9109 116.025 81.0642C116.025 78.4436 116.025 75.819 116.025 73.1984H115.439L118.087 67.3547V71.135H125.775C135.74 71.135 146.038 71.135 156.172 71.0937H156.209C156.911 71.0937 157.698 71.1762 158.268 71.7457C158.845 72.3235 158.919 73.1324 158.919 73.8422C158.878 83.986 158.878 94.2991 158.874 104.274V111.946H162.594L156.845 114.587L156.849 114.591ZM118.132 111.933C118.132 111.933 118.318 112.003 118.928 112.003C128.914 111.95 139.068 111.95 148.888 111.954C151.532 111.954 154.172 111.954 156.816 111.954V104.278C156.816 94.2991 156.816 83.986 156.861 73.8381C156.861 73.4543 156.828 73.2851 156.807 73.2149C156.741 73.1943 156.572 73.1654 156.185 73.1612C146.051 73.2025 135.744 73.2025 125.779 73.2025H118.087C118.087 75.8272 118.087 78.4478 118.087 81.0683C118.087 90.9151 118.087 101.096 118.037 111.108C118.037 111.764 118.12 111.917 118.128 111.933H118.132Z" fill="black"/>
<path d="M155.199 117.166L155.187 115.664C153.087 115.664 150.988 115.664 148.888 115.664C139.072 115.664 128.926 115.664 118.949 115.714C117.881 115.714 116.54 115.59 115.493 114.546C114.449 113.502 114.321 112.148 114.325 111.087C114.379 101.084 114.379 90.907 114.375 81.0685C114.375 78.9968 114.375 76.9251 114.375 74.8534H112.882L119.741 59.7161V69.4885H125.775C135.736 69.4885 146.034 69.4885 156.164 69.4472C156.75 69.4472 158.292 69.439 159.435 70.5821C160.577 71.7253 160.569 73.2728 160.569 73.8547C160.528 83.9945 160.528 94.3075 160.524 104.282V110.303H170.146L155.195 117.175L155.199 117.166ZM119.741 74.8534C119.741 76.9251 119.741 78.9968 119.741 81.0685C119.741 90.6635 119.741 100.576 119.695 110.345C129.437 110.295 139.32 110.295 148.893 110.299C150.984 110.299 153.079 110.299 155.17 110.299V104.274C155.17 94.617 155.17 84.6424 155.211 74.8122C145.391 74.8493 135.43 74.8493 125.783 74.8534H119.741Z" fill="black"/>
<path d="M154.18 118.772L154.164 116.7H148.888C139.08 116.7 128.938 116.696 118.957 116.749C117.687 116.749 116.078 116.588 114.767 115.28C113.439 113.951 113.29 112.251 113.298 111.087C113.352 101.001 113.352 90.8697 113.348 81.0725V75.8892H111.286L120.78 54.9412V68.4567H125.783C135.752 68.4567 146.047 68.4567 156.168 68.4154C156.89 68.4154 158.738 68.4154 160.173 69.8516C161.608 71.2877 161.612 73.2232 161.608 73.8588C161.567 84.0893 161.567 94.3528 161.563 104.282V109.271L174.873 109.267L154.184 118.776L154.18 118.772ZM156.209 114.632L156.218 115.561L165.432 111.327H159.497V104.274C159.497 94.3446 159.497 84.081 159.542 73.8423C159.542 73.3346 159.55 72.142 158.709 71.3042C157.88 70.4747 156.692 70.4706 156.185 70.4706C146.047 70.5119 135.752 70.5119 125.796 70.5119H118.71V64.4866L114.482 73.8134H115.406V81.0602C115.406 90.8615 115.406 100.993 115.357 111.087C115.352 111.999 115.451 113.039 116.223 113.811C116.977 114.566 118.004 114.678 118.912 114.678H118.949C128.938 114.624 139.08 114.624 148.893 114.628H155.191H156.214L156.209 114.632ZM118.66 111.384V110.34C118.714 100.485 118.714 90.6139 118.71 81.0684V73.8216H125.779C135.426 73.8216 145.387 73.8216 155.203 73.7803H156.242V74.8162C156.205 84.7496 156.205 94.6747 156.201 104.274V111.331H148.893C139.872 111.331 129.644 111.327 119.704 111.376H118.66V111.384ZM120.772 75.8851V81.0684C120.772 90.2796 120.776 99.7962 120.731 109.309C130.349 109.263 140.182 109.267 148.888 109.267H154.135V104.274C154.135 95.0049 154.135 85.4346 154.172 75.8479C144.69 75.8809 135.092 75.8809 125.796 75.8851H120.772Z" fill="black"/>
</g>
<defs>
<clipPath id="clip0_583_3">
<rect width="156" height="156" fill="white" transform="translate(39 35)"/>
</clipPath>
</defs>
</svg>
