<svg width="242" height="246" viewBox="0 0 242 246" fill="none" xmlns="http://www.w3.org/2000/svg">
<path d="M120.529 0.104132C137.988 1.43239 159.082 4.54273 178.92 13.3424C200.091 22.7399 216.526 37.3839 226.439 58.6581C234.304 75.5492 239.217 93.3699 241.398 111.91C243.414 129.045 240.098 145.504 235.461 161.919C232.057 173.984 227.706 185.518 221.108 196.177C211.106 212.338 198.274 225.498 180.947 233.678C150.149 248.223 118.117 248.267 85.4023 242.146C72.1511 239.666 62.3587 231.387 51.3877 224.712C32.3426 213.123 22.6493 194.495 12.5264 175.999C6.14867 164.354 1.5554 152.223 0.354751 138.708C-0.746758 126.344 0.784347 114.445 4.01177 102.701C7.9772 88.234 12.5705 73.9774 18.8821 60.2853C25.8657 45.1431 35.8344 32.7461 49.7244 23.5036C58.5144 17.6593 67.3375 11.8813 77.0968 7.76375C89.7091 2.43965 102.773 -0.648548 120.518 0.1152L120.529 0.104132Z" fill="black"/>
<path d="M220.166 59.0812C208.105 33.6949 185.832 20.0459 159.451 12.7768C146.836 9.29782 133.856 7.89736 120.875 6.35239C112.026 5.29648 103.686 6.8081 95.1916 8.31972C82.2667 10.6205 71.3464 17.3894 60.1603 23.7249C39.0063 35.7067 26.325 54.1907 18.5611 76.6982C15.2607 86.2792 12.4586 96.0047 9.65655 105.741C5.73587 119.346 4.84983 132.884 7.57437 146.744C10.3654 160.926 17.5201 173.253 24.6194 185.435C32.4829 198.928 40.8227 212.221 55.4532 219.857C62.5858 223.581 67.769 230.794 75.7101 232.917C90.9941 237.007 106.389 240.92 121.451 239.808C135.284 240.264 147.778 238.208 160.16 235.118C181.247 229.85 198.004 218.123 210.985 200.795C220.753 187.769 225.87 172.764 230.666 157.325C241.375 122.836 234.985 90.3028 220.155 59.0923L220.166 59.0812Z" fill="#95FFFD"/>
<g clip-path="url(#clip0_583_6)">
<path d="M122.152 43.3474C123.874 43.3474 125.595 43.3474 127.32 43.3474C127.627 43.3924 127.931 43.4562 128.242 43.4787C130.114 43.6324 131.992 43.7224 133.856 43.9399C146.46 45.4174 158.104 49.6362 168.656 56.6562C183.15 66.2974 193.511 79.2987 199.612 95.6412C202.256 102.721 203.872 110.03 204.382 117.575C204.465 118.767 204.562 119.956 204.656 121.149V126.316C204.611 126.62 204.54 126.924 204.525 127.231C204.172 136.175 202.256 144.792 198.956 153.095C194.599 164.064 188.126 173.619 179.527 181.722C173.621 187.287 167.055 191.892 159.75 195.44C153.506 198.474 146.989 200.69 140.19 202.089C139.961 202.137 139.74 202.287 139.552 202.441C139.065 202.831 138.596 203.251 138.124 203.656H137.497C136.545 202.835 135.469 202.726 134.28 203.019C133.68 203.165 133.046 203.172 132.427 203.225C130.725 203.375 129.026 203.514 127.324 203.656H122.94C122.449 203.611 121.961 203.544 121.47 203.529C114.637 203.285 107.944 202.201 101.396 200.21C90.8812 197.019 81.3675 191.964 72.975 184.861C63.1762 176.57 55.695 166.546 50.7187 154.689C47.58 147.211 45.5287 139.46 44.7787 131.375C44.6287 129.744 44.4975 128.112 44.355 126.481C44.355 124.707 44.355 122.934 44.355 121.16C44.3925 120.879 44.4525 120.597 44.46 120.312C44.79 111.177 46.6725 102.365 50.055 93.8862C55.26 80.8437 63.3337 69.8787 74.2875 61.0924C86.655 51.1624 100.766 45.4174 116.546 43.7974C118.41 43.6062 120.285 43.4974 122.152 43.3474ZM138.802 198.605C172.282 192.369 199.196 163.651 200.884 126.999C202.575 90.2712 178.057 57.2974 141.439 48.9349C105.866 40.8049 69.6375 58.8724 54.7275 92.2212C47.1637 109.141 45.9787 126.639 50.97 144.496C53.3437 152.982 57.135 160.816 62.415 167.956C63.4237 165.552 64.3575 163.175 65.1787 160.76C68.2425 151.764 69.8287 142.43 71.4262 133.1C72.6487 125.956 73.8337 118.805 75.2362 111.695C76.2487 106.569 77.8425 101.596 80.3737 96.9762C83.325 91.5912 87.4575 87.4924 93.3525 85.4749C98.7712 83.6187 104.404 82.7824 110.111 82.6774C113.49 82.6137 116.876 82.9774 120.262 83.1199C120.619 83.1349 121.012 83.0187 121.342 82.8612C122.422 82.3474 123.435 81.6574 124.556 81.2637C130.567 79.1337 136.297 79.9774 141.641 83.2924C144.502 85.0662 146.685 87.4924 147.461 90.9349C147.517 91.1899 147.851 91.4712 148.125 91.5799C149.385 92.0824 150.649 92.5812 151.939 92.9862C156.69 94.4674 161.479 95.8399 166.207 97.3962C170.182 98.7049 174.03 100.344 177.217 103.171C181.099 106.614 183.341 110.934 183.686 116.12C183.9 119.326 182.621 122.202 181.106 124.94C178.845 129.024 175.927 132.642 172.852 136.126C167.366 142.347 161.76 148.467 156.326 154.73C151.207 160.629 146.445 166.805 142.811 173.765C139.995 179.161 138.011 184.809 137.895 190.981C137.846 193.546 138.101 196.077 138.806 198.605H138.802ZM169.897 134.052C169.864 133.996 169.826 133.94 169.792 133.88C169.65 133.925 169.507 133.97 169.369 134.019C164.831 135.646 160.324 137.371 155.745 138.871C151.129 140.386 146.396 141.406 141.495 141.541C135.214 141.71 129.72 139.685 124.822 135.856C123.911 135.144 123.72 134.161 124.294 133.314C124.879 132.444 125.857 132.252 126.832 132.86C127.429 133.231 127.98 133.677 128.565 134.071C131.527 136.074 134.741 137.424 138.33 137.784C142.736 138.226 147.019 137.487 151.249 136.385C159.247 134.304 166.852 131.12 174.469 127.981C174.72 127.876 174.975 127.689 175.132 127.471C176.85 125.097 178.414 122.637 179.411 119.859C179.944 118.37 180.285 116.832 179.992 115.254C179.167 110.791 176.97 107.206 173.16 104.641C170.381 102.77 167.325 101.51 164.16 100.516C160.234 99.2787 156.225 98.2812 152.332 96.9499C147.697 95.3674 143.137 93.5637 138.559 91.8162C132.551 89.5249 126.439 87.6012 120.041 86.7687C112.084 85.7299 104.216 86.2324 96.4537 88.2987C93.2737 89.1462 90.4275 90.6124 88.0125 92.8737C84.7312 95.9524 82.7362 99.8262 81.2175 103.981C79.0912 109.786 77.9737 115.839 76.9237 121.906C75.4575 130.385 74.1 138.882 72.495 147.335C70.9537 155.45 68.5725 163.332 65.145 170.874C64.935 171.339 65.0287 171.627 65.3287 171.987C73.335 181.636 83.055 188.99 94.6162 193.891C106.942 199.119 119.764 200.892 133.05 199.527C133.744 199.456 134.43 199.344 135.169 199.242C135.067 198.777 134.951 198.402 134.91 198.016C134.677 195.841 134.291 193.666 134.28 191.487C134.254 185.761 135.761 180.354 138.094 175.16C140.79 169.145 144.334 163.632 148.511 158.574C153.54 152.48 158.816 146.592 164.006 140.634C165.937 138.414 167.932 136.25 169.897 134.06V134.052ZM142.781 89.3224C140.257 85.0737 132.067 82.4974 127.395 84.2299C132.405 85.8874 137.61 87.6087 142.781 89.3224Z" fill="black"/>
<path d="M138.986 206H136.62L135.96 205.434C135.791 205.291 135.585 205.111 134.828 205.295C134.186 205.452 133.583 205.494 133.054 205.527C132.911 205.539 132.765 205.546 132.623 205.557C131.404 205.663 130.185 205.768 128.963 205.869L127.41 206H122.824L122.719 205.989C122.55 205.974 122.385 205.955 122.216 205.94C121.913 205.91 121.628 205.88 121.373 205.869C114.285 205.614 107.329 204.466 100.703 202.452C89.7526 199.126 79.9088 193.812 71.4451 186.65C61.2901 178.059 53.5838 167.607 48.5401 155.592C45.2326 147.706 43.1738 139.632 42.4276 131.585C42.3226 130.464 42.2288 129.327 42.1351 128.229C42.0901 127.711 42.0488 127.194 42.0038 126.673L41.9963 126.571V120.999L42.0151 120.849C42.0301 120.74 42.0451 120.628 42.0638 120.519C42.0826 120.41 42.1013 120.271 42.1051 120.219C42.4426 110.9 44.3776 101.746 47.8651 93.005C53.2201 79.5912 61.6126 68.2325 72.8101 59.2475C85.4588 49.1112 100.091 43.1263 116.306 41.4613C117.615 41.3263 118.931 41.2325 120.206 41.1388C120.795 41.0975 121.38 41.0525 121.969 41.0075L122.153 41H127.493L127.661 41.0263C127.77 41.0412 127.883 41.06 127.991 41.0787C128.16 41.105 128.318 41.1312 128.434 41.1425C129.056 41.195 129.698 41.24 130.32 41.285C131.561 41.3713 132.844 41.465 134.126 41.615C147.131 43.1413 159.184 47.5438 169.954 54.71C184.853 64.6213 195.57 78.1212 201.81 94.8275C204.551 102.17 206.205 109.771 206.723 117.425C206.779 118.228 206.843 119.052 206.906 119.847C206.936 120.222 206.966 120.601 206.996 120.976L207.004 121.156V126.493L206.978 126.661C206.959 126.781 206.94 126.901 206.918 127.018C206.899 127.126 206.873 127.276 206.869 127.329C206.513 136.325 204.585 145.287 201.135 153.965C196.661 165.226 189.934 175.141 181.136 183.432C174.994 189.223 168.143 193.974 160.774 197.551C154.463 200.615 147.795 202.895 140.948 204.327C140.659 204.564 140.37 204.811 140.066 205.077C139.928 205.198 139.789 205.318 139.65 205.438L138.99 206H138.986ZM67.6276 171.069C75.3526 180.2 84.7388 187.145 95.5351 191.724C107.13 196.64 119.55 198.492 132.458 197.221C132.424 196.951 132.39 196.678 132.353 196.396C132.15 194.814 131.944 193.175 131.936 191.495C131.914 185.934 133.226 180.279 135.953 174.196C138.623 168.241 142.241 162.481 146.7 157.074C150.461 152.514 154.418 148.01 158.239 143.652C159.54 142.171 160.883 140.637 162.199 139.13C160.305 139.812 158.389 140.484 156.473 141.11C151.14 142.857 146.261 143.769 141.555 143.893C141.296 143.9 141.038 143.904 140.783 143.904C134.486 143.904 128.636 141.822 123.375 137.712C121.496 136.243 121.073 133.899 122.344 132.009C123.638 130.085 126.049 129.609 128.074 130.876C128.494 131.139 128.869 131.409 129.229 131.675C129.454 131.84 129.668 131.994 129.874 132.132C132.743 134.068 135.581 135.155 138.559 135.455C143.01 135.901 147.36 134.975 150.653 134.12C158.194 132.159 165.57 129.114 172.706 126.174L173.374 125.9C174.758 123.98 176.265 121.681 177.199 119.075C177.705 117.658 177.855 116.615 177.683 115.689C176.948 111.717 175.039 108.744 171.848 106.599C169.583 105.072 166.916 103.854 163.455 102.766C161.843 102.256 160.174 101.78 158.558 101.315C156.266 100.655 153.893 99.9762 151.571 99.1812C147.859 97.9137 144.154 96.4888 140.569 95.1125C139.62 94.7488 138.668 94.3812 137.719 94.0212C130.635 91.3213 125.089 89.8062 119.734 89.1087C112.095 88.1112 104.464 88.6063 97.0538 90.5788C94.0913 91.3663 91.6613 92.6825 89.6176 94.5987C87.0226 97.0325 85.1138 100.179 83.4188 104.799C81.3938 110.33 80.3251 116.004 79.2338 122.315C78.7838 124.921 78.3338 127.576 77.8988 130.145C76.9238 135.927 75.9113 141.909 74.7976 147.777C73.2226 156.065 70.8113 163.903 67.6238 171.08L67.6276 171.069ZM149.543 89.615C150.623 90.0425 151.624 90.425 152.633 90.74C154.421 91.2987 156.248 91.85 158.014 92.3862C160.939 93.2712 163.969 94.1862 166.935 95.1612C170.479 96.3275 175.028 98.09 178.77 101.413C183.203 105.346 185.644 110.24 186.023 115.962C186.281 119.844 184.718 123.252 183.154 126.076C180.649 130.599 177.428 134.48 174.608 137.679C172.331 140.259 169.999 142.865 167.745 145.381C164.561 148.936 161.269 152.611 158.093 156.268C152.01 163.276 147.938 169.006 144.885 174.853C141.81 180.74 140.333 185.881 140.235 191.026C140.201 192.729 140.318 194.322 140.58 195.849C155.689 192.537 169.62 184.355 180.004 172.651C185.49 166.468 189.863 159.478 193.005 151.876C196.275 143.968 198.135 135.56 198.533 126.894C198.938 118.138 197.82 109.49 195.214 101.188C192.668 93.08 188.779 85.5275 183.649 78.7475C178.5 71.9375 172.268 66.1213 165.124 61.4637C157.755 56.6562 149.606 53.21 140.91 51.2225C132.446 49.2875 123.818 48.8488 115.264 49.91C106.939 50.945 98.9026 53.3713 91.3801 57.125C83.8576 60.8787 77.0851 65.8437 71.2501 71.8775C65.2538 78.08 60.4163 85.2462 56.8688 93.1812C53.2276 101.326 51.0788 109.734 50.4788 118.175C49.8826 126.571 50.8088 135.215 53.2276 143.866C55.1401 150.714 58.0388 157.145 61.8563 163.036C62.2613 161.975 62.6213 160.978 62.9513 160.006C65.9363 151.235 67.5338 141.89 69.0826 132.856L69.1088 132.706C69.2888 131.664 69.4651 130.621 69.6413 129.579C70.6651 123.564 71.7226 117.342 72.9301 111.241C74.0888 105.38 75.8476 100.344 78.3113 95.8512C81.7613 89.5588 86.5651 85.3213 92.5913 83.255C97.9163 81.4287 103.796 80.4462 110.066 80.33C112.391 80.2887 114.709 80.435 116.948 80.5775C118.035 80.6488 119.16 80.72 120.259 80.765C120.278 80.7575 120.3 80.75 120.33 80.735C120.675 80.57 121.031 80.375 121.406 80.1687C122.104 79.7862 122.891 79.355 123.769 79.0437C130.309 76.7262 136.736 77.4837 142.875 81.29C146.321 83.4275 148.56 86.225 149.543 89.6113V89.615ZM171.285 131.829L172.193 133.299C172.954 132.414 173.734 131.48 174.506 130.501H174.499C173.434 130.944 172.361 131.386 171.285 131.825V131.829Z" fill="black"/>
<path d="M138.803 198.605C138.098 196.074 137.843 193.542 137.891 190.981C138.008 184.809 139.991 179.161 142.808 173.765C146.441 166.805 151.204 160.629 156.323 154.73C161.76 148.467 167.363 142.347 172.849 136.126C175.924 132.642 178.841 129.024 181.103 124.94C182.621 122.199 183.896 119.326 183.683 116.12C183.338 110.934 181.095 106.614 177.214 103.171C174.026 100.344 170.179 98.7012 166.204 97.3962C161.475 95.8437 156.686 94.4712 151.935 92.9862C150.641 92.5812 149.378 92.0824 148.121 91.5799C147.851 91.4712 147.518 91.1899 147.458 90.9349C146.681 87.4924 144.499 85.0662 141.638 83.2924C136.294 79.9774 130.568 79.1337 124.553 81.2637C123.435 81.6612 122.419 82.3474 121.339 82.8612C121.009 83.0187 120.615 83.1349 120.259 83.1199C116.876 82.9774 113.486 82.6174 110.108 82.6774C104.4 82.7824 98.7676 83.6187 93.3488 85.4749C87.4538 87.4962 83.3213 91.5949 80.3701 96.9762C77.8388 101.596 76.2451 106.569 75.2326 111.695C73.8301 118.805 72.6451 125.956 71.4226 133.1C69.8251 142.43 68.2388 151.764 65.1751 160.76C64.3538 163.175 63.4163 165.549 62.4113 167.956C57.1313 160.82 53.3401 152.986 50.9663 144.496C45.9751 126.639 47.1601 109.141 54.7238 92.2212C69.6376 58.8724 105.866 40.8049 141.435 48.9312C178.054 57.2974 202.571 90.2674 200.88 126.995C199.193 163.644 172.279 192.365 138.799 198.601L138.803 198.605ZM193.376 119.356C192.911 116.214 192.589 113.041 191.959 109.932C189.18 96.2112 182.801 84.4024 172.871 74.5287C165.926 67.6249 157.823 62.5024 148.676 59.0374C142.219 56.5924 135.525 55.2012 128.629 54.8149C128.126 54.7849 127.526 54.9612 127.11 55.2424C126.476 55.6737 126.323 56.3937 126.551 57.1362C126.806 57.9574 127.429 58.3174 128.254 58.4074C130.613 58.6624 132.99 58.8124 135.323 59.2137C147.015 61.2274 157.433 66.0162 166.523 73.6699C175.298 81.0574 181.631 90.1549 185.648 100.88C187.905 106.902 189.173 113.142 189.593 119.559C189.623 119.986 189.716 120.451 189.923 120.819C190.328 121.539 191.175 121.797 191.966 121.546C192.866 121.261 193.286 120.537 193.376 119.356Z" fill="white"/>
<path d="M142.781 89.3225C137.61 87.6125 132.409 85.8913 127.395 84.23C132.064 82.4938 140.258 85.0738 142.781 89.3225Z" fill="white"/>
<path d="M193.376 119.356C193.286 120.534 192.866 121.258 191.966 121.546C191.175 121.798 190.328 121.539 189.923 120.819C189.716 120.451 189.623 119.986 189.593 119.559C189.169 113.143 187.901 106.903 185.648 100.88C181.631 90.1551 175.298 81.0576 166.523 73.6701C157.433 66.0201 147.015 61.2276 135.323 59.2138C132.99 58.8126 130.613 58.6626 128.254 58.4076C127.429 58.3176 126.806 57.9576 126.551 57.1363C126.323 56.3938 126.476 55.6738 127.11 55.2426C127.526 54.9613 128.126 54.7851 128.629 54.8151C135.525 55.2013 142.219 56.5926 148.676 59.0376C157.823 62.5026 165.926 67.6251 172.871 74.5288C182.801 84.3988 189.18 96.2113 191.959 109.933C192.589 113.041 192.911 116.214 193.376 119.356Z" fill="white"/>
<path d="M113.73 119.581C106.035 119.559 99.8625 113.356 99.8888 105.672C99.915 98.0524 106.103 91.8537 113.674 91.8687C121.418 91.8799 127.661 98.1124 127.616 105.777C127.568 113.416 121.343 119.607 113.73 119.581ZM123.953 105.864C124.118 100.407 119.64 95.6637 114.176 95.4987C108.461 95.3262 103.699 99.7212 103.534 105.32C103.361 111.181 107.689 115.764 113.591 115.959C119.029 116.139 123.968 111.579 123.953 105.864Z" fill="black"/>
<path d="M166.789 119.825C166.789 121.392 165.529 122.652 163.961 122.641C162.439 122.63 161.186 121.381 161.171 119.855C161.152 118.31 162.427 117.005 163.969 116.99C165.502 116.975 166.785 118.265 166.789 119.825Z" fill="black"/>
<path d="M123.953 105.864C123.964 111.575 119.029 116.139 113.591 115.959C107.689 115.764 103.361 111.181 103.534 105.32C103.699 99.7213 108.461 95.3301 114.176 95.4988C119.644 95.6638 124.118 100.408 123.953 105.864ZM113.738 99.2376C110.018 99.2901 107.201 102.148 107.246 105.823C107.288 109.468 110.213 112.284 113.91 112.243C117.42 112.205 120.296 109.213 120.259 105.646C120.218 102.069 117.289 99.1888 113.741 99.2413L113.738 99.2376Z" fill="white"/>
<path d="M113.737 99.2374C117.285 99.1849 120.214 102.065 120.255 105.642C120.296 109.209 117.416 112.201 113.906 112.239C110.209 112.28 107.287 109.464 107.242 105.819C107.197 102.147 110.017 99.2899 113.734 99.2336L113.737 99.2374ZM113.726 102.852C112.155 102.86 110.865 104.18 110.876 105.77C110.887 107.326 112.159 108.594 113.719 108.609C115.29 108.624 116.632 107.292 116.617 105.736C116.602 104.161 115.286 102.845 113.726 102.852Z" fill="black"/>
<path d="M113.726 102.853C115.286 102.845 116.603 104.161 116.618 105.736C116.633 107.293 115.29 108.624 113.719 108.609C112.159 108.594 110.891 107.326 110.876 105.77C110.865 104.184 112.151 102.864 113.726 102.853Z" fill="black"/>
</g>
<defs>
<clipPath id="clip0_583_6">
<rect width="165" height="165" fill="white" transform="translate(42 41)"/>
</clipPath>
</defs>
</svg>
