<svg width="242" height="246" viewBox="0 0 242 246" fill="none" xmlns="http://www.w3.org/2000/svg">
<path d="M120.529 0.104132C137.988 1.43239 159.082 4.54273 178.92 13.3424C200.091 22.7399 216.526 37.3839 226.439 58.6581C234.304 75.5492 239.217 93.3699 241.398 111.91C243.414 129.045 240.098 145.504 235.461 161.919C232.057 173.984 227.706 185.518 221.108 196.177C211.106 212.338 198.274 225.498 180.947 233.678C150.149 248.223 118.117 248.267 85.4023 242.146C72.1511 239.666 62.3587 231.387 51.3877 224.712C32.3426 213.123 22.6493 194.495 12.5264 175.999C6.14867 164.354 1.5554 152.223 0.354751 138.708C-0.746758 126.344 0.784347 114.445 4.01177 102.701C7.9772 88.234 12.5705 73.9774 18.8821 60.2853C25.8657 45.1431 35.8344 32.7461 49.7244 23.5036C58.5144 17.6593 67.3375 11.8813 77.0968 7.76375C89.7091 2.43965 102.773 -0.648548 120.518 0.1152L120.529 0.104132Z" fill="black"/>
<path d="M121.457 239.786C135.289 240.242 147.782 238.186 160.163 235.096C181.25 229.827 198.006 218.101 210.986 200.773C220.754 187.747 225.87 172.742 230.666 157.303C241.375 122.814 234.985 90.2805 220.156 59.0812C208.095 33.6949 185.824 20.0459 159.444 12.7768C146.829 9.29783 133.85 7.89736 120.87 6.35239C112.021 5.29648 103.682 6.8081 95.1873 8.31972C82.263 10.6205 71.3433 17.3894 60.1577 23.7249C39.0047 35.7067 26.324 54.1907 18.5605 76.6982C15.2602 86.2792 12.4583 96.0047 9.65637 105.741C5.73588 119.346 4.84989 132.884 7.5743 146.744C10.3652 160.926 17.5195 173.253 24.6185 185.435C32.4816 198.928 40.821 212.221 55.4509 219.857C62.5831 223.581 67.7661 230.794 75.7067 232.917C90.99 237.007 106.384 240.92 121.446 239.808L121.457 239.786Z" fill="black"/>
<path d="M75.7363 85.104C78.2323 83.504 80.0563 82.704 81.2083 82.704C81.8803 82.704 82.7603 82.96 83.8483 83.472C85.0003 84.08 85.5763 85.008 85.5763 86.256C85.5763 87.248 85.1763 88.304 84.3763 89.424C83.6083 90.512 82.5043 91.52 81.0643 92.448C79.1763 93.568 78.2323 95.472 78.2323 98.16C78.2323 99.088 78.3923 100.24 78.7123 101.616C79.0323 102.736 79.5763 103.616 80.3443 104.256C81.1443 104.864 82.0883 105.168 83.1763 105.168C84.1363 105.168 85.0803 104.944 86.0083 104.496C87.4803 103.824 88.7763 103.488 89.8962 103.488C91.6562 103.488 92.8723 104.224 93.5443 105.696C93.8963 106.496 94.0723 107.088 94.0723 107.472C94.0723 108.112 93.5763 108.944 92.5843 109.968C91.5283 111.088 90.0883 112 88.2643 112.704C86.4723 113.376 84.6643 113.712 82.8403 113.712C81.5603 113.712 80.4403 113.552 79.4803 113.232C75.9283 112.176 73.1603 110.272 71.1763 107.52C69.1923 104.768 68.2003 101.728 68.2003 98.4C68.2003 95.808 68.8403 93.344 70.1203 91.008C71.4003 88.64 73.2723 86.672 75.7363 85.104ZM113.582 91.344C112.558 90.416 111.854 89.952 111.47 89.952C111.086 89.952 110.446 90.448 109.55 91.44C107.726 93.456 106.814 95.6 106.814 97.872C106.814 99.12 107.118 100.192 107.726 101.088C108.334 101.952 109.214 102.528 110.366 102.816C110.846 102.944 111.294 103.008 111.71 103.008C112.638 103.008 113.406 102.608 114.014 101.808C114.814 100.688 115.214 99.024 115.214 96.816C115.214 94.096 114.67 92.272 113.582 91.344ZM103.598 86.16C105.07 84.592 106.222 83.632 107.054 83.28C107.886 82.896 109.31 82.704 111.326 82.704C115.134 82.704 118.062 83.936 120.11 86.4C122.158 88.832 123.182 92.336 123.182 96.912C123.182 99.952 122.558 102.672 121.31 105.072C120.094 107.472 118.494 109.088 116.51 109.92C114.654 110.688 113.182 111.072 112.094 111.072C110.846 111.072 109.022 110.48 106.622 109.296C104.318 108.176 102.526 106.496 101.246 104.256C99.9664 101.984 99.3264 99.52 99.3264 96.864C99.3264 92.672 100.75 89.104 103.598 86.16ZM131.751 77.664C133.671 76.352 135.015 75.696 135.783 75.696C136.327 75.696 137.111 75.968 138.135 76.512C138.711 76.864 139.111 77.296 139.335 77.808C139.559 78.288 139.671 79.088 139.671 80.208C139.671 80.976 139.655 81.6 139.623 82.08C139.559 83.296 139.527 84.32 139.527 85.152C139.527 89.536 139.799 94.368 140.343 99.648C140.919 104.928 141.511 108.016 142.119 108.912C142.695 109.776 142.983 110.576 142.983 111.312C142.983 112.88 141.575 114.016 138.759 114.72C137.447 115.072 136.487 115.248 135.879 115.248C134.951 115.248 134.007 114.928 133.047 114.288C131.639 113.328 130.935 112.096 130.935 110.592C130.935 109.664 131.223 108.672 131.799 107.616C132.119 107.008 132.279 105.6 132.279 103.392C132.279 99.936 131.975 95.984 131.367 91.536C130.759 87.056 130.135 84.496 129.495 83.856C128.791 83.152 128.439 82.448 128.439 81.744C128.439 80.528 129.543 79.168 131.751 77.664ZM165.832 86.16C166.44 85.072 167.496 84.528 169 84.528C170.344 84.528 171.368 84.96 172.072 85.824C172.616 86.528 172.888 88.528 172.888 91.824C172.888 93.52 172.856 94.896 172.792 95.952C172.696 99.472 172.504 101.936 172.216 103.344C171.96 104.752 171.496 105.84 170.824 106.608C169.704 107.824 168.392 108.432 166.888 108.432C165 108.432 163.032 107.504 160.984 105.648C159.48 104.336 158.376 103.68 157.672 103.68C156.616 103.68 156.088 105.28 156.088 108.48C156.088 110.336 155.752 111.696 155.08 112.56C154.408 113.392 153.352 113.808 151.912 113.808C150.376 113.808 149.352 112.944 148.84 111.216C148.328 109.456 148.072 105.968 148.072 100.752C148.072 97.136 148.168 94.48 148.36 92.784C148.584 91.056 148.968 89.824 149.512 89.088C150.376 87.776 151.544 87.12 153.016 87.12C154.456 87.12 155.512 87.776 156.184 89.088C156.792 90.272 158.168 92.032 160.312 94.368C162.456 96.672 163.768 97.824 164.248 97.824C164.344 97.824 164.44 97.6 164.536 97.152C164.664 96.704 164.76 96.096 164.824 95.328C164.92 94.528 164.968 93.696 164.968 92.832C164.968 89.664 165.256 87.44 165.832 86.16ZM55.7771 130.312C57.3771 129.576 58.9611 129.208 60.5291 129.208C61.9371 129.208 63.0571 129.544 63.8891 130.216C64.7211 130.856 65.1371 131.768 65.1371 132.952C65.1371 134.2 64.7531 135.16 63.9851 135.832C63.2491 136.472 61.9691 137 60.1451 137.416C55.6971 138.376 53.2651 141.656 52.8491 147.256C52.8171 147.672 52.8011 148.248 52.8011 148.984C52.8011 151.288 53.2171 152.984 54.0491 154.072C54.9131 155.16 56.2571 155.704 58.0811 155.704C60.1291 155.704 61.1531 155.288 61.1531 154.456C61.1531 154.04 60.8491 153.576 60.2411 153.064C59.3131 152.328 58.8491 151.384 58.8491 150.232C58.8491 149.048 59.3451 147.928 60.3371 146.872C61.3611 145.784 62.6891 145.032 64.3211 144.616C64.7051 144.52 65.1051 144.472 65.5211 144.472C66.9291 144.472 68.1611 145.096 69.2171 146.344C70.2731 147.56 71.0091 149.288 71.4251 151.528C71.6811 152.968 71.8091 154.104 71.8091 154.936C71.8091 156.408 71.4251 157.608 70.6571 158.536C69.8891 159.432 68.4811 160.44 66.4331 161.56C63.4571 163.16 60.5611 163.96 57.7451 163.96C54.1611 163.96 51.1851 162.696 48.8171 160.168C46.4491 157.64 45.1211 154.2 44.8331 149.848C44.8011 149.4 44.7851 148.728 44.7851 147.832C44.7851 139.352 48.4491 133.512 55.7771 130.312ZM81.8864 131.656C84.1264 130.632 86.2064 130.12 88.1264 130.12C90.0144 130.12 91.3104 130.664 92.0144 131.752C92.3024 132.232 92.4464 132.744 92.4464 133.288C92.4464 134.888 91.4384 136.216 89.4224 137.272C88.4304 137.816 87.9344 138.808 87.9344 140.248C87.9344 140.696 87.9504 141.064 87.9824 141.352C88.1104 143.496 88.5744 144.568 89.3744 144.568C89.8544 144.568 90.5904 144.248 91.5824 143.608C92.0944 143.256 92.8304 143.08 93.7904 143.08C94.2064 143.08 94.4944 143.112 94.6544 143.176C96.1264 143.784 96.8624 144.92 96.8624 146.584C96.8624 147.608 96.5584 148.6 95.9504 149.56C95.3424 150.52 94.4944 151.224 93.4064 151.672C91.7424 152.344 90.9104 153.128 90.9104 154.024C90.9104 154.792 91.5984 155.512 92.9744 156.184C93.7744 156.536 94.4784 156.712 95.0864 156.712C95.7904 156.712 96.6864 156.488 97.7744 156.04C98.6704 155.688 99.4224 155.512 100.03 155.512C101.758 155.512 102.814 156.84 103.198 159.496C103.198 159.528 103.198 159.592 103.198 159.688C103.23 159.784 103.246 159.848 103.246 159.88C103.246 161.256 102.398 162.36 100.702 163.192C99.0384 164.024 97.0544 164.44 94.7504 164.44C91.7424 164.44 89.2944 163.752 87.4064 162.376C85.8064 161.192 84.4784 159.432 83.4224 157.096C82.3984 154.728 81.5184 151.464 80.7824 147.304C80.4304 145.32 79.9824 143.464 79.4384 141.736C78.8944 140.008 78.4304 138.92 78.0464 138.472C77.4064 137.8 77.0864 137.08 77.0864 136.312C77.0864 134.648 78.6864 133.096 81.8864 131.656ZM115.978 134.104C118.474 132.504 120.298 131.704 121.45 131.704C122.122 131.704 123.002 131.96 124.09 132.472C125.242 133.08 125.818 134.008 125.818 135.256C125.818 136.248 125.418 137.304 124.618 138.424C123.85 139.512 122.746 140.52 121.306 141.448C119.418 142.568 118.474 144.472 118.474 147.16C118.474 148.088 118.634 149.24 118.954 150.616C119.274 151.736 119.818 152.616 120.586 153.256C121.386 153.864 122.33 154.168 123.418 154.168C124.378 154.168 125.322 153.944 126.25 153.496C127.722 152.824 129.018 152.488 130.138 152.488C131.898 152.488 133.114 153.224 133.786 154.696C134.138 155.496 134.314 156.088 134.314 156.472C134.314 157.112 133.818 157.944 132.826 158.968C131.77 160.088 130.33 161 128.506 161.704C126.714 162.376 124.906 162.712 123.082 162.712C121.802 162.712 120.682 162.552 119.722 162.232C116.17 161.176 113.402 159.272 111.418 156.52C109.434 153.768 108.442 150.728 108.442 147.4C108.442 144.808 109.082 142.344 110.362 140.008C111.642 137.64 113.514 135.672 115.978 134.104ZM140.241 129.688C140.593 129.272 141.601 129.064 143.265 129.064C144.577 129.064 145.633 129.528 146.433 130.456C147.233 131.384 147.633 132.6 147.633 134.104C147.665 136.248 148.225 137.32 149.313 137.32C150.177 137.32 151.809 136.632 154.209 135.256C156.929 133.688 159.121 132.904 160.785 132.904C162.481 132.904 163.601 133.752 164.145 135.448C164.241 135.736 164.289 136.024 164.289 136.312C164.289 137.144 163.841 138.024 162.945 138.952C162.049 139.848 160.529 140.984 158.385 142.36L156.321 143.704L161.313 147.16C165.153 149.752 167.073 152.072 167.073 154.12C167.073 154.856 166.817 155.528 166.305 156.136C165.633 156.968 164.801 157.384 163.809 157.384C162.241 157.384 159.889 156.232 156.753 153.928C153.457 151.56 151.601 150.376 151.185 150.376C150.961 150.376 150.849 151.08 150.849 152.488C150.849 153.256 150.897 154.152 150.993 155.176C151.089 156.296 151.137 157.192 151.137 157.864C151.137 158.76 151.025 159.416 150.801 159.832C150.577 160.216 150.145 160.584 149.505 160.936C148.897 161.288 148.257 161.464 147.585 161.464C146.625 161.464 145.761 161.064 144.993 160.264C144.225 159.432 143.681 158.264 143.361 156.76C142.785 154.52 142.017 150.28 141.057 144.04C140.097 137.8 139.617 133.96 139.617 132.52C139.617 130.984 139.825 130.04 140.241 129.688ZM186.59 140.344C185.566 139.416 184.862 138.952 184.478 138.952C184.094 138.952 183.454 139.448 182.558 140.44C180.734 142.456 179.822 144.6 179.822 146.872C179.822 148.12 180.126 149.192 180.734 150.088C181.342 150.952 182.222 151.528 183.374 151.816C183.854 151.944 184.302 152.008 184.718 152.008C185.646 152.008 186.414 151.608 187.022 150.808C187.822 149.688 188.222 148.024 188.222 145.816C188.222 143.096 187.678 141.272 186.59 140.344ZM176.606 135.16C178.078 133.592 179.23 132.632 180.062 132.28C180.894 131.896 182.318 131.704 184.334 131.704C188.142 131.704 191.07 132.936 193.118 135.4C195.166 137.832 196.19 141.336 196.19 145.912C196.19 148.952 195.566 151.672 194.318 154.072C193.102 156.472 191.502 158.088 189.518 158.92C187.662 159.688 186.19 160.072 185.102 160.072C183.854 160.072 182.03 159.48 179.63 158.296C177.326 157.176 175.534 155.496 174.254 153.256C172.974 150.984 172.334 148.52 172.334 145.864C172.334 141.672 173.758 138.104 176.606 135.16Z" fill="#F5F5F5"/>
</svg>
