<svg width="229" height="235" viewBox="0 0 229 235" fill="none" xmlns="http://www.w3.org/2000/svg">
<path d="M94.4397 5.26498C117.148 5.24376 139.898 7.14301 162.511 3.48245C173.452 1.71053 184.309 -0.761677 195.515 0.225082C205.091 1.07391 213.599 4.38433 220.223 11.61C222.762 14.3792 224.223 17.7321 224.635 21.5836C227.968 52.5552 228.709 83.5903 227.588 114.7C226.931 132.907 229.206 151.04 228.942 169.237C228.804 179.083 229.852 189.036 226.635 198.638C222.678 210.447 218.064 221.991 206.276 228.135C197.039 232.941 186.669 233.482 176.468 233.96C138.766 235.71 101.085 235.254 63.4252 232.57C50.9601 231.678 38.4315 231.403 26.0405 229.684C13.6178 227.954 6.34824 220.103 2.31667 208.622C-0.953035 199.296 -0.15942 189.736 1.05746 180.335C3.73459 159.592 4.49645 138.891 3.19492 117.978C1.90397 97.1928 -0.455697 76.4178 0.634203 55.5367C1.44898 39.8546 6.05196 25.5625 16.9298 13.732C23.9242 6.13503 32.9926 4.1509 42.6642 4.10846C59.9333 4.0448 77.2024 3.91747 94.4503 5.25437L94.4397 5.26498Z" fill="black"/>
<path d="M7.87572 43.7461C5.49621 63.5035 6.99404 83.2397 8.38562 102.944C10.0322 126.199 11.1157 149.412 7.99258 172.636C7.00467 179.97 5.65555 187.422 6.08046 194.735C7.10025 211.885 13.5802 222.994 32.988 224.181C43.7383 224.838 54.5098 225.347 65.2706 226.184C106.221 229.364 147.247 230.318 188.229 226.576C199.861 225.516 210.314 221.499 215.923 210.126C220.873 200.088 223.933 189.584 223.996 178.179C224.113 156.63 221.373 135.198 221.978 113.628C222.796 84.5116 222.456 55.4055 219.875 26.3523C219.163 18.3709 215.477 13.156 208.211 9.71117C196.558 4.18885 184.586 5.88476 172.848 8.06826C155.161 11.3647 137.336 12.1491 119.521 11.6403C94.0584 10.9195 68.5956 10.4955 43.1221 10.2411C34.4327 10.1564 26.6887 12.0749 20.3894 18.3391C17.8399 18.5617 17.5956 20.5014 17.3194 22.4199C17.1282 22.7485 16.9476 23.0771 16.7564 23.4057C15.3117 23.4799 14.9505 24.3172 15.1736 25.5892C15.0036 25.9178 14.8443 26.2569 14.6743 26.5855C13.2721 26.7445 12.8684 27.5819 13.1234 28.8644C12.8684 29.4898 12.6135 30.1151 12.3585 30.7405C10.3402 32.1396 9.98965 34.1959 10.1277 36.443C9.79844 37.7256 9.46914 38.9975 9.13983 40.28C7.28084 40.9054 7.53579 42.3045 7.87572 43.7355V43.7461Z" fill="black"/>
<path d="M91.5354 102.288C92.6554 101.168 93.4554 100.608 93.9354 100.608C94.2554 100.608 94.9274 100.864 95.9514 101.376C96.6234 101.728 97.1034 102.736 97.3914 104.4C97.6794 106.064 97.9514 109.648 98.2074 115.152C98.3994 119.248 98.4954 122.256 98.4954 124.176C98.4954 127.056 98.1274 129.088 97.3914 130.272C96.3994 131.84 95.3274 132.624 94.1754 132.624C93.1514 132.624 92.2394 132.016 91.4394 130.8C90.6714 129.552 90.1594 127.856 89.9034 125.712L89.4714 121.536L84.1434 122.16C80.5594 122.512 78.2554 122.688 77.2314 122.688C76.4954 122.688 76.0154 122.992 75.7914 123.6C75.5994 124.176 75.5034 125.504 75.5034 127.584C75.5034 129.696 75.3754 131.136 75.1194 131.904C74.8634 132.64 74.2234 133.312 73.1994 133.92C72.2074 134.624 71.4874 134.976 71.0394 134.976C70.6874 134.976 70.2234 134.688 69.6474 134.112C68.7194 133.248 67.9834 131.52 67.4394 128.928C66.8954 126.336 66.4474 122.464 66.0954 117.312C65.9674 115.616 65.9034 113.936 65.9034 112.272C65.9034 109.552 66.1754 107.648 66.7194 106.56C67.2634 105.472 68.2074 104.928 69.5514 104.928C71.1194 104.928 72.2074 105.408 72.8154 106.368C73.4234 107.328 73.7274 109.008 73.7274 111.408C73.7274 113.168 73.7754 114.288 73.8714 114.768C73.9674 115.248 74.2554 115.488 74.7354 115.488C75.0234 115.488 75.5194 115.408 76.2234 115.248C77.9514 114.8 80.6234 114.416 84.2394 114.096L89.7594 113.664V108.864C89.7594 107.04 89.8874 105.664 90.1434 104.736C90.3994 103.776 90.8634 102.96 91.5354 102.288ZM111.61 105.552C117.242 105.264 120.842 105.12 122.41 105.12C125.13 105.12 126.954 105.328 127.882 105.744C128.842 106.16 129.322 106.928 129.322 108.048C129.322 108.464 129.274 108.96 129.178 109.536C129.05 110.464 128.57 111.168 127.738 111.648C126.906 112.128 125.162 112.736 122.506 113.472C122.026 113.6 121.786 115.024 121.786 117.744C121.786 119.76 121.85 122.128 121.978 124.848C122.106 128.304 122.17 130.448 122.17 131.28C122.17 134.352 121.898 136.368 121.354 137.328C120.81 138.256 119.754 138.72 118.186 138.72C117.642 138.72 117.098 138.608 116.554 138.384C116.01 138.16 115.626 137.888 115.402 137.568C114.986 136.928 114.458 132.864 113.818 125.376L112.906 114.288L109.834 114C108.074 113.84 106.586 113.312 105.37 112.416C104.186 111.52 103.594 110.512 103.594 109.392C103.594 108.144 104.17 107.232 105.322 106.656C106.506 106.08 108.602 105.712 111.61 105.552ZM136.496 108.144C137.232 107.6 137.936 107.328 138.608 107.328C139.408 107.328 140.208 107.744 141.008 108.576C141.808 109.376 142.736 110.688 143.792 112.512C144.464 113.6 145.12 114.544 145.76 115.344C146.4 116.112 146.832 116.496 147.056 116.496C147.664 116.496 149.392 115.008 152.24 112.032C155.056 109.024 157.424 107.52 159.344 107.52C160.56 107.52 161.472 108.112 162.08 109.296C162.688 110.64 162.992 111.408 162.992 111.6C162.992 111.984 161.024 114.208 157.088 118.272L151.232 124.416L154.064 128.496C155.824 131.088 156.704 133.168 156.704 134.736C156.704 136.496 155.632 137.472 153.488 137.664C153.232 137.696 152.88 137.712 152.432 137.712C151.6 137.712 150.912 137.488 150.368 137.04C149.824 136.592 149.104 135.664 148.208 134.256C146.768 132.144 145.68 131.088 144.944 131.088C144.304 131.088 143.648 131.792 142.976 133.2C142.24 134.896 141.072 135.744 139.472 135.744C138.736 135.744 137.984 135.552 137.216 135.168C136.032 134.528 135.44 133.424 135.44 131.856C135.44 130.64 135.872 129.664 136.736 128.928C137.632 128.16 138.08 127.488 138.08 126.912C138.08 126.336 138.56 125.504 139.52 124.416C140.032 123.84 140.288 123.328 140.288 122.88C140.288 122.176 139.44 120.576 137.744 118.08C135.696 115.04 134.672 112.752 134.672 111.216C134.672 110 135.28 108.976 136.496 108.144Z" fill="#F5F5F5"/>
</svg>
