<svg width="229" height="235" viewBox="0 0 229 235" fill="none" xmlns="http://www.w3.org/2000/svg">
<path d="M94.4397 5.26498C117.148 5.24376 139.898 7.14301 162.511 3.48245C173.452 1.71053 184.309 -0.761677 195.515 0.225082C205.091 1.07391 213.599 4.38433 220.223 11.61C222.762 14.3792 224.223 17.7321 224.635 21.5836C227.968 52.5552 228.709 83.5903 227.588 114.7C226.931 132.907 229.206 151.04 228.942 169.237C228.804 179.083 229.852 189.036 226.635 198.638C222.678 210.447 218.064 221.991 206.276 228.135C197.039 232.941 186.669 233.482 176.468 233.96C138.766 235.71 101.085 235.254 63.4252 232.57C50.9601 231.678 38.4315 231.403 26.0405 229.684C13.6178 227.954 6.34824 220.103 2.31667 208.622C-0.953035 199.296 -0.15942 189.736 1.05746 180.335C3.73459 159.592 4.49645 138.891 3.19492 117.978C1.90397 97.1928 -0.455697 76.4178 0.634203 55.5367C1.44898 39.8546 6.05196 25.5625 16.9298 13.732C23.9242 6.13503 32.9926 4.1509 42.6642 4.10846C59.9333 4.0448 77.2024 3.91747 94.4503 5.25437L94.4397 5.26498Z" fill="black"/>
<path d="M7.87572 43.7461C5.49621 63.5035 6.99404 83.2397 8.38562 102.944C10.0322 126.199 11.1157 149.412 7.99258 172.636C7.00467 179.97 5.65555 187.422 6.08046 194.735C7.10025 211.885 13.5802 222.994 32.988 224.181C43.7383 224.838 54.5098 225.347 65.2706 226.184C106.221 229.364 147.247 230.318 188.229 226.576C199.861 225.516 210.314 221.499 215.923 210.126C220.873 200.088 223.933 189.584 223.996 178.179C224.113 156.63 221.373 135.198 221.978 113.628C222.796 84.5116 222.456 55.4055 219.875 26.3523C219.163 18.3709 215.477 13.156 208.211 9.71117C196.558 4.18885 184.586 5.88476 172.848 8.06826C155.161 11.3647 137.336 12.1491 119.521 11.6403C94.0584 10.9195 68.5956 10.4955 43.1221 10.2411C34.4327 10.1564 26.6887 12.0749 20.3894 18.3391C17.8399 18.5617 17.5956 20.5014 17.3194 22.4199C17.1282 22.7485 16.9476 23.0771 16.7564 23.4057C15.3117 23.4799 14.9505 24.3172 15.1736 25.5892C15.0036 25.9178 14.8443 26.2569 14.6743 26.5855C13.2721 26.7445 12.8684 27.5819 13.1234 28.8644C12.8684 29.4898 12.6135 30.1151 12.3585 30.7405C10.3402 32.1396 9.98965 34.1959 10.1277 36.443C9.79844 37.7256 9.46914 38.9975 9.13983 40.28C7.28084 40.9054 7.53579 42.3045 7.87572 43.7355V43.7461Z" fill="#242527"/>
<path d="M221.989 113.633C222.807 84.5153 222.467 55.4078 219.885 26.3533C219.174 18.3715 215.487 13.1563 208.222 9.71135C196.568 4.18876 184.596 5.88476 172.858 8.06835C155.171 11.3649 137.346 12.1493 119.532 11.6405C94.069 10.9197 68.6062 10.4957 43.1327 10.2413C34.4433 10.1565 26.6993 12.0751 20.4 18.3397C19.9432 20.1311 18.934 21.4985 17.3194 22.4207C17.1282 22.7493 16.9476 23.0779 16.7564 23.4065C16.9051 24.6255 16.4483 25.3993 15.1736 25.5901C15.0036 25.9187 14.8443 26.2579 14.6743 26.5865C14.9186 27.8691 14.2919 28.5475 13.1127 28.8655C12.8578 29.4909 12.6029 30.1163 12.3479 30.7417C12.3904 32.9465 11.7424 34.8863 10.1171 36.4445C9.78781 37.7165 9.45848 38.9991 9.1398 40.2817C9.57534 41.7551 9.50101 43.0271 7.87572 43.7373C5.49621 63.4956 6.99401 83.2327 8.38559 102.938C10.0321 126.194 11.1157 149.408 7.99255 172.633C7.00463 179.968 5.65555 187.42 6.08047 194.734C7.10025 211.885 13.5801 222.993 32.988 224.181C43.7382 224.838 54.5098 225.347 65.2707 226.184C106.222 229.364 147.247 230.318 188.229 226.576C199.861 225.516 210.314 221.499 215.923 210.125C220.873 200.087 223.933 189.582 223.996 178.177C224.113 156.627 221.373 135.194 221.978 113.623L221.989 113.633Z" fill="#95FFFD"/>
<path d="M164.988 149.781C163.325 150.612 163.665 152.262 163.276 153.521C159.392 165.868 151.077 174.963 138.732 181.137C136.231 182.383 133.609 183.487 131.946 185.684C130.283 187.868 128.984 186.99 127.467 185.529C116.955 175.426 113.252 163.909 118.108 150.446C120.791 143.037 124.978 136.365 129.822 130.001C135.891 122.023 141.56 113.878 144.607 104C154.888 111.919 161.419 121.358 164.041 132.957C164.223 133.741 163.859 134.726 165 135.166V149.781H164.988Z" fill="white"/>
<path d="M129.951 190C127.768 190 126.216 188.504 125.355 187.673C113.606 176.371 110.211 163.513 115.279 149.48C117.753 142.642 121.597 135.899 127.405 128.253C132.994 120.904 138.693 112.902 141.7 103.167L142.986 99L146.478 101.695C157.548 110.231 164.253 120.251 166.969 132.349C167.006 132.515 167.03 132.669 167.054 132.824L168 133.192V151.594L166.557 152.353C166.521 152.508 166.496 152.721 166.472 152.876C166.412 153.315 166.327 153.861 166.157 154.431C162.119 167.3 153.353 177.19 140.124 183.815L139.202 184.266C137.262 185.216 135.432 186.118 134.389 187.483C133.213 189.026 131.842 189.869 130.315 189.988C130.193 189.988 130.072 190 129.951 190ZM146.041 109.079C142.549 117.889 137.178 125.368 132.279 131.803C126.847 138.962 123.258 145.206 121.002 151.463C116.734 163.3 119.547 173.759 129.611 183.447C129.672 183.506 129.733 183.565 129.793 183.613C131.673 181.321 134.231 180.063 136.499 178.959L137.372 178.532C149.254 172.584 156.784 164.119 160.373 152.686C160.41 152.567 160.446 152.282 160.482 152.057C160.604 151.202 160.822 149.682 161.949 148.424V136.563C161.404 135.839 161.113 134.901 161.064 133.762C161.064 133.69 161.064 133.619 161.064 133.548C158.942 124.169 154.02 116.108 146.053 109.079H146.041Z" fill="black"/>
<path d="M111.145 48.0201C112.232 47.8647 112.853 48.6417 113.403 49.2394C125.661 62.5673 131.933 77.748 129.472 95.3911C128.576 101.81 124.717 107.201 120.679 112.341C116.461 117.696 112.161 123.027 107.585 128.119C91.958 145.523 91.2173 163.692 103.786 182.734C104.718 184.144 106.868 185.914 105.769 187.264C104.395 188.962 101.97 187.252 100.166 186.798C69.6767 179.112 55.4955 144.639 71.9108 118.449C75.471 112.783 79.8675 107.715 84.957 103.256C101.898 88.3984 110.799 70.3848 110.775 48.7254C110.775 48.4983 111.002 48.2711 111.145 48.0082V48.0201Z" fill="white"/>
<path d="M104.305 191C102.835 191 101.448 190.45 100.552 190.103C100.146 189.948 99.7273 189.781 99.4644 189.709C83.8205 185.764 71.4392 175.017 65.5115 160.253C59.7272 145.837 61.1374 130.021 69.3837 116.859C73.0048 111.085 77.594 105.742 82.9959 101.008C99.7154 86.3517 107.83 69.245 107.806 48.7194C107.806 47.6435 108.32 46.8904 108.535 46.5676L109.252 45.2407L110.746 45.0494C113.328 44.6908 114.857 46.3764 115.515 47.0936L115.622 47.2012C129.222 62.0007 134.887 78.3423 132.449 95.7956C131.445 103.016 127.251 108.838 123.044 114.181C119.231 119.023 114.678 124.701 109.814 130.117C95.3891 146.171 94.2418 162.848 106.288 181.09C106.468 181.353 106.695 181.628 106.934 181.927C107.985 183.218 110.471 186.242 108.105 189.159C106.97 190.558 105.595 191 104.281 191H104.305ZM113.626 53.9674C112.312 73.7996 103.36 91.1215 86.9517 105.503C81.98 109.854 77.7852 114.755 74.4628 120.039C67.2444 131.551 66.0015 145.406 71.0688 158.03C76.2794 171 87.1668 180.444 100.934 183.923C100.97 183.923 100.994 183.935 101.03 183.947C87.7763 163.565 89.2463 144.115 105.404 126.136C110.149 120.852 114.63 115.269 118.383 110.499C122.076 105.801 125.757 100.733 126.557 94.9827C128.613 80.2191 124.382 66.7705 113.638 53.9793L113.626 53.9674Z" fill="black"/>
</svg>
