<svg width="242" height="246" viewBox="0 0 242 246" fill="none" xmlns="http://www.w3.org/2000/svg">
<path d="M120.529 0.104132C137.988 1.43239 159.082 4.54273 178.92 13.3424C200.091 22.7399 216.526 37.3839 226.439 58.6581C234.304 75.5492 239.217 93.37 241.398 111.91C243.414 129.045 240.098 145.504 235.461 161.919C232.057 173.984 227.706 185.518 221.108 196.177C211.106 212.338 198.274 225.498 180.947 233.678C150.149 248.223 118.117 248.267 85.4023 242.146C72.1511 239.666 62.3587 231.387 51.3877 224.712C32.3426 213.123 22.6493 194.495 12.5264 175.999C6.14867 164.354 1.5554 152.223 0.354751 138.708C-0.746758 126.344 0.784347 114.445 4.01177 102.701C7.9772 88.234 12.5705 73.9774 18.8821 60.2853C25.8657 45.1431 35.8344 32.7461 49.7244 23.5036C58.5144 17.6593 67.3375 11.8813 77.0968 7.76375C89.7091 2.43965 102.773 -0.648548 120.518 0.1152L120.529 0.104132Z" fill="black"/>
<path d="M121.457 239.786C135.289 240.242 147.782 238.186 160.163 235.096C181.25 229.827 198.006 218.101 210.986 200.773C220.754 187.747 225.87 172.741 230.666 157.303C241.375 122.814 234.985 90.2805 220.156 59.0812C208.095 33.6949 185.824 20.0459 159.444 12.7768C146.829 9.29783 133.85 7.89736 120.87 6.35239C112.021 5.29648 103.682 6.8081 95.1873 8.31972C82.263 10.6205 71.3433 17.3894 60.1577 23.7249C39.0047 35.7067 26.324 54.1907 18.5605 76.6982C15.2602 86.2792 12.4583 96.0047 9.65637 105.741C5.73588 119.346 4.84989 132.884 7.5743 146.744C10.3652 160.926 17.5195 173.253 24.6185 185.435C32.4816 198.928 40.821 212.221 55.4509 219.857C62.5831 223.581 67.7661 230.794 75.7067 232.917C90.99 237.007 106.384 240.92 121.446 239.808L121.457 239.786Z" fill="black"/>
<path d="M58.5323 106.992C59.3003 105.744 60.1643 105.12 61.1243 105.12C62.4043 105.12 64.6283 106.512 67.7963 109.296L72.6923 113.664L75.8123 110.112C77.9563 107.68 79.9723 106.464 81.8603 106.464C83.2363 106.464 84.5643 107.104 85.8443 108.384C86.7083 109.216 87.2523 110.288 87.4763 111.6C87.7003 112.88 87.8923 115.808 88.0523 120.384C88.1163 122.56 88.1483 124.032 88.1483 124.8C88.1483 128.48 87.8603 130.976 87.2843 132.288C86.7403 133.6 85.7323 134.256 84.2603 134.256C82.7563 134.256 81.7003 133.568 81.0923 132.192C80.5163 130.784 80.2283 128.304 80.2283 124.752V118.8L77.6843 121.632C76.0203 123.424 74.4843 124.32 73.0763 124.32C71.6043 124.32 69.9883 123.376 68.2283 121.488L65.3963 118.368L64.7723 122.448C64.4203 125.136 64.2443 127.536 64.2443 129.648C64.2443 131.472 63.7163 133.008 62.6603 134.256C61.6043 135.504 60.4203 136.128 59.1083 136.128C57.9243 136.128 56.9323 135.632 56.1323 134.64C55.7803 134.192 55.6043 132.592 55.6043 129.84C55.6043 125.904 55.9083 121.376 56.5163 116.256C57.1243 111.136 57.7963 108.048 58.5323 106.992ZM98.0974 106.656C100.337 105.632 102.417 105.12 104.337 105.12C106.225 105.12 107.521 105.664 108.225 106.752C108.513 107.232 108.657 107.744 108.657 108.288C108.657 109.888 107.649 111.216 105.633 112.272C104.641 112.816 104.145 113.808 104.145 115.248C104.145 115.696 104.161 116.064 104.193 116.352C104.321 118.496 104.785 119.568 105.585 119.568C106.065 119.568 106.801 119.248 107.793 118.608C108.305 118.256 109.041 118.08 110.001 118.08C110.417 118.08 110.705 118.112 110.865 118.176C112.337 118.784 113.073 119.92 113.073 121.584C113.073 122.608 112.769 123.6 112.161 124.56C111.553 125.52 110.705 126.224 109.617 126.672C107.953 127.344 107.121 128.128 107.121 129.024C107.121 129.792 107.809 130.512 109.185 131.184C109.985 131.536 110.689 131.712 111.297 131.712C112.001 131.712 112.897 131.488 113.985 131.04C114.881 130.688 115.633 130.512 116.241 130.512C117.969 130.512 119.025 131.84 119.409 134.496C119.409 134.528 119.409 134.592 119.409 134.688C119.441 134.784 119.457 134.848 119.457 134.88C119.457 136.256 118.609 137.36 116.913 138.192C115.249 139.024 113.265 139.44 110.961 139.44C107.953 139.44 105.505 138.752 103.617 137.376C102.017 136.192 100.689 134.432 99.6334 132.096C98.6094 129.728 97.7294 126.464 96.9934 122.304C96.6414 120.32 96.1934 118.464 95.6494 116.736C95.1054 115.008 94.6414 113.92 94.2574 113.472C93.6174 112.8 93.2974 112.08 93.2974 111.312C93.2974 109.648 94.8974 108.096 98.0974 106.656ZM126.621 108.144C127.357 107.6 128.061 107.328 128.733 107.328C129.533 107.328 130.333 107.744 131.133 108.576C131.933 109.376 132.861 110.688 133.917 112.512C134.589 113.6 135.245 114.544 135.885 115.344C136.525 116.112 136.957 116.496 137.181 116.496C137.789 116.496 139.517 115.008 142.365 112.032C145.181 109.024 147.549 107.52 149.469 107.52C150.685 107.52 151.597 108.112 152.205 109.296C152.813 110.64 153.117 111.408 153.117 111.6C153.117 111.984 151.149 114.208 147.213 118.272L141.357 124.416L144.189 128.496C145.949 131.088 146.829 133.168 146.829 134.736C146.829 136.496 145.757 137.472 143.613 137.664C143.357 137.696 143.005 137.712 142.557 137.712C141.725 137.712 141.037 137.488 140.493 137.04C139.949 136.592 139.229 135.664 138.333 134.256C136.893 132.144 135.805 131.088 135.069 131.088C134.429 131.088 133.773 131.792 133.101 133.2C132.365 134.896 131.197 135.744 129.597 135.744C128.861 135.744 128.109 135.552 127.341 135.168C126.157 134.528 125.565 133.424 125.565 131.856C125.565 130.64 125.997 129.664 126.861 128.928C127.757 128.16 128.205 127.488 128.205 126.912C128.205 126.336 128.685 125.504 129.645 124.416C130.157 123.84 130.413 123.328 130.413 122.88C130.413 122.176 129.565 120.576 127.869 118.08C125.821 115.04 124.797 112.752 124.797 111.216C124.797 110 125.405 108.976 126.621 108.144ZM165.846 109.104C168.342 107.504 170.166 106.704 171.318 106.704C171.99 106.704 172.87 106.96 173.958 107.472C175.11 108.08 175.686 109.008 175.686 110.256C175.686 111.248 175.286 112.304 174.486 113.424C173.718 114.512 172.614 115.52 171.174 116.448C169.286 117.568 168.342 119.472 168.342 122.16C168.342 123.088 168.502 124.24 168.822 125.616C169.142 126.736 169.686 127.616 170.454 128.256C171.254 128.864 172.198 129.168 173.286 129.168C174.246 129.168 175.19 128.944 176.118 128.496C177.59 127.824 178.886 127.488 180.006 127.488C181.766 127.488 182.982 128.224 183.654 129.696C184.006 130.496 184.182 131.088 184.182 131.472C184.182 132.112 183.686 132.944 182.694 133.968C181.638 135.088 180.198 136 178.374 136.704C176.582 137.376 174.774 137.712 172.95 137.712C171.67 137.712 170.55 137.552 169.59 137.232C166.038 136.176 163.27 134.272 161.286 131.52C159.302 128.768 158.31 125.728 158.31 122.4C158.31 119.808 158.95 117.344 160.23 115.008C161.51 112.64 163.382 110.672 165.846 109.104Z" fill="#F5F5F5"/>
</svg>
