<svg width="242" height="246" viewBox="0 0 242 246" fill="none" xmlns="http://www.w3.org/2000/svg">
<path d="M120.529 0.104132C137.988 1.43239 159.082 4.54273 178.92 13.3424C200.091 22.7399 216.526 37.3839 226.439 58.6581C234.304 75.5492 239.217 93.37 241.398 111.91C243.414 129.045 240.098 145.504 235.461 161.919C232.057 173.984 227.706 185.518 221.108 196.177C211.106 212.338 198.274 225.498 180.947 233.678C150.149 248.223 118.117 248.267 85.4023 242.146C72.1511 239.666 62.3587 231.387 51.3877 224.712C32.3426 213.123 22.6493 194.495 12.5264 175.999C6.14867 164.354 1.5554 152.223 0.354751 138.708C-0.746758 126.344 0.784347 114.445 4.01177 102.701C7.9772 88.234 12.5705 73.9774 18.8821 60.2853C25.8657 45.1431 35.8344 32.7461 49.7244 23.5036C58.5144 17.6593 67.3375 11.8813 77.0968 7.76375C89.7091 2.43965 102.773 -0.648548 120.518 0.1152L120.529 0.104132Z" fill="black"/>
<path d="M121.457 239.786C135.289 240.242 147.782 238.186 160.163 235.096C181.25 229.827 198.006 218.101 210.986 200.773C220.754 187.747 225.87 172.741 230.666 157.303C241.375 122.814 234.985 90.2805 220.156 59.0812C208.095 33.6949 185.824 20.0459 159.444 12.7768C146.829 9.29783 133.85 7.89736 120.87 6.35239C112.021 5.29648 103.682 6.8081 95.1873 8.31972C82.263 10.6205 71.3433 17.3894 60.1577 23.7249C39.0047 35.7067 26.324 54.1907 18.5605 76.6982C15.2602 86.2792 12.4583 96.0047 9.65637 105.741C5.73588 119.346 4.84989 132.884 7.5743 146.744C10.3652 160.926 17.5195 173.253 24.6185 185.435C32.4816 198.928 40.821 212.221 55.4509 219.857C62.5831 223.581 67.7661 230.794 75.7067 232.917C90.99 237.007 106.384 240.92 121.446 239.808L121.457 239.786Z" fill="#1C2729"/>
<path d="M220.166 59.0812C208.105 33.6949 185.832 20.0459 159.451 12.7768C146.836 9.29782 133.856 7.89736 120.875 6.35239C112.026 5.29648 103.686 6.8081 95.1916 8.31972C82.2667 10.6205 71.3464 17.3894 60.1603 23.7249C39.0063 35.7067 26.325 54.1907 18.5611 76.6982C15.2607 86.2792 12.4586 96.0047 9.65655 105.741C5.73587 119.346 4.84983 132.884 7.57437 146.744C10.3654 160.926 17.5201 173.253 24.6194 185.435C32.4829 198.928 40.8227 212.221 55.4532 219.857C62.5858 223.581 67.769 230.794 75.7101 232.917C90.9941 237.007 106.389 240.92 121.451 239.808C135.284 240.264 147.778 238.208 160.16 235.118C181.247 229.85 198.004 218.123 210.985 200.795C220.753 187.769 225.87 172.764 230.666 157.325C241.375 122.836 234.985 90.3028 220.155 59.0923L220.166 59.0812Z" fill="#95FFFD"/>
<g clip-path="url(#clip0_595_135)">
<path d="M122.75 92.8899C122.73 92.4499 122.72 92.0099 122.7 91.5699C126.41 85.1499 129.95 78.6199 133.88 72.3399C142.65 58.3099 162.98 58.6899 171.28 72.9999C184.29 95.4399 197.26 117.89 210.14 140.41C218.8 155.56 208.47 173.21 191.01 173.29C189.25 173.29 187.49 173.29 185.73 173.29C184.88 172.52 183.82 173 182.86 172.8C173.63 170.91 166.51 165.94 161.35 158.12C159.04 154.62 156.77 151.11 154.48 147.6C154.42 146.8 153.95 146.19 153.57 145.53C149.96 139.34 146.46 133.08 142.74 126.96C140.32 122.99 138.45 118.69 135.64 114.96C132.1 108.73 128.59 102.48 124.98 96.2899C124.3 95.1299 124.07 93.6499 122.77 92.8899H122.75Z" fill="white"/>
<path d="M188.75 177.29C188.31 177.29 187.88 177.29 187.44 177.29H185.72H184.18L183.69 176.85C183.25 176.86 182.67 176.85 182.04 176.72C171.89 174.64 163.8 169.13 157.99 160.32C156.38 157.89 154.79 155.44 153.2 153L150.55 148.94L150.49 148.22C150.44 148.13 150.38 148.05 150.33 147.96L150.08 147.55C148.85 145.45 147.64 143.34 146.42 141.23C144.11 137.21 141.72 133.05 139.28 129.04C138.35 127.5 137.5 125.94 136.68 124.43C135.31 121.9 134.01 119.5 132.4 117.37L132.12 116.94L129.36 112.08C126.79 107.55 124.14 102.87 121.48 98.31C121.16 97.76 120.93 97.23 120.74 96.8C120.66 96.61 120.55 96.36 120.47 96.21L118.8 95.23L118.62 90.57L119.2 89.57C120.35 87.58 121.49 85.57 122.63 83.57C125.13 79.17 127.71 74.62 130.46 70.22C135.35 62.44 143.73 57.89 152.79 58.04C161.91 58.19 170.12 63.03 174.73 70.99C189.84 97.04 202.19 118.47 213.6 138.42C218.36 146.74 218.46 156.46 213.87 164.41C209.25 172.43 200.7 177.24 191.01 177.29C190.25 177.29 189.49 177.29 188.74 177.29H188.75ZM186.78 169.29H187.44C188.62 169.29 189.8 169.29 190.98 169.29C197.79 169.26 203.76 165.94 206.94 160.41C210.09 154.95 209.98 148.21 206.65 142.39C195.25 122.45 182.9 101.04 167.81 75C164.62 69.49 158.95 66.14 152.66 66.04C146.41 65.94 140.63 69.08 137.27 74.46C134.61 78.71 132.07 83.19 129.62 87.51C128.81 88.94 128 90.37 127.18 91.8C127.61 92.47 127.89 93.11 128.1 93.61C128.21 93.87 128.33 94.14 128.41 94.28C131.09 98.88 133.76 103.59 136.34 108.13L138.97 112.77C140.86 115.32 142.32 118.01 143.73 120.62C144.54 122.11 145.3 123.52 146.14 124.89C148.63 128.98 151.04 133.18 153.38 137.24C154.59 139.34 155.79 141.43 157.01 143.52L157.17 143.79C157.5 144.33 157.96 145.08 158.23 146.06L159.91 148.64C161.49 151.07 163.07 153.5 164.67 155.92C169.31 162.95 175.47 167.18 183.5 168.86C183.57 168.86 183.64 168.86 183.71 168.86C184.37 168.83 185.53 168.79 186.77 169.3L186.78 169.29Z" fill="black"/>
<path d="M105.67 173.18C108.75 173.41 111.83 173.38 114.91 173.24C124.72 173.24 134.53 173.26 144.34 173.27C158.13 173.27 171.92 173.28 185.71 173.29C184.86 172.52 183.8 173 182.84 172.8C173.61 170.91 166.49 165.94 161.33 158.12C159.02 154.62 156.75 151.11 154.46 147.6C154.4 146.8 153.93 146.19 153.55 145.53C149.94 139.34 146.44 133.08 142.72 126.96C140.3 122.99 138.43 118.69 135.62 114.96C132.08 108.73 128.57 102.48 124.96 96.29C124.28 95.13 124.05 93.65 122.75 92.89C122.73 92.45 122.72 92.01 122.7 91.57C121.91 91.24 121.71 90.45 121.34 89.8C118.15 84.31 114.99 78.8 111.8 73.32C103.03 58.24 82.6 58.21 73.83 73.32C60.94 95.54 48.1 117.8 35.27 140.06C26.35 155.53 36.58 173.25 54.43 173.29C63.32 173.31 72.2 173.31 81.09 173.29C89.28 173.27 97.48 173.23 105.67 173.19" fill="white"/>
<path d="M110.44 177.35C108.69 177.35 107.08 177.29 105.54 177.18L98.18 177.21C92.49 177.24 86.8 177.26 81.1 177.27C72.21 177.29 63.32 177.29 54.43 177.27C44.6 177.25 35.97 172.46 31.35 164.44C26.73 156.43 26.9 146.56 31.81 138.05L32.62 136.64C44.97 115.22 57.75 93.07 70.37 71.31C75.21 62.98 83.59 58 92.79 58H92.8C102.01 58 110.41 62.97 115.25 71.31C116.9 74.15 118.55 77 120.19 79.85C121.72 82.5 123.25 85.15 124.78 87.79C124.86 87.92 124.93 88.06 125 88.19L126.58 88.84L126.67 91.09C127.39 91.99 127.8 92.93 128.09 93.6C128.2 93.86 128.32 94.13 128.4 94.27C131.09 98.88 133.75 103.59 136.34 108.14L138.96 112.76C140.85 115.31 142.31 118 143.72 120.61C144.53 122.1 145.29 123.51 146.13 124.88C148.62 128.97 151.03 133.17 153.37 137.23C154.58 139.33 155.78 141.42 157 143.51L157.16 143.78C157.47 144.29 157.94 145.05 158.22 146.05L159.87 148.59C161.46 151.04 163.06 153.48 164.66 155.92C169.3 162.95 175.46 167.18 183.49 168.86C183.56 168.86 183.63 168.86 183.7 168.86C184.64 168.82 186.61 168.74 188.38 170.33L196.12 177.31L114.98 177.26C113.34 177.33 111.83 177.37 110.41 177.37L110.44 177.35ZM105.82 169.18H105.98C108.5 169.38 111.29 169.4 114.75 169.24H114.93L166.04 169.27C163.01 166.81 160.33 163.82 158.02 160.31C156.4 157.86 154.8 155.4 153.2 152.94L150.58 148.92L150.52 148.2C150.47 148.12 150.42 148.03 150.36 147.95C150.28 147.81 150.19 147.68 150.11 147.54C148.88 145.44 147.67 143.33 146.45 141.21C144.14 137.19 141.75 133.03 139.31 129.02C138.38 127.48 137.53 125.92 136.71 124.41C135.34 121.88 134.04 119.48 132.43 117.35L132.15 116.92L129.4 112.08C126.83 107.55 124.17 102.86 121.51 98.29C121.19 97.74 120.96 97.21 120.77 96.78C120.69 96.59 120.58 96.34 120.5 96.19L118.84 95.21L118.77 93.35C118.39 92.83 118.15 92.34 117.99 92.01C117.95 91.94 117.92 91.86 117.88 91.79C116.34 89.15 114.81 86.49 113.28 83.84C111.64 81 110 78.15 108.35 75.32C104.95 69.48 99.14 65.99 92.81 65.99C86.49 65.99 80.69 69.48 77.3 75.32C64.68 97.07 51.91 119.22 39.56 140.64L38.75 142.05C35.28 148.06 35.11 154.94 38.29 160.45C41.47 165.96 47.51 169.26 54.46 169.28C63.34 169.3 72.22 169.3 81.1 169.28C86.78 169.27 92.47 169.24 98.15 169.22L105.82 169.19V169.18Z" fill="black"/>
</g>
<defs>
<clipPath id="clip0_595_135">
<rect width="189.25" height="119.35" fill="white" transform="translate(28 58)"/>
</clipPath>
</defs>
</svg>
