<svg width="127" height="129" viewBox="0 0 127 129" fill="none" xmlns="http://www.w3.org/2000/svg">
<path d="M52.0678 2.89014C64.5875 2.87849 77.1305 3.92106 89.5977 1.91164C95.63 0.93897 101.616 -0.418112 107.794 0.123556C113.074 0.589507 117.764 2.40672 121.416 6.37312C122.816 7.89329 123.621 9.73379 123.849 11.848C125.687 28.8494 126.095 45.8858 125.477 62.9629C125.115 72.9575 126.369 82.9114 126.223 92.9002C126.147 98.3052 126.725 103.769 124.951 109.04C122.77 115.522 120.226 121.859 113.727 125.231C108.634 127.87 102.917 128.167 97.2927 128.429C76.5062 129.39 55.7315 129.14 34.9684 127.666C28.096 127.177 21.1886 127.025 14.357 126.082C7.50794 125.132 3.5 120.822 1.27726 114.52C-0.52544 109.401 -0.0878936 104.153 0.583012 98.9925C2.05901 87.6058 2.47905 76.2425 1.76147 64.7626C1.04972 53.3526 -0.251241 41.9485 0.349657 30.4861C0.798873 21.8776 3.33664 14.0322 9.33396 7.538C13.1902 3.36774 18.1899 2.27858 23.5222 2.25528C33.0432 2.22034 42.5642 2.15044 52.0736 2.88431L52.0678 2.89014Z" fill="black"/>
<path d="M4.32323 24.0139C3.01703 34.8594 3.83924 45.6934 4.60313 56.5098C5.50697 69.2755 6.10176 82.0178 4.38738 94.766C3.84508 98.7924 3.1045 102.883 3.33775 106.897C3.89755 116.312 7.45461 122.409 18.1083 123.061C24.0095 123.422 29.9223 123.701 35.8294 124.161C58.3088 125.906 80.829 126.43 103.326 124.376C109.711 123.794 115.449 121.589 118.528 115.346C121.245 109.836 122.925 104.07 122.96 97.809C123.024 85.9802 121.519 74.2153 121.852 62.3748C122.301 46.3916 122.114 30.4142 120.697 14.4658C120.306 10.0846 118.283 7.22189 114.294 5.3309C107.898 2.2995 101.326 3.23044 94.8823 4.42904C85.1733 6.23857 75.3885 6.66914 65.6095 6.38985C51.632 5.9942 37.6545 5.76146 23.6713 5.62182C18.9013 5.57527 14.6503 6.62841 11.1924 10.0671C9.79292 10.1893 9.65881 11.2541 9.5072 12.3072C9.40224 12.4876 9.30311 12.6679 9.19815 12.8483C8.4051 12.889 8.20683 13.3487 8.32928 14.0469C8.23598 14.2273 8.14851 14.4135 8.05521 14.5938C7.28549 14.6811 7.06391 15.1408 7.20386 15.8448C7.06391 16.1881 6.92396 16.5314 6.78401 16.8747C5.67607 17.6427 5.48364 18.7715 5.55945 20.005C5.37868 20.709 5.19791 21.4072 5.01715 22.1113C3.99668 22.4545 4.13663 23.2226 4.32323 24.0081V24.0139Z" fill="black"/>
<path d="M34.5601 43.896C33.8775 43.2773 33.4081 42.968 33.1521 42.968C32.8961 42.968 32.4695 43.2987 31.8721 43.96C30.6561 45.304 30.0481 46.7333 30.0481 48.248C30.0481 49.08 30.2508 49.7947 30.6561 50.392C31.0615 50.968 31.6481 51.352 32.4161 51.544C32.7361 51.6293 33.0348 51.672 33.3121 51.672C33.9308 51.672 34.4428 51.4053 34.8481 50.872C35.3815 50.1253 35.6481 49.016 35.6481 47.544C35.6481 45.7307 35.2855 44.5147 34.5601 43.896ZM27.9041 40.44C28.8855 39.3947 29.6535 38.7547 30.2081 38.52C30.7628 38.264 31.7121 38.136 33.0561 38.136C35.5948 38.136 37.5468 38.9573 38.9121 40.6C40.2775 42.2213 40.9601 44.5573 40.9601 47.608C40.9601 49.6347 40.5441 51.448 39.7121 53.048C38.9015 54.648 37.8348 55.7253 36.5121 56.28C35.2748 56.792 34.2935 57.048 33.5681 57.048C32.7361 57.048 31.5201 56.6533 29.9201 55.864C28.3841 55.1173 27.1895 53.9973 26.3361 52.504C25.4828 50.9893 25.0561 49.3467 25.0561 47.576C25.0561 44.7813 26.0055 42.4027 27.9041 40.44ZM54.8006 42.392C54.3526 41.944 53.734 41.72 52.9446 41.72C51.9633 41.72 51.3553 42.0293 51.1206 42.648C50.9073 43.2027 50.8006 43.9387 50.8006 44.856C50.8006 46.2427 50.9926 47.064 51.3766 47.32C51.462 47.3627 51.5686 47.384 51.6966 47.384C52.2726 47.384 52.9553 47.1707 53.7446 46.744C54.9393 46.104 55.5366 45.2293 55.5366 44.12C55.5366 43.4587 55.2913 42.8827 54.8006 42.392ZM47.5046 36.6C48.6566 36.088 49.9153 35.832 51.2806 35.832C53.8406 35.832 56.1233 36.664 58.1286 38.328C60.1553 39.992 61.1686 41.9227 61.1686 44.12C61.1686 44.824 61.062 45.496 60.8486 46.136C60.4433 47.3947 59.5473 48.632 58.1606 49.848C56.774 51.064 55.302 51.9173 53.7446 52.408C52.5926 52.7493 51.91 53.08 51.6966 53.4C51.4833 53.72 51.3766 54.5627 51.3766 55.928C51.3766 57.3787 51.174 58.424 50.7686 59.064C50.3846 59.7253 49.7553 60.056 48.8806 60.056C47.878 60.056 47.142 59.3733 46.6726 58.008C46.2246 56.6213 45.9153 54.1467 45.7446 50.584C45.51 46.104 45.1686 43.1067 44.7206 41.592C44.5286 40.952 44.4326 40.3867 44.4326 39.896C44.4326 39.1707 44.6673 38.5627 45.1366 38.072C45.606 37.56 46.3953 37.0693 47.5046 36.6ZM67.8826 38.104C69.376 37.4213 70.7626 37.08 72.0426 37.08C73.3013 37.08 74.1653 37.4427 74.6346 38.168C74.8266 38.488 74.9226 38.8293 74.9226 39.192C74.9226 40.2587 74.2506 41.144 72.9066 41.848C72.2453 42.2107 71.9146 42.872 71.9146 43.832C71.9146 44.1307 71.9253 44.376 71.9466 44.568C72.032 45.9973 72.3413 46.712 72.8746 46.712C73.1946 46.712 73.6853 46.4987 74.3466 46.072C74.688 45.8373 75.1786 45.72 75.8186 45.72C76.096 45.72 76.288 45.7413 76.3946 45.784C77.376 46.1893 77.8666 46.9467 77.8666 48.056C77.8666 48.7387 77.664 49.4 77.2586 50.04C76.8533 50.68 76.288 51.1493 75.5626 51.448C74.4533 51.896 73.8986 52.4187 73.8986 53.016C73.8986 53.528 74.3573 54.008 75.2746 54.456C75.808 54.6907 76.2773 54.808 76.6826 54.808C77.152 54.808 77.7493 54.6587 78.4746 54.36C79.072 54.1253 79.5733 54.008 79.9786 54.008C81.1306 54.008 81.8346 54.8933 82.0906 56.664C82.0906 56.6853 82.0906 56.728 82.0906 56.792C82.112 56.856 82.1226 56.8987 82.1226 56.92C82.1226 57.8373 81.5573 58.5733 80.4266 59.128C79.3173 59.6827 77.9946 59.96 76.4586 59.96C74.4533 59.96 72.8213 59.5013 71.5626 58.584C70.496 57.7947 69.6106 56.6213 68.9066 55.064C68.224 53.4853 67.6373 51.3093 67.1466 48.536C66.912 47.2133 66.6133 45.976 66.2506 44.824C65.888 43.672 65.5786 42.9467 65.3226 42.648C64.896 42.2 64.6826 41.72 64.6826 41.208C64.6826 40.0987 65.7493 39.064 67.8826 38.104ZM97.3306 40.44C97.736 39.7147 98.44 39.352 99.4426 39.352C100.339 39.352 101.021 39.64 101.491 40.216C101.853 40.6853 102.035 42.0187 102.035 44.216C102.035 45.3467 102.013 46.264 101.971 46.968C101.907 49.3147 101.779 50.9573 101.587 51.896C101.416 52.8347 101.107 53.56 100.659 54.072C99.912 54.8827 99.0373 55.288 98.0346 55.288C96.776 55.288 95.464 54.6693 94.0986 53.432C93.096 52.5573 92.36 52.12 91.8906 52.12C91.1866 52.12 90.8346 53.1867 90.8346 55.32C90.8346 56.5573 90.6106 57.464 90.1626 58.04C89.7146 58.5947 89.0106 58.872 88.0506 58.872C87.0266 58.872 86.344 58.296 86.0026 57.144C85.6613 55.9707 85.4906 53.6453 85.4906 50.168C85.4906 47.7573 85.5546 45.9867 85.6826 44.856C85.832 43.704 86.088 42.8827 86.4506 42.392C87.0266 41.5173 87.8053 41.08 88.7866 41.08C89.7466 41.08 90.4506 41.5173 90.8986 42.392C91.304 43.1813 92.2213 44.3547 93.6506 45.912C95.08 47.448 95.9546 48.216 96.2746 48.216C96.3386 48.216 96.4026 48.0667 96.4666 47.768C96.552 47.4693 96.616 47.064 96.6586 46.552C96.7226 46.0187 96.7546 45.464 96.7546 44.888C96.7546 42.776 96.9466 41.2933 97.3306 40.44ZM37.4259 70.072C38.6205 69.3467 39.9432 68.984 41.3939 68.984C42.3539 68.984 43.0792 69.1547 43.5699 69.496C43.9965 69.752 44.2099 70.3173 44.2099 71.192C44.2099 71.4053 44.1992 71.5653 44.1779 71.672C44.1139 72.3547 43.9219 72.856 43.6019 73.176C43.3032 73.4747 42.7379 73.7627 41.9059 74.04C40.4979 74.5093 39.7939 74.9573 39.7939 75.384C39.7939 75.7893 40.4765 76.1947 41.8419 76.6C43.5059 77.0907 44.8605 78.04 45.9059 79.448C46.9725 80.856 47.5059 82.3707 47.5059 83.992C47.5059 84.824 47.3459 85.6347 47.0259 86.424C45.7672 89.304 43.4205 90.744 39.9859 90.744C39.6019 90.744 39.3139 90.7333 39.1219 90.712C37.3725 90.6053 36.0179 90.2213 35.0579 89.56C34.0979 88.8987 33.6179 88.0347 33.6179 86.968C33.6179 86.264 33.8312 85.72 34.2579 85.336C34.6845 84.952 35.2819 84.76 36.0499 84.76C36.6472 84.76 37.2765 84.8667 37.9379 85.08C38.6632 85.3147 39.3459 85.432 39.9859 85.432C41.2659 85.432 41.9059 84.8773 41.9059 83.768C41.9059 83 41.3725 82.392 40.3059 81.944C38.0019 81.048 36.4765 80.3653 35.7299 79.896C35.0045 79.4053 34.4819 78.776 34.1619 78.008C33.9912 77.56 33.9059 77.0907 33.9059 76.6C33.9059 75.4267 34.2472 74.2 34.9299 72.92C35.6125 71.6187 36.4445 70.6693 37.4259 70.072ZM54.2264 70.104C55.7197 69.4213 57.1064 69.08 58.3864 69.08C59.645 69.08 60.509 69.4427 60.9784 70.168C61.1704 70.488 61.2664 70.8293 61.2664 71.192C61.2664 72.2587 60.5944 73.144 59.2504 73.848C58.589 74.2107 58.2584 74.872 58.2584 75.832C58.2584 76.1307 58.269 76.376 58.2904 76.568C58.3757 77.9973 58.685 78.712 59.2184 78.712C59.5384 78.712 60.029 78.4987 60.6904 78.072C61.0317 77.8373 61.5224 77.72 62.1624 77.72C62.4397 77.72 62.6317 77.7413 62.7384 77.784C63.7197 78.1893 64.2104 78.9467 64.2104 80.056C64.2104 80.7387 64.0077 81.4 63.6024 82.04C63.197 82.68 62.6317 83.1493 61.9064 83.448C60.797 83.896 60.2424 84.4187 60.2424 85.016C60.2424 85.528 60.701 86.008 61.6184 86.456C62.1517 86.6907 62.621 86.808 63.0264 86.808C63.4957 86.808 64.093 86.6587 64.8184 86.36C65.4157 86.1253 65.917 86.008 66.3224 86.008C67.4744 86.008 68.1784 86.8933 68.4344 88.664C68.4344 88.6853 68.4344 88.728 68.4344 88.792C68.4557 88.856 68.4664 88.8987 68.4664 88.92C68.4664 89.8373 67.901 90.5733 66.7704 91.128C65.661 91.6827 64.3384 91.96 62.8024 91.96C60.797 91.96 59.165 91.5013 57.9064 90.584C56.8397 89.7947 55.9544 88.6213 55.2504 87.064C54.5677 85.4853 53.981 83.3093 53.4904 80.536C53.2557 79.2133 52.957 77.976 52.5944 76.824C52.2317 75.672 51.9224 74.9467 51.6664 74.648C51.2397 74.2 51.0264 73.72 51.0264 73.208C51.0264 72.0987 52.093 71.064 54.2264 70.104ZM83.8984 78.552C83.4504 77.592 83.077 77.112 82.7784 77.112C82.4797 77.112 82.1384 77.5707 81.7544 78.488C81.3277 79.4053 81.1144 80.0347 81.1144 80.376C81.1144 80.7173 81.317 80.888 81.7224 80.888C82.021 80.888 82.341 80.8453 82.6824 80.76C83.685 80.504 84.2397 80.3013 84.3464 80.152C84.389 80.088 84.4104 80.0133 84.4104 79.928C84.4104 79.7573 84.2397 79.2987 83.8984 78.552ZM80.2184 70.168C80.773 69.336 81.4557 68.92 82.2664 68.92C83.333 68.92 84.4424 69.6133 85.5944 71C86.4904 72.1093 87.9944 74.9893 90.1064 79.64C92.2184 84.2693 93.2744 87.032 93.2744 87.928C93.2744 88.6747 93.0184 89.2827 92.5064 89.752C91.9944 90.2 91.3117 90.424 90.4584 90.424C89.925 90.424 89.4984 90.264 89.1784 89.944C88.8797 89.6027 88.549 88.984 88.1864 88.088L87.2584 85.752L82.9704 86.008C81.413 86.1147 80.357 86.2213 79.8024 86.328C79.269 86.4347 78.8637 86.6053 78.5864 86.84C78.309 87.0533 77.9997 87.4907 77.6584 88.152C76.7197 89.9227 75.8344 90.808 75.0024 90.808C74.4904 90.808 73.9464 90.52 73.3704 89.944L72.0264 88.664L73.1464 85.592C73.7224 83.9067 74.8744 81.176 76.6024 77.4C78.3517 73.6027 79.557 71.192 80.2184 70.168Z" fill="#F5F5F5"/>
</svg>
