<svg width="127" height="129" viewBox="0 0 127 129" fill="none" xmlns="http://www.w3.org/2000/svg">
<path d="M52.0678 2.89014C64.5875 2.87849 77.1305 3.92106 89.5977 1.91164C95.63 0.93897 101.616 -0.418112 107.794 0.123556C113.074 0.589507 117.764 2.40672 121.416 6.37312C122.816 7.89329 123.621 9.73379 123.849 11.848C125.687 28.8494 126.095 45.8858 125.477 62.9629C125.115 72.9575 126.369 82.9114 126.223 92.9002C126.147 98.3052 126.725 103.769 124.951 109.04C122.77 115.522 120.226 121.859 113.727 125.231C108.634 127.87 102.917 128.167 97.2927 128.429C76.5062 129.39 55.7315 129.14 34.9684 127.666C28.096 127.177 21.1886 127.025 14.357 126.082C7.50794 125.132 3.5 120.822 1.27726 114.52C-0.52544 109.401 -0.0878936 104.153 0.583012 98.9925C2.05901 87.6058 2.47905 76.2425 1.76147 64.7626C1.04972 53.3526 -0.251241 41.9485 0.349657 30.4861C0.798873 21.8776 3.33664 14.0322 9.33396 7.538C13.1902 3.36774 18.1899 2.27858 23.5222 2.25528C33.0432 2.22034 42.5642 2.15044 52.0736 2.88431L52.0678 2.89014Z" fill="black"/>
<path d="M4.32335 24.0139C3.01715 34.8594 3.83936 45.6934 4.60326 56.5098C5.5071 69.2755 6.10189 82.0178 4.3875 94.766C3.8452 98.7924 3.10462 102.883 3.33787 106.897C3.89767 116.312 7.45473 122.409 18.1084 123.061C24.0096 123.422 29.9225 123.701 35.8295 124.161C58.3089 125.906 80.8291 126.43 103.326 124.376C109.711 123.794 115.449 121.589 118.528 115.346C121.245 109.836 122.925 104.07 122.96 97.809C123.024 85.9802 121.519 74.2153 121.852 62.3748C122.301 46.3916 122.114 30.4142 120.697 14.4658C120.307 10.0846 118.283 7.22189 114.295 5.3309C107.898 2.2995 101.326 3.23044 94.8824 4.42904C85.1734 6.23857 75.3886 6.66914 65.6096 6.38985C51.6321 5.9942 37.6547 5.76146 23.6714 5.62182C18.9014 5.57527 14.6505 6.62841 11.1925 10.0671C9.79305 10.1893 9.65894 11.2541 9.50732 12.3072C9.40236 12.4876 9.30323 12.6679 9.19827 12.8483C8.40522 12.889 8.20695 13.3487 8.3294 14.0469C8.2361 14.2273 8.14864 14.4135 8.05534 14.5938C7.28561 14.6811 7.06403 15.1408 7.20398 15.8448C7.06403 16.1881 6.92408 16.5314 6.78413 16.8747C5.6762 17.6427 5.48376 18.7715 5.55957 20.005C5.3788 20.709 5.19804 21.4072 5.01727 22.1113C3.9968 22.4545 4.13675 23.2226 4.32335 24.0081V24.0139Z" fill="#242527"/>
<path d="M121.858 62.3776C122.307 46.3936 122.12 30.4154 120.703 14.4664C120.312 10.0849 118.289 7.22207 114.3 5.33099C107.904 2.29945 101.332 3.23044 94.8882 4.4291C85.1792 6.23871 75.3944 6.6693 65.6154 6.39C51.638 5.99433 37.6605 5.76158 23.6772 5.62193C18.9072 5.57538 14.6563 6.62857 11.1984 10.0674C10.9476 11.0508 10.3937 11.8014 9.50731 12.3076C9.40235 12.488 9.30322 12.6684 9.19825 12.8488C9.27989 13.5179 9.02915 13.9427 8.32941 14.0474C8.23611 14.2278 8.14864 14.414 8.05534 14.5944C8.18946 15.2984 7.84541 15.6708 7.19814 15.8454C7.0582 16.1887 6.91825 16.532 6.7783 16.8753C6.80162 18.0856 6.44591 19.1504 5.55373 20.0058C5.37296 20.704 5.19219 21.4081 5.01725 22.1121C5.25633 22.9209 5.21553 23.6192 4.32335 24.009C3.01715 34.8551 3.83935 45.6895 4.60324 56.5065C5.50708 69.2728 6.10187 82.0157 4.38749 94.7645C3.84518 98.7911 3.10462 102.882 3.33787 106.897C3.89767 116.311 7.45471 122.409 18.1084 123.061C24.0096 123.422 29.9225 123.701 35.8295 124.161C58.3089 125.906 80.8291 126.43 103.326 124.376C109.711 123.794 115.449 121.589 118.528 115.345C121.245 109.835 122.925 104.069 122.96 97.8077C123.024 85.9783 121.519 74.2129 121.852 62.3718L121.858 62.3776Z" fill="#95FFFD"/>
<g clip-path="url(#clip0_583_12)">
<path d="M50.6755 80.1539C62.2585 62.2813 61.5818 45.1218 48.9855 28.1796C51.9788 28.147 54.8182 28.8819 57.5895 29.7145C59.3046 30.2286 59.6734 29.9172 59.6447 28.1542C59.6018 25.5043 61.4064 23.7811 63.8304 23.8137C66.2437 23.8463 68.0626 25.6238 67.7439 28.328C67.3071 32.0495 68.6677 33.9573 71.994 35.6986C78.593 39.1595 83.9029 44.2638 86.9535 51.3195C91.2323 61.2169 88.4001 71.252 80.974 78.8144C80.0252 79.781 78.8006 80.1865 77.4078 80.1648C74.6723 80.1177 71.9367 80.201 69.2012 80.1286C68.102 80.0996 67.7403 80.4363 67.7905 81.5549C67.8728 83.4156 67.8513 85.2836 67.7976 87.1444C67.7726 88.0892 68.1199 88.4042 69.0401 88.3933C72.549 88.3571 76.0579 88.4006 79.5633 88.368C81.4717 88.3499 82.9326 87.2566 84.2502 86.0402C85.6968 84.7044 87.1326 83.3251 88.3535 81.7902C89.3453 80.5412 90.4696 79.8498 91.9949 79.5095C98.3468 78.094 104.677 76.5881 111.018 75.1328C112.819 74.7201 112.92 74.9807 113.134 76.8342C113.453 79.5674 112.665 81.1748 109.919 82.2138C106.754 83.412 104.427 85.8737 102.643 88.8495C100.37 92.6397 98.2394 96.5278 95.5647 100.065C92.5392 104.065 88.8262 106.28 83.5842 106.186C71.6968 105.973 59.7987 106.241 47.9077 106.085C37.4346 105.947 29.6577 101.154 25.0316 91.5211C23.5958 88.5273 23.0301 85.2836 22.7938 81.9712C22.7079 80.7693 23.0373 80.2335 24.3334 80.248C29.7436 80.2987 35.1574 80.2915 40.5676 80.2516C42.0535 80.2408 42.5799 80.8743 42.4689 82.3296C42.0822 87.3362 43.5323 88.6793 48.4878 88.444C51.7496 88.2883 55.0294 88.3788 58.2985 88.4368C59.3082 88.4549 59.6483 88.158 59.6089 87.1227C59.5373 85.2004 59.5445 83.2745 59.6089 81.3522C59.6412 80.4001 59.3296 80.1141 58.3951 80.1322C55.8565 80.1901 53.3179 80.1539 50.6683 80.1539H50.6755Z" fill="white"/>
<path d="M83.9066 108C83.792 108 83.6774 108 83.5628 108C77.2682 107.888 70.8555 107.909 64.6576 107.931C59.165 107.949 53.4863 107.971 47.897 107.895C36.5575 107.747 28.3258 102.501 23.4312 92.3102C22.0813 89.4974 21.3151 86.2537 21.0179 82.1014C20.9642 81.3448 20.9857 80.2371 21.7841 79.3791C22.6721 78.4234 23.9396 78.4342 24.3621 78.4379C29.4214 78.4849 34.7206 78.4849 40.5677 78.4415C41.8209 78.4342 42.7661 78.7782 43.4285 79.4949C44.0909 80.2117 44.3666 81.1855 44.2664 82.4707C44.1196 84.3713 44.2771 85.5768 44.7318 86.051C45.1937 86.5325 46.4362 86.7316 48.4162 86.6375C51.3737 86.4963 54.3635 86.5542 57.253 86.6085L57.8151 86.6194C57.7722 85.1279 57.7686 83.5929 57.8151 81.9603C56.2003 81.9892 54.6034 81.982 52.9277 81.9747C52.1865 81.9747 51.4382 81.9675 50.6827 81.9675H47.3707L49.186 79.1655C60.3 62.0133 59.7701 45.6901 47.5605 29.2728L45.4336 26.4129L48.9748 26.3767C52.2259 26.3405 55.2586 27.1369 57.8653 27.9116C57.9011 26.2644 58.4919 24.7802 59.5517 23.7086C60.6438 22.5828 62.1798 21.9818 63.8555 21.9999C65.6064 22.0216 67.1532 22.7095 68.2166 23.9367C69.2657 25.1458 69.7312 26.7821 69.5235 28.5379C69.2013 31.2964 69.9711 32.5961 72.8212 34.0912C80.2365 37.9792 85.5429 43.5325 88.5971 50.5954C92.9904 60.7571 90.6774 71.5089 82.2488 80.0923C81.0063 81.3593 79.3342 82.0037 77.3828 81.9747C76.1618 81.953 74.9087 81.9603 73.6984 81.9639C72.3593 81.9711 70.9808 81.9747 69.6059 81.9458C69.6632 83.5785 69.6453 85.1677 69.613 86.5759C71.2243 86.5615 72.8498 86.5651 74.4253 86.5687C76.1081 86.5687 77.8519 86.5723 79.5598 86.5578C80.8094 86.547 81.8621 85.8085 83.058 84.7043C84.3255 83.535 85.7756 82.163 86.9751 80.657C88.214 79.1003 89.6891 78.1736 91.6262 77.7428C95.6615 76.845 99.7576 75.8893 103.721 74.9698C106.027 74.434 108.333 73.8982 110.639 73.3697C111.448 73.185 112.669 72.9027 113.672 73.6195C114.66 74.3254 114.796 75.4947 114.928 76.6278C115.358 80.3095 113.969 82.6264 110.564 83.9151C108.086 84.8527 106.002 86.775 104.194 89.7942C103.721 90.5834 103.252 91.3762 102.787 92.169C101.014 95.1774 99.1847 98.2907 97.0042 101.169C93.5239 105.766 89.238 108.004 83.9137 108.004L83.9066 108ZM72.277 104.289C76.0508 104.289 79.857 104.307 83.6273 104.376C83.724 104.376 83.8242 104.376 83.9209 104.376C88.1602 104.376 91.3254 102.696 94.1541 98.9604C96.2057 96.2489 97.9853 93.2298 99.7039 90.3083C100.177 89.5046 100.649 88.7046 101.125 87.9081C103.338 84.2192 106.088 81.7322 109.303 80.5158C111.158 79.8135 111.602 79.0678 111.366 77.0441C111.362 77.0079 111.355 76.9608 111.351 76.9138C109.074 77.4351 106.797 77.9672 104.52 78.4958C100.549 79.4189 96.442 80.3746 92.3924 81.2761C91.2503 81.5295 90.4876 82.0073 89.7607 82.9232C88.4037 84.6319 86.8319 86.1198 85.4677 87.3796C83.9818 88.7516 82.1235 90.1562 79.592 90.1816C77.8662 90.1997 76.1117 90.1961 74.4181 90.1925C72.6637 90.1925 70.8483 90.1888 69.0688 90.2069C68.7072 90.2142 67.5972 90.2214 66.7844 89.3888C65.9752 88.5561 66.0074 87.4593 66.0182 87.0972C66.0647 85.479 66.0969 83.564 66.011 81.6417C65.9931 81.2435 65.9394 80.0307 66.7844 79.1583C67.5471 78.3727 68.5604 78.3075 69.255 78.3256C70.7194 78.3655 72.2268 78.3582 73.6841 78.351C74.9122 78.3437 76.1833 78.3401 77.4437 78.3618C78.4283 78.3799 79.1552 78.1121 79.7102 77.5473C87.0503 70.0753 89.0948 60.7825 85.3209 52.0507C82.6032 45.7697 77.8447 40.8101 71.1777 37.3131C67.0279 35.1374 65.4703 32.3861 65.9716 28.1216C66.0576 27.3867 65.9036 26.7676 65.5276 26.3332C65.1409 25.8879 64.5322 25.6381 63.8126 25.6273C63.0893 25.6164 62.5021 25.8373 62.0831 26.2644C61.6499 26.7061 61.4279 27.3505 61.4387 28.1288C61.453 28.9144 61.4745 30.3769 60.3573 31.2349C59.233 32.0965 57.8366 31.6802 57.0847 31.4557C55.7241 31.0466 54.2346 30.6267 52.6842 30.3407C57.7328 38.0588 60.4218 45.9218 60.6903 53.7594C60.966 61.8323 58.6816 70.0934 53.8909 78.3582C55.4162 78.3618 56.8842 78.3618 58.3665 78.3293C58.7318 78.3184 59.8525 78.2931 60.6581 79.1185C61.4601 79.9402 61.4243 81.0516 61.4136 81.4172C61.3491 83.4264 61.3491 85.2727 61.4136 87.0574C61.4279 87.4339 61.4709 88.5887 60.6545 89.4322C59.9205 90.1925 58.9502 90.2612 58.2806 90.2504L57.1885 90.2287C54.3563 90.1744 51.4275 90.12 48.5881 90.254C46.3109 90.3626 43.7687 90.2468 42.1646 88.5706C40.5712 86.909 40.5283 84.4111 40.7001 82.1919C40.7037 82.1449 40.7073 82.1014 40.7073 82.0652C40.6751 82.0652 40.6357 82.0652 40.5963 82.0652C34.8388 82.1087 29.604 82.1087 24.6128 82.0652C24.8849 85.6383 25.5365 88.3969 26.6573 90.7355C30.9109 99.5939 38.0756 104.152 47.9472 104.282C53.5078 104.354 59.1722 104.336 64.6504 104.315C67.1675 104.307 69.7169 104.297 72.2841 104.297L72.277 104.289Z" fill="black"/>
<path d="M45.1723 36.1077C48.5129 40.3287 50.4428 44.977 51.2914 50.0524C52.5446 57.5425 51.0873 64.5692 47.3349 71.1325C46.959 71.7914 46.5973 72.2294 45.7129 72.2258C38.7667 72.186 31.8168 72.2041 24.5698 72.2041C31.4624 60.1273 38.2547 48.2243 45.1687 36.1077H45.1723Z" fill="white"/>
<path d="M45.7308 74.0359H45.7058C40.4137 74.0033 35.204 74.0069 29.69 74.0105H21.4727L44.9324 32.9075L46.5723 34.9782C50.0024 39.3079 52.1221 44.1408 53.0602 49.7556C54.3456 57.4556 52.942 64.9529 48.8889 72.0412C48.5451 72.6385 47.7467 74.0359 45.7344 74.0359H45.7308ZM34.6956 70.3868C38.3979 70.3868 42.0142 70.3904 45.6735 70.4121C45.7022 70.3687 45.738 70.3071 45.7881 70.2239C49.4152 63.8814 50.672 57.1986 49.5298 50.3529C48.8495 46.2911 47.4781 42.6891 45.3513 39.4201L27.6777 70.3868H29.69C31.3836 70.3868 33.0486 70.3868 34.6992 70.3868H34.6956Z" fill="black"/>
</g>
<defs>
<clipPath id="clip0_583_12">
<rect width="94" height="86" fill="white" transform="translate(21 22)"/>
</clipPath>
</defs>
</svg>
