<svg width="230" height="235" viewBox="0 0 230 235" fill="none" xmlns="http://www.w3.org/2000/svg">
<path d="M94.8521 5.26498C117.659 5.24376 140.509 7.14301 163.221 3.48245C174.21 1.71053 185.114 -0.761677 196.369 0.225082C205.987 1.07391 214.531 4.38433 221.184 11.61C223.735 14.3792 225.202 17.7321 225.616 21.5836C228.964 52.5552 229.708 83.5903 228.581 114.7C227.922 132.907 230.207 151.04 229.942 169.237C229.804 179.083 230.856 189.036 227.625 198.638C223.65 210.447 219.016 221.991 207.177 228.135C197.899 232.941 187.484 233.482 177.239 233.96C139.372 235.71 101.526 235.254 63.7021 232.57C51.1826 231.678 38.5994 231.403 26.1543 229.684C13.6773 227.954 6.37596 220.103 2.32678 208.622C-0.957196 199.296 -0.160116 189.736 1.06208 180.335C3.7509 159.592 4.51609 138.891 3.20887 117.978C1.91229 97.1928 -0.457687 76.4178 0.636973 55.5367C1.45531 39.8546 6.07838 25.5625 17.0037 13.732C24.0287 6.13503 33.1367 4.1509 42.8505 4.10846C60.195 4.0448 77.5395 3.91747 94.8628 5.25437L94.8521 5.26498Z" fill="black"/>
<path d="M7.87572 43.7461C5.49621 63.5035 6.99404 83.2397 8.38562 102.944C10.0322 126.199 11.1157 149.412 7.99258 172.636C7.00467 179.97 5.65555 187.422 6.08046 194.735C7.10025 211.885 13.5802 222.994 32.988 224.181C43.7383 224.838 54.5098 225.347 65.2706 226.184C106.221 229.364 147.247 230.318 188.229 226.576C199.861 225.516 210.314 221.499 215.923 210.126C220.873 200.088 223.933 189.584 223.996 178.179C224.113 156.63 221.373 135.198 221.978 113.628C222.796 84.5116 222.456 55.4055 219.875 26.3523C219.163 18.3709 215.477 13.156 208.211 9.71117C196.558 4.18885 184.586 5.88476 172.848 8.06826C155.161 11.3647 137.336 12.1491 119.521 11.6403C94.0584 10.9195 68.5956 10.4955 43.1221 10.2411C34.4327 10.1564 26.6887 12.0749 20.3894 18.3391C17.8399 18.5617 17.5956 20.5014 17.3194 22.4199C17.1282 22.7485 16.9476 23.0771 16.7564 23.4057C15.3117 23.4799 14.9505 24.3172 15.1736 25.5892C15.0036 25.9178 14.8443 26.2569 14.6743 26.5855C13.2721 26.7445 12.8684 27.5819 13.1234 28.8644C12.8684 29.4898 12.6135 30.1151 12.3585 30.7405C10.3402 32.1396 9.98965 34.1959 10.1277 36.443C9.79844 37.7256 9.46914 38.9975 9.13983 40.28C7.28084 40.9054 7.53579 42.3045 7.87572 43.7355V43.7461Z" fill="#242527"/>
<path d="M221.989 113.633C222.807 84.5153 222.467 55.4078 219.885 26.3533C219.174 18.3715 215.487 13.1563 208.222 9.71135C196.568 4.18876 184.596 5.88476 172.858 8.06835C155.171 11.3649 137.346 12.1493 119.532 11.6405C94.069 10.9197 68.6062 10.4957 43.1327 10.2413C34.4433 10.1565 26.6993 12.0751 20.4 18.3397C19.9432 20.1311 18.934 21.4985 17.3194 22.4207C17.1282 22.7493 16.9476 23.0779 16.7564 23.4065C16.9051 24.6255 16.4483 25.3993 15.1736 25.5901C15.0036 25.9187 14.8443 26.2579 14.6743 26.5865C14.9186 27.8691 14.2919 28.5475 13.1127 28.8655C12.8578 29.4909 12.6029 30.1163 12.3479 30.7417C12.3904 32.9465 11.7424 34.8863 10.1171 36.4445C9.78781 37.7165 9.45848 38.9991 9.1398 40.2817C9.57534 41.7551 9.50101 43.0271 7.87572 43.7373C5.49621 63.4956 6.99401 83.2327 8.38559 102.938C10.0321 126.194 11.1157 149.408 7.99255 172.633C7.00463 179.968 5.65555 187.42 6.08047 194.734C7.10025 211.885 13.5801 222.993 32.988 224.181C43.7382 224.838 54.5098 225.347 65.2707 226.184C106.222 229.364 147.247 230.318 188.229 226.576C199.861 225.516 210.314 221.499 215.923 210.125C220.873 200.087 223.933 189.582 223.996 178.177C224.113 156.627 221.373 135.194 221.978 113.623L221.989 113.633Z" fill="#95FFFD"/>
<g clip-path="url(#clip0_595_103)">
<path d="M114.428 207.718C106.556 195.038 99.249 183.263 91.5871 170.91C86.8164 175.255 82.4138 179.272 77.262 183.959C72.7542 176.818 68.4172 169.965 63.6466 162.404C57.9034 166.907 52.3574 171.239 46.4696 175.846C46.4039 174.796 46.1542 174.14 46.3645 173.693C55.8401 153.557 58.7182 132.225 57.9428 110.211C57.496 97.3339 58.0742 84.6007 65.4602 72.7077C70.152 77.7091 75.5403 81.109 72.4782 90.009C69.14 99.7099 76.0923 108.899 86.4484 111.288C88.3278 111.721 90.2466 111.944 92.2048 112.259C93.2167 117.536 91.8236 121.094 86.777 123.325C82.6635 125.15 78.9048 127.762 74.2655 130.453C76.3552 131.831 77.7482 133.144 79.391 133.801C92.2573 138.854 98.8285 149.33 103.152 161.564C107.029 172.564 110.473 183.709 114.56 196.193C116.952 188.317 118.87 181.78 120.947 175.295C122.471 170.543 124.219 165.857 125.823 161.131C130.607 146.954 139.464 136.583 154.118 131.779C149.61 123.548 134.799 125.819 136.442 112.377C138.597 111.984 140.7 111.695 142.75 111.196C152.488 108.833 159.69 99.7886 156.523 90.9411C153.316 81.9885 158.14 77.906 163.291 72.6421C169.442 82.4085 171.137 92.9889 171.019 103.963C170.796 123.772 170.651 143.554 177.945 162.47C179.562 166.67 181.283 170.845 183.701 176.909C176.788 171.409 171.334 167.077 165.263 162.247C160.676 169.453 156.287 176.319 151.437 183.945C146.837 179.666 142.487 175.623 137.362 170.884C129.818 183 122.445 194.854 114.428 207.718Z" fill="white"/>
<path d="M114.428 211C113.298 211 112.234 210.409 111.642 209.451L90.8905 176.004L79.4961 186.387C78.7733 187.043 77.8008 187.345 76.8414 187.214C75.882 187.083 75.0146 186.531 74.502 185.718L62.8317 167.235L48.5198 178.432C47.5604 179.18 46.2593 179.338 45.1553 178.839C44.0382 178.34 43.3023 177.277 43.2234 176.056C43.2103 175.78 43.1708 175.544 43.1314 175.334C43.0263 174.599 42.8554 173.47 43.4074 172.289C51.8316 154.397 55.5114 134.129 54.6835 110.316C54.2629 98.2133 54.4864 84.1937 62.6871 70.9749C63.226 70.1085 64.1328 69.5441 65.1579 69.4391C66.1698 69.334 67.1818 69.7147 67.8783 70.463C68.5223 71.1456 69.1794 71.8019 69.8234 72.4451C73.8712 76.4751 78.9047 81.5027 75.606 91.0723C74.502 94.2884 74.778 97.557 76.4077 100.497C78.471 104.212 82.4137 106.982 87.1975 108.085C88.354 108.347 89.5631 108.531 90.851 108.728C91.4819 108.82 92.1258 108.925 92.7567 109.03C94.1103 109.253 95.188 110.303 95.4377 111.655C96.7651 118.652 94.3075 123.601 88.1175 126.344C85.5547 127.473 83.1365 128.957 80.3504 130.65C80.4424 130.689 80.5212 130.729 80.6001 130.755C96.3708 136.951 102.797 150.695 106.254 160.474C108.935 168.049 111.392 175.689 113.981 183.762C114.139 184.234 114.284 184.72 114.441 185.192C115.572 181.438 116.676 177.841 117.806 174.297C118.726 171.396 119.751 168.508 120.737 165.712C121.394 163.835 122.051 161.971 122.695 160.081C127.505 145.838 136.113 135.914 148.335 130.479C147.1 129.679 145.654 128.996 144.169 128.287C138.991 125.832 131.894 122.459 133.182 111.983C133.353 110.566 134.431 109.411 135.85 109.161C136.547 109.03 137.243 108.912 137.94 108.794C139.359 108.557 140.7 108.321 141.988 108.019C146.666 106.89 150.662 103.963 152.685 100.209C153.697 98.3446 154.644 95.4173 153.435 92.0568C149.728 81.7128 155.183 76.1863 159.993 71.3162L160.939 70.3579C161.649 69.636 162.634 69.2815 163.633 69.3866C164.632 69.4916 165.525 70.056 166.064 70.8961C171.834 80.0456 174.449 90.5603 174.305 104.002C174.094 123.076 173.884 142.792 181.007 161.288C182.072 164.058 183.176 166.802 184.503 170.096C185.186 171.79 185.922 173.641 186.75 175.702C187.302 177.08 186.855 178.668 185.659 179.548C184.464 180.427 182.821 180.414 181.651 179.482L166.064 167.09L154.197 185.718C153.671 186.545 152.817 187.083 151.844 187.214C150.885 187.345 149.899 187.03 149.19 186.361L138.045 176.004L117.214 209.451C116.61 210.409 115.559 211 114.428 211ZM112.917 199.055L114.441 201.509L115.861 199.238C115.467 199.409 115.046 199.501 114.599 199.501C114.021 199.514 113.416 199.343 112.917 199.068V199.055ZM91.587 167.629C91.7316 167.629 91.8893 167.629 92.0339 167.655C93.0064 167.786 93.8606 168.351 94.3732 169.178L111.038 196.022C109.894 192.504 108.79 189.104 107.726 185.77C105.137 177.736 102.692 170.149 100.051 162.653C95.1749 148.831 88.4329 140.876 78.195 136.859C76.6968 136.268 75.5009 135.389 74.2392 134.457C73.7004 134.063 73.109 133.63 72.4519 133.197C71.5056 132.567 70.9536 131.503 70.9799 130.361C71.0193 129.232 71.637 128.195 72.6227 127.618C74.0815 126.778 75.4483 125.937 76.7625 125.137C79.6933 123.351 82.4531 121.658 85.4496 120.332C88.1569 119.125 89.2871 117.694 89.2477 115.121C88.0912 114.95 86.9084 114.753 85.7256 114.478C79.1281 112.955 73.6347 109.03 70.6645 103.687C68.1412 99.1322 67.6812 93.9077 69.3897 88.9457C71.177 83.7737 69.5211 81.4896 66.2224 78.1422C61.0049 88.775 60.8998 100.117 61.2415 110.093C61.9906 131.319 59.2701 149.92 52.9356 166.631L61.6358 159.818C62.3717 159.24 63.318 159.004 64.2248 159.175C65.1447 159.332 65.9464 159.871 66.4458 160.658L77.9716 178.892L89.3923 168.482C89.9968 167.931 90.7985 167.629 91.6002 167.629H91.587ZM139.622 115.173C139.924 118.836 142.461 120.214 146.995 122.367C150.609 124.087 154.696 126.029 156.996 130.217C157.469 131.07 157.522 132.094 157.167 133C156.812 133.905 156.063 134.601 155.13 134.916C142.264 139.13 133.695 148.056 128.924 162.194C128.28 164.097 127.61 166.001 126.94 167.904C125.967 170.661 124.968 173.496 124.075 176.306C122.655 180.756 121.275 185.324 119.817 190.168C119.304 191.848 118.792 193.594 118.24 195.392L134.575 169.151C135.088 168.324 135.955 167.76 136.928 167.629C137.9 167.497 138.886 167.812 139.596 168.482L150.78 178.865L162.49 160.488C162.989 159.7 163.804 159.162 164.724 159.017C165.644 158.86 166.577 159.109 167.313 159.687L176.039 166.631C175.645 165.62 175.251 164.636 174.87 163.651C167.287 143.987 167.51 123.627 167.72 103.937C167.839 93.632 166.183 85.2964 162.582 78.0897C159.099 81.8703 157.732 84.6138 159.611 89.8515C161.189 94.249 160.781 99.0403 158.455 103.333C155.551 108.702 149.965 112.85 143.512 114.412C142.211 114.727 140.897 114.963 139.609 115.186L139.622 115.173Z" fill="black"/>
<path d="M167.812 51.7703C157.522 70.7256 143.354 83.3406 126.072 91.3743C120.079 94.1572 111.051 88.8014 103.546 92.5032C86.6323 82.8811 71.6896 71.185 62.95 52.9648C64.2905 53.91 65.631 54.8682 66.9846 55.7871C70.7828 58.3862 73.858 58.57 77.8796 55.1308C98.2238 37.7507 127.058 36.7793 147.626 52.3085C153.724 56.9116 160.453 56.7366 167.812 51.7834V51.7703Z" fill="white"/>
<path d="M103.546 95.7849C102.981 95.7849 102.429 95.6405 101.917 95.3517C87.6574 87.2393 69.9942 75.2544 59.9929 54.3825C59.349 53.0305 59.6907 51.429 60.834 50.4576C61.9774 49.4862 63.6202 49.4206 64.8424 50.2738L66.1172 51.1796C67.024 51.8228 67.9309 52.4529 68.8377 53.083C71.453 54.8682 72.8855 55.0783 75.7374 52.6498C97.225 34.2852 127.597 33.0644 149.597 49.6831C153.264 52.4529 155.498 54.1331 156.865 54.1331C156.878 54.1331 156.891 54.1331 156.904 54.1331C158.468 54.0938 161.294 52.1903 165.959 49.0399C167.221 48.1998 168.89 48.3179 170.007 49.3287C171.124 50.3394 171.413 51.9934 170.69 53.3193C160.479 72.1433 146.338 85.559 127.452 94.3278C123.786 96.0343 119.685 95.4699 115.716 94.9317C111.787 94.3935 108.094 93.8947 104.979 95.4174C104.519 95.6405 104.02 95.7587 103.52 95.7587L103.546 95.7849ZM110.026 87.8694C112.299 87.8694 114.52 88.1713 116.623 88.4601C119.79 88.8933 122.774 89.3002 124.692 88.4076C138.597 81.9491 149.742 72.7734 158.494 60.526C154.644 61.3267 151.608 59.4364 145.641 54.9339C126.125 40.1792 99.1438 41.295 80.0218 57.638C77.1305 60.1059 74.3049 61.2217 71.3873 60.9723C78.5761 71.3557 88.9454 80.2426 103.783 88.8539C105.859 88.1188 107.962 87.8694 110.026 87.8694Z" fill="black"/>
<path d="M114.441 166.644C109.645 151.85 105.807 138.815 91.9025 130.466C100.8 128.13 101.273 122.249 101.759 115.659C102.469 106.063 108.449 99.0928 114.52 99.1716C120.842 99.2503 126.835 106.759 127.058 116.525C127.203 123.049 128.688 127.946 137.046 130.414C122.958 138.671 119.12 151.863 114.441 166.644Z" fill="white"/>
<path d="M114.442 169.926C113.022 169.926 111.76 169.007 111.314 167.655L110.854 166.224C106.425 152.532 102.6 140.718 90.2071 133.275C89.0769 132.593 88.4592 131.306 88.6432 129.994C88.8272 128.681 89.7866 127.618 91.0614 127.289C97.4485 125.609 97.9742 122.262 98.4736 115.423C99.2885 104.37 106.32 95.7716 114.56 95.9029C122.997 96.021 130.081 105.236 130.331 116.46C130.462 122.419 131.605 125.399 137.966 127.276C139.228 127.644 140.135 128.72 140.292 130.02C140.45 131.319 139.819 132.593 138.689 133.249C126.086 140.639 122.314 152.585 117.937 166.408L117.556 167.628C117.123 168.994 115.861 169.913 114.428 169.926H114.442ZM98.5525 131.109C106.872 137.857 111.051 146.625 114.415 156.116C117.753 146.547 121.933 137.725 130.383 131.004C124.903 127.421 123.904 122.039 123.773 116.604C123.589 108.334 118.726 102.519 114.481 102.453C110.446 102.361 105.636 107.783 105.032 115.895C104.651 121.08 104.191 127.276 98.5525 131.109Z" fill="black"/>
<path d="M129.489 100.616C135.679 96.7956 140.963 93.527 146.246 90.2715C146.85 90.4028 147.468 90.534 148.073 90.6653C147.297 93.5007 147.376 97.1369 145.602 99.014C141.37 103.49 135.929 103.7 129.489 100.616Z" fill="white"/>
<path d="M137.388 105.958C134.72 105.958 131.632 105.276 128.07 103.569C126.992 103.044 126.27 101.981 126.217 100.786C126.151 99.5917 126.743 98.4496 127.768 97.8195L144.524 87.4755C145.247 87.0292 146.128 86.8848 146.956 87.0554L148.795 87.4492C149.676 87.6461 150.438 88.1844 150.898 88.9457C151.371 89.7202 151.503 90.6391 151.266 91.5055C151.069 92.2274 150.924 93.0807 150.78 93.9865C150.373 96.4412 149.926 99.2241 148.007 101.246C145.733 103.661 142.29 105.945 137.401 105.945L137.388 105.958ZM143.709 95.6798L137.664 99.421C140.306 99.3423 141.975 98.0689 143.197 96.7694C143.394 96.5593 143.565 96.1655 143.709 95.6798Z" fill="black"/>
<path d="M82.6634 90.2978C87.9203 93.5664 93.1904 96.835 98.973 100.419C93.5584 103.74 88.4723 103.543 84.3719 99.933C82.164 97.9771 81.612 94.144 80.3241 91.151L82.6634 90.2847V90.2978Z" fill="white"/>
<path d="M91.5214 106.037C88.1438 106.037 84.9371 104.816 82.1903 102.388C79.9956 100.445 79.0756 97.6226 78.2608 95.1153C77.9454 94.157 77.6431 93.2382 77.3014 92.4505C76.9466 91.6235 76.9466 90.6784 77.3014 89.8514C77.6563 89.0244 78.3397 88.3812 79.1808 88.0661L81.5201 87.1998C82.4663 86.8453 83.5309 86.9503 84.3851 87.4886L100.695 97.6094C101.667 98.2133 102.245 99.2634 102.245 100.405C102.245 101.548 101.654 102.598 100.682 103.188C97.6062 105.079 94.4915 106.024 91.5214 106.024V106.037ZM85.5548 95.9554C85.857 96.6118 86.1724 97.15 86.5536 97.4782C88.0124 98.7646 89.5763 99.4341 91.2717 99.5128L85.5548 95.9686V95.9554Z" fill="black"/>
</g>
<defs>
<clipPath id="clip0_595_103">
<rect width="144" height="173" fill="white" transform="translate(43 38)"/>
</clipPath>
</defs>
</svg>
