<svg width="229" height="235" viewBox="0 0 229 235" fill="none" xmlns="http://www.w3.org/2000/svg">
<path d="M94.4397 5.26498C117.148 5.24376 139.898 7.14301 162.511 3.48245C173.452 1.71053 184.309 -0.761677 195.515 0.225082C205.091 1.07391 213.599 4.38433 220.223 11.61C222.762 14.3792 224.223 17.7321 224.635 21.5836C227.968 52.5552 228.709 83.5903 227.588 114.7C226.931 132.907 229.206 151.04 228.942 169.237C228.804 179.083 229.852 189.036 226.635 198.638C222.678 210.447 218.064 221.991 206.276 228.135C197.039 232.941 186.669 233.482 176.468 233.96C138.766 235.71 101.085 235.254 63.4252 232.57C50.9601 231.678 38.4315 231.403 26.0405 229.684C13.6178 227.954 6.34824 220.103 2.31667 208.622C-0.953035 199.296 -0.15942 189.736 1.05746 180.335C3.73459 159.592 4.49645 138.891 3.19492 117.978C1.90397 97.1928 -0.455697 76.4178 0.634203 55.5367C1.44898 39.8546 6.05196 25.5625 16.9298 13.732C23.9242 6.13503 32.9926 4.1509 42.6642 4.10846C59.9333 4.0448 77.2024 3.91747 94.4503 5.25437L94.4397 5.26498Z" fill="black"/>
<path d="M7.87572 43.7461C5.49621 63.5035 6.99404 83.2397 8.38562 102.944C10.0322 126.199 11.1157 149.412 7.99258 172.636C7.00467 179.97 5.65555 187.422 6.08046 194.735C7.10025 211.885 13.5802 222.994 32.988 224.181C43.7383 224.838 54.5098 225.347 65.2706 226.184C106.221 229.364 147.247 230.318 188.229 226.576C199.861 225.516 210.314 221.499 215.923 210.126C220.873 200.088 223.933 189.584 223.996 178.179C224.113 156.63 221.373 135.198 221.978 113.628C222.796 84.5116 222.456 55.4055 219.875 26.3523C219.163 18.3709 215.477 13.156 208.211 9.71117C196.558 4.18885 184.586 5.88476 172.848 8.06826C155.161 11.3647 137.336 12.1491 119.521 11.6403C94.0584 10.9195 68.5956 10.4955 43.1221 10.2411C34.4327 10.1564 26.6887 12.0749 20.3894 18.3391C17.8399 18.5617 17.5956 20.5014 17.3194 22.4199C17.1282 22.7485 16.9476 23.0771 16.7564 23.4057C15.3117 23.4799 14.9505 24.3172 15.1736 25.5892C15.0036 25.9178 14.8443 26.2569 14.6743 26.5855C13.2721 26.7445 12.8684 27.5819 13.1234 28.8644C12.8684 29.4898 12.6135 30.1151 12.3585 30.7405C10.3402 32.1396 9.98965 34.1959 10.1277 36.443C9.79844 37.7256 9.46914 38.9975 9.13983 40.28C7.28084 40.9054 7.53579 42.3045 7.87572 43.7355V43.7461Z" fill="black"/>
<path d="M88.6849 83.96C87.3409 82.456 85.5969 81.704 83.4529 81.704C82.3009 81.704 81.5009 81.864 81.0529 82.184C80.6369 82.472 80.4289 83.16 80.4289 84.248C80.4289 85.784 81.1809 90.088 82.6849 97.16C82.9409 98.44 83.5169 99.08 84.4129 99.08C85.4049 99.08 86.7169 98.264 88.3489 96.632C90.1089 94.872 90.9889 92.696 90.9889 90.104C90.9889 87.672 90.2209 85.624 88.6849 83.96ZM75.3409 75.224C77.0689 74.36 79.4369 73.928 82.4449 73.928C86.9249 73.928 90.2369 74.712 92.3809 76.28C94.3649 77.688 95.9169 79.64 97.0369 82.136C98.1569 84.632 98.7169 87.256 98.7169 90.008C98.7169 92.856 98.1409 95.432 96.9889 97.736C95.6769 100.52 93.4689 102.904 90.3649 104.888C87.2609 106.84 84.3649 107.816 81.6769 107.816C79.8209 107.816 78.4129 107.288 77.4529 106.232C76.6849 105.368 75.5649 101.448 74.0929 94.472C72.6529 87.464 71.9329 82.6 71.9329 79.88C71.9329 79.496 71.9649 79.144 72.0289 78.824C72.1569 78.216 72.5409 77.56 73.1809 76.856C73.8209 76.152 74.5409 75.608 75.3409 75.224ZM105.871 75.656C108.111 74.632 110.191 74.12 112.111 74.12C113.999 74.12 115.295 74.664 115.999 75.752C116.287 76.232 116.431 76.744 116.431 77.288C116.431 78.888 115.423 80.216 113.407 81.272C112.415 81.816 111.919 82.808 111.919 84.248C111.919 84.696 111.935 85.064 111.967 85.352C112.095 87.496 112.559 88.568 113.359 88.568C113.839 88.568 114.575 88.248 115.567 87.608C116.079 87.256 116.815 87.08 117.775 87.08C118.191 87.08 118.479 87.112 118.639 87.176C120.111 87.784 120.847 88.92 120.847 90.584C120.847 91.608 120.543 92.6 119.935 93.56C119.327 94.52 118.479 95.224 117.391 95.672C115.727 96.344 114.895 97.128 114.895 98.024C114.895 98.792 115.583 99.512 116.959 100.184C117.759 100.536 118.463 100.712 119.071 100.712C119.775 100.712 120.671 100.488 121.759 100.04C122.655 99.688 123.407 99.512 124.015 99.512C125.743 99.512 126.799 100.84 127.183 103.496C127.183 103.528 127.183 103.592 127.183 103.688C127.215 103.784 127.231 103.848 127.231 103.88C127.231 105.256 126.383 106.36 124.687 107.192C123.023 108.024 121.039 108.44 118.735 108.44C115.727 108.44 113.279 107.752 111.391 106.376C109.791 105.192 108.463 103.432 107.407 101.096C106.383 98.728 105.503 95.464 104.767 91.304C104.415 89.32 103.967 87.464 103.423 85.736C102.879 84.008 102.415 82.92 102.031 82.472C101.391 81.8 101.071 81.08 101.071 80.312C101.071 78.648 102.671 77.096 105.871 75.656ZM131.515 77.144C132.251 76.6 132.955 76.328 133.627 76.328C134.427 76.328 135.227 76.744 136.027 77.576C136.827 78.376 137.755 79.688 138.811 81.512C139.483 82.6 140.139 83.544 140.779 84.344C141.419 85.112 141.851 85.496 142.075 85.496C142.683 85.496 144.411 84.008 147.259 81.032C150.075 78.024 152.443 76.52 154.363 76.52C155.579 76.52 156.491 77.112 157.099 78.296C157.707 79.64 158.011 80.408 158.011 80.6C158.011 80.984 156.043 83.208 152.107 87.272L146.251 93.416L149.083 97.496C150.843 100.088 151.723 102.168 151.723 103.736C151.723 105.496 150.651 106.472 148.507 106.664C148.251 106.696 147.899 106.712 147.451 106.712C146.619 106.712 145.931 106.488 145.387 106.04C144.843 105.592 144.123 104.664 143.227 103.256C141.787 101.144 140.699 100.088 139.963 100.088C139.323 100.088 138.667 100.792 137.995 102.2C137.259 103.896 136.091 104.744 134.491 104.744C133.755 104.744 133.003 104.552 132.235 104.168C131.051 103.528 130.459 102.424 130.459 100.856C130.459 99.64 130.891 98.664 131.755 97.928C132.651 97.16 133.099 96.488 133.099 95.912C133.099 95.336 133.579 94.504 134.539 93.416C135.051 92.84 135.307 92.328 135.307 91.88C135.307 91.176 134.459 89.576 132.763 87.08C130.715 84.04 129.691 81.752 129.691 80.216C129.691 79 130.299 77.976 131.515 77.144ZM21.3413 124.608C23.1333 123.52 25.1173 122.976 27.2933 122.976C28.7333 122.976 29.8213 123.232 30.5573 123.744C31.1973 124.128 31.5173 124.976 31.5173 126.288C31.5173 126.608 31.5013 126.848 31.4693 127.008C31.3733 128.032 31.0853 128.784 30.6053 129.264C30.1573 129.712 29.3093 130.144 28.0613 130.56C25.9493 131.264 24.8933 131.936 24.8933 132.576C24.8933 133.184 25.9173 133.792 27.9653 134.4C30.4613 135.136 32.4933 136.56 34.0613 138.672C35.6613 140.784 36.4613 143.056 36.4613 145.488C36.4613 146.736 36.2213 147.952 35.7413 149.136C33.8533 153.456 30.3333 155.616 25.1813 155.616C24.6053 155.616 24.1733 155.6 23.8853 155.568C21.2613 155.408 19.2293 154.832 17.7893 153.84C16.3493 152.848 15.6293 151.552 15.6293 149.952C15.6293 148.896 15.9493 148.08 16.5893 147.504C17.2293 146.928 18.1253 146.64 19.2773 146.64C20.1733 146.64 21.1173 146.8 22.1093 147.12C23.1973 147.472 24.2213 147.648 25.1813 147.648C27.1013 147.648 28.0613 146.816 28.0613 145.152C28.0613 144 27.2613 143.088 25.6613 142.416C22.2053 141.072 19.9173 140.048 18.7973 139.344C17.7093 138.608 16.9253 137.664 16.4453 136.512C16.1893 135.84 16.0613 135.136 16.0613 134.4C16.0613 132.64 16.5733 130.8 17.5973 128.88C18.6213 126.928 19.8693 125.504 21.3413 124.608ZM46.2541 127.104C48.7501 125.504 50.5741 124.704 51.7261 124.704C52.3981 124.704 53.2781 124.96 54.3661 125.472C55.5181 126.08 56.0941 127.008 56.0941 128.256C56.0941 129.248 55.6941 130.304 54.8941 131.424C54.1261 132.512 53.0221 133.52 51.5821 134.448C49.6941 135.568 48.7501 137.472 48.7501 140.16C48.7501 141.088 48.9101 142.24 49.2301 143.616C49.5501 144.736 50.0941 145.616 50.8621 146.256C51.6621 146.864 52.6061 147.168 53.6941 147.168C54.6541 147.168 55.5981 146.944 56.5261 146.496C57.9981 145.824 59.2941 145.488 60.4141 145.488C62.1741 145.488 63.3901 146.224 64.0621 147.696C64.4141 148.496 64.5901 149.088 64.5901 149.472C64.5901 150.112 64.0941 150.944 63.1021 151.968C62.0461 153.088 60.6061 154 58.7821 154.704C56.9901 155.376 55.1821 155.712 53.3581 155.712C52.0781 155.712 50.9581 155.552 49.9981 155.232C46.4461 154.176 43.6781 152.272 41.6941 149.52C39.7101 146.768 38.7181 143.728 38.7181 140.4C38.7181 137.808 39.3581 135.344 40.6381 133.008C41.9181 130.64 43.7901 128.672 46.2541 127.104ZM80.3082 130.032C79.3162 129.424 78.4042 129.12 77.5722 129.12C76.8682 129.12 76.3082 129.344 75.8922 129.792C75.4762 130.208 75.2682 130.8 75.2682 131.568C75.2682 132.208 75.3962 132.848 75.6522 133.488L76.3722 135.552L79.0602 133.248C80.3402 132.064 80.9802 131.28 80.9802 130.896C80.9802 130.608 80.7562 130.32 80.3082 130.032ZM72.2922 121.776C73.4122 121.392 74.7242 121.2 76.2282 121.2C78.4042 121.2 80.5482 121.568 82.6602 122.304C84.7722 123.008 86.2922 123.904 87.2202 124.992C88.3722 126.336 88.9482 128.256 88.9482 130.752C88.9482 132.48 88.6122 134.048 87.9402 135.456C86.9802 137.216 86.5002 138.224 86.5002 138.48C86.5002 138.704 87.9562 139.712 90.8682 141.504C94.1642 143.616 95.8122 145.52 95.8122 147.216C95.8122 147.824 95.6202 148.448 95.2362 149.088C94.7242 149.984 93.8922 150.432 92.7402 150.432C90.9162 150.432 88.1962 149.264 84.5802 146.928C81.0602 144.656 78.8682 143.52 78.0042 143.52C77.3002 143.52 76.9482 144.144 76.9482 145.392C76.9482 145.968 77.0282 146.928 77.1882 148.272C77.3802 149.616 77.4762 150.752 77.4762 151.68C77.4762 153.024 77.2362 153.968 76.7562 154.512C76.0842 155.376 75.0922 155.808 73.7802 155.808C72.2442 155.808 71.1882 155.248 70.6122 154.128C70.1322 153.232 69.3962 149.392 68.4042 142.608C67.4442 135.824 66.9642 131.216 66.9642 128.784C66.9642 127.344 67.4762 125.952 68.5002 124.608C69.5242 123.232 70.7882 122.288 72.2922 121.776ZM103.105 124.656C105.345 123.632 107.425 123.12 109.345 123.12C111.233 123.12 112.529 123.664 113.233 124.752C113.521 125.232 113.665 125.744 113.665 126.288C113.665 127.888 112.657 129.216 110.641 130.272C109.649 130.816 109.153 131.808 109.153 133.248C109.153 133.696 109.169 134.064 109.201 134.352C109.329 136.496 109.793 137.568 110.593 137.568C111.073 137.568 111.809 137.248 112.801 136.608C113.313 136.256 114.049 136.08 115.009 136.08C115.425 136.08 115.713 136.112 115.873 136.176C117.345 136.784 118.081 137.92 118.081 139.584C118.081 140.608 117.777 141.6 117.169 142.56C116.561 143.52 115.713 144.224 114.625 144.672C112.961 145.344 112.129 146.128 112.129 147.024C112.129 147.792 112.817 148.512 114.193 149.184C114.993 149.536 115.697 149.712 116.305 149.712C117.009 149.712 117.905 149.488 118.993 149.04C119.889 148.688 120.641 148.512 121.249 148.512C122.977 148.512 124.033 149.84 124.417 152.496C124.417 152.528 124.417 152.592 124.417 152.688C124.449 152.784 124.465 152.848 124.465 152.88C124.465 154.256 123.617 155.36 121.921 156.192C120.257 157.024 118.273 157.44 115.969 157.44C112.961 157.44 110.513 156.752 108.625 155.376C107.025 154.192 105.697 152.432 104.641 150.096C103.617 147.728 102.737 144.464 102.001 140.304C101.649 138.32 101.201 136.464 100.657 134.736C100.113 133.008 99.6492 131.92 99.2652 131.472C98.6252 130.8 98.3052 130.08 98.3052 129.312C98.3052 127.648 99.9052 126.096 103.105 124.656ZM131.725 124.656C133.965 123.632 136.045 123.12 137.965 123.12C139.853 123.12 141.149 123.664 141.853 124.752C142.141 125.232 142.285 125.744 142.285 126.288C142.285 127.888 141.277 129.216 139.261 130.272C138.269 130.816 137.773 131.808 137.773 133.248C137.773 133.696 137.789 134.064 137.821 134.352C137.949 136.496 138.413 137.568 139.213 137.568C139.693 137.568 140.429 137.248 141.421 136.608C141.933 136.256 142.669 136.08 143.629 136.08C144.045 136.08 144.333 136.112 144.493 136.176C145.965 136.784 146.701 137.92 146.701 139.584C146.701 140.608 146.397 141.6 145.789 142.56C145.181 143.52 144.333 144.224 143.245 144.672C141.581 145.344 140.749 146.128 140.749 147.024C140.749 147.792 141.437 148.512 142.813 149.184C143.613 149.536 144.317 149.712 144.925 149.712C145.629 149.712 146.525 149.488 147.613 149.04C148.509 148.688 149.261 148.512 149.869 148.512C151.597 148.512 152.653 149.84 153.037 152.496C153.037 152.528 153.037 152.592 153.037 152.688C153.069 152.784 153.085 152.848 153.085 152.88C153.085 154.256 152.237 155.36 150.541 156.192C148.877 157.024 146.893 157.44 144.589 157.44C141.581 157.44 139.133 156.752 137.245 155.376C135.645 154.192 134.317 152.432 133.261 150.096C132.237 147.728 131.357 144.464 130.621 140.304C130.269 138.32 129.821 136.464 129.277 134.736C128.733 133.008 128.269 131.92 127.885 131.472C127.245 130.8 126.925 130.08 126.925 129.312C126.925 127.648 128.525 126.096 131.725 124.656ZM173.017 128.16C173.625 127.072 174.681 126.528 176.185 126.528C177.529 126.528 178.553 126.96 179.257 127.824C179.801 128.528 180.073 130.528 180.073 133.824C180.073 135.52 180.041 136.896 179.977 137.952C179.881 141.472 179.689 143.936 179.401 145.344C179.145 146.752 178.681 147.84 178.009 148.608C176.889 149.824 175.577 150.432 174.073 150.432C172.185 150.432 170.217 149.504 168.169 147.648C166.665 146.336 165.561 145.68 164.857 145.68C163.801 145.68 163.273 147.28 163.273 150.48C163.273 152.336 162.937 153.696 162.265 154.56C161.593 155.392 160.537 155.808 159.097 155.808C157.561 155.808 156.537 154.944 156.025 153.216C155.513 151.456 155.257 147.968 155.257 142.752C155.257 139.136 155.353 136.48 155.545 134.784C155.769 133.056 156.153 131.824 156.697 131.088C157.561 129.776 158.729 129.12 160.201 129.12C161.641 129.12 162.697 129.776 163.369 131.088C163.977 132.272 165.353 134.032 167.497 136.368C169.641 138.672 170.953 139.824 171.433 139.824C171.529 139.824 171.625 139.6 171.721 139.152C171.849 138.704 171.945 138.096 172.009 137.328C172.105 136.528 172.153 135.696 172.153 134.832C172.153 131.664 172.441 129.44 173.017 128.16ZM200.145 137.328C199.473 135.888 198.913 135.168 198.465 135.168C198.017 135.168 197.505 135.856 196.929 137.232C196.289 138.608 195.969 139.552 195.969 140.064C195.969 140.576 196.273 140.832 196.881 140.832C197.329 140.832 197.809 140.768 198.321 140.64C199.825 140.256 200.657 139.952 200.817 139.728C200.881 139.632 200.913 139.52 200.913 139.392C200.913 139.136 200.657 138.448 200.145 137.328ZM194.625 124.752C195.457 123.504 196.481 122.88 197.697 122.88C199.297 122.88 200.961 123.92 202.689 126C204.033 127.664 206.289 131.984 209.457 138.96C212.625 145.904 214.209 150.048 214.209 151.392C214.209 152.512 213.825 153.424 213.057 154.128C212.289 154.8 211.265 155.136 209.985 155.136C209.185 155.136 208.545 154.896 208.065 154.416C207.617 153.904 207.121 152.976 206.577 151.632L205.185 148.128L198.753 148.512C196.417 148.672 194.833 148.832 194.001 148.992C193.201 149.152 192.593 149.408 192.177 149.76C191.761 150.08 191.297 150.736 190.785 151.728C189.377 154.384 188.049 155.712 186.801 155.712C186.033 155.712 185.217 155.28 184.353 154.416L182.337 152.496L184.017 147.888C184.881 145.36 186.609 141.264 189.201 135.6C191.825 129.904 193.633 126.288 194.625 124.752Z" fill="#F5F5F5"/>
</svg>
